<?xml version="1.0" encoding="UTF-8" standalone="no"?>
<svg
   xmlns:dc="http://purl.org/dc/elements/1.1/"
   xmlns:cc="http://creativecommons.org/ns#"
   xmlns:rdf="http://www.w3.org/1999/02/22-rdf-syntax-ns#"
   xmlns:svg="http://www.w3.org/2000/svg"
   xmlns="http://www.w3.org/2000/svg"
   viewBox="0 0 666.66669 666.66669"
   height="666.66669"
   width="666.66669"
   xml:space="preserve"
   id="svg2"
   version="1.1"><metadata
     id="metadata8"><rdf:RDF><cc:Work
         rdf:about=""><dc:format>image/svg+xml</dc:format><dc:type
           rdf:resource="http://purl.org/dc/dcmitype/StillImage" /></cc:Work></rdf:RDF></metadata><defs
     id="defs6" /><g
     transform="matrix(1.3333333,0,0,-1.3333333,0,666.66667)"
     id="g10"><g
       transform="scale(0.1)"
       id="g12"><path
         id="path14"
         style="fill:#e0e0de;fill-opacity:1;fill-rule:evenodd;stroke:none"
         d="M 0,0 H 5000 V 5000 H 0 V 0" /><path
         id="path16"
         style="fill:#370c14;fill-opacity:1;fill-rule:evenodd;stroke:none"
         d="m 4091.58,1963.28 380.23,-380.19 H 3467.29 v 760.42 h 1004.52 z m -3183.178,0 -380.211,380.23 H 1532.71 V 1583.09 H 528.191 l 380.211,380.19 v 0" /><path
         id="path18"
         style="fill:#6f1418;fill-opacity:1;fill-rule:evenodd;stroke:none"
         d="M 654.531,2291.16 H 1480.38 V 1635.42 H 654.531 l 327.879,327.86 -327.879,327.88" /><path
         id="path20"
         style="fill:#6f1418;fill-opacity:1;fill-rule:evenodd;stroke:none"
         d="m 4345.46,2291.16 h -825.82 v -655.74 h 825.82 l -327.88,327.86 327.88,327.88" /><path
         id="path22"
         style="fill:#370c14;fill-opacity:1;fill-rule:evenodd;stroke:none"
         d="m 2500,599.609 c -24.15,-0.039 -51.28,8.063 -68.71,12.473 -51.45,13.047 -102.56,29.566 -152.35,47.84 -162.26,59.476 -319.18,141.976 -459.32,243.058 -454.15,327.58 -671.47,801.97 -671.47,1359.19 V 3513.9 L 2500,3638.69 3851.85,3513.9 V 2262.17 c 0,-557.22 -217.32,-1031.61 -671.48,-1359.19 -140.14,-101.082 -297.06,-183.582 -459.3,-243.058 -49.81,-18.274 -100.91,-34.793 -152.37,-47.84 -17.43,-4.41 -44.55,-12.512 -68.7,-12.473" /><path
         id="path24"
         style="fill:#ffffff;fill-opacity:1;fill-rule:evenodd;stroke:none"
         d="M 2500,3586.13 1200.47,3466.17 v -1204 C 1200.47,907.031 2500,649.219 2500,651.781 c 0,-2.562 1299.51,255.25 1299.51,1610.389 v 1204 L 2500,3586.13" /><path
         id="path26"
         style="fill:#e0e0de;fill-opacity:1;fill-rule:evenodd;stroke:none"
         d="M 2500,3562.91 1222.08,3444.94 V 2260.83 c 0,-281.01 56.96,-554.81 194.05,-801.72 106.51,-191.84 253.82,-353.4 429.92,-483.501 133.37,-98.55 282.93,-178.988 437.98,-237.757 49.15,-18.633 99.51,-35.422 150.32,-48.95 15,-4.004 30.12,-7.773 45.31,-10.89 4.48,-0.93 8.97,-1.813 13.48,-2.532 0.96,-0.16 2.14,-0.339 3.3,-0.519 h 7.11 c 1.16,0.18 2.34,0.359 3.3,0.519 4.53,0.719 9.01,1.602 13.48,2.532 15.19,3.117 30.33,6.886 45.3,10.89 50.83,13.528 101.18,30.317 150.34,48.95 155.04,58.769 304.61,139.207 437.99,237.757 176.08,130.101 323.4,291.661 429.89,483.501 137.1,246.91 194.07,520.71 194.07,801.72 V 3444.94 L 2500,3562.91" /><path
         id="path28"
         style="fill:#8c9090;fill-opacity:1;fill-rule:evenodd;stroke:none"
         d="M 2500,3496.02 3709.8,3384.35 V 2262.17 c 0,-486.73 -176.78,-906.36 -565.24,-1208.56 -126.5,-98.399 -268,-178.411 -416.39,-238.669 -65.38,-26.55 -132.99,-51.91 -201.92,-67.601 l -26.25,-5.938 -26.26,5.938 c -68.93,15.691 -136.53,41.051 -201.93,67.601 -148.39,60.258 -289.88,140.27 -416.36,238.669 -388.47,302.2 -565.24,721.83 -565.24,1208.56 V 3384.35 L 2500,3496.02" /><path
         id="path30"
         style="fill:#370c14;fill-opacity:1;fill-rule:evenodd;stroke:none"
         d="M 2500,3429.63 3643.67,3324.06 V 2262.17 c 0,-466.32 -167.44,-866.77 -539.72,-1156.37 -121.59,-94.58 -257.99,-171.679 -400.65,-229.601 -60.97,-24.758 -127.51,-49.789 -191.7,-64.367 l -11.6,-2.641 -11.62,2.641 c -64.18,14.578 -130.71,39.609 -191.69,64.367 -142.64,57.922 -279.06,135.021 -400.65,229.601 -372.27,289.6 -539.71,690.05 -539.71,1156.37 V 3324.06 L 2500,3429.63" /><path
         id="path32"
         style="fill:#ef2f30;fill-opacity:1;fill-rule:evenodd;stroke:none"
         d="M 2500,3377.08 1408.64,3276.33 V 2262.17 c 0,-451.17 160.78,-836 519.53,-1115.07 117.62,-91.49 250.18,-166.37 388.22,-222.428 51.67,-20.992 123.94,-48.262 183.61,-61.82 59.68,13.558 131.93,40.828 183.6,61.82 138.04,56.058 270.61,130.938 388.23,222.428 358.74,279.07 519.52,663.9 519.52,1115.07 V 3276.33 L 2500,3377.08" /><path
         id="path34"
         style="fill:#370c14;fill-opacity:1;fill-rule:evenodd;stroke:none"
         d="m 2048.09,4289.67 c 82.31,0.62 131.56,5.82 206.99,-40.18 78.04,-47.6 111.02,-123.47 99.5,-213.79 -7.83,-61.28 -22.81,-117.24 -37.98,-176.69 -2.72,-10.65 -15.59,-60.7 -10.26,-70.9 4.17,-3.6 21.37,-5.11 26.28,-5.35 6.04,-0.32 12.08,0.1 18.02,1.19 47.38,8.76 83.08,58.03 102.06,98.82 28.11,60.47 36.94,133.14 24.47,198.6 -11.45,60.05 -32.18,122.01 -68.38,171.92 -37.98,52.36 -118.12,113.87 -171.75,127.94 115.51,46.27 251.36,-3.67 285.56,-20.49 123.81,-60.91 203.71,-167.44 233.24,-302.03 20.03,-91.19 29.67,-180.84 22.46,-274.03 -1.77,-23.1 -5.06,-46.29 -6.52,-69.31 -0.3,-4.87 -1.05,-18.64 1.3,-23.15 3.51,-6.71 29.98,-15.07 36.39,-16.98 10.12,-3.03 39.22,-10.48 48.74,-1.79 10.85,9.87 10.66,43.7 10.08,56.76 -1.85,41.24 -11.64,85.58 -20.94,125.77 -16.67,71.84 -0.18,139.79 50.68,193.53 36.2,38.27 88.88,67.17 140.36,78.3 35.45,7.65 156.53,22.72 175.78,-6.13 -55.3,-43.53 -112.97,-80.08 -153.69,-138.27 -22.88,-32.7 -40.28,-71.46 -9.73,-105.19 24.28,-26.81 50.75,-48.59 78.54,-71.47 25.48,-20.99 50.9,-42.63 68.19,-71.2 29.97,-49.47 25.87,-104.53 11.88,-158.45 -6.5,-24.93 -42.07,-157.19 -21.2,-178.51 3.98,-4.09 13.93,-5.36 19.17,-5.76 6.46,-0.5 12.77,0.23 18.05,4.25 17.99,13.73 19.41,52.79 17.18,72.94 -1.43,12.94 -4.49,26.11 -9.46,38.17 -6.3,15.26 -9.06,31.43 -8.37,47.91 1.31,31.31 14.99,60.7 33.77,85.31 61.15,80.12 132.09,78.55 217.45,92.8 -33.98,-43.48 -124.3,-167.86 -71.43,-217.71 60.89,-57.41 90.1,-264.8 96.6,-345.36 8.36,-103.56 11.98,-307.01 -91.16,-368.89 -30.44,-18.28 -90.27,-25.16 -125.35,-28.92 -69.42,-7.48 -140.34,-10.46 -210.13,-12.59 -192.31,-5.93 -386.06,-3.89 -578.46,-0.53 -300.67,5.25 -602.33,14.86 -902.78,28.65 l -26.44,1.21 -8.13,25.19 c -23.42,72.62 -49.57,140.17 -59.51,216.72 -12.61,97.1 4.24,186.36 55.17,270.57 37.64,62.24 81.47,136.96 103.8,206.37 9.19,28.61 20.1,72.89 1.38,100.14 -32.23,46.87 -91.48,87.84 -135.75,126.31 l 83.92,9.29 c 31.22,2.72 69.8,-1.59 99.82,-9.24 67.17,-17.13 122.02,-56.71 147.11,-123.26 7.93,-21.04 18.26,-47.82 31.04,-66.42 1.27,-1.83 7.45,-10.16 9.96,-10.71 7.16,-1.52 37.45,11.9 44.34,14.81 6.99,2.99 12.97,7.05 16.37,14.02 12.47,25.35 -7.36,76.83 -18.29,101.19 -21.15,47.18 -25.79,104.8 -14.98,155.08 17.29,80.46 70.89,140.9 139.88,183.01 42.75,26.08 90.99,66.79 101.42,118.64 12.75,63.4 -76.19,125.86 -116.26,167.89" /><path
         id="path36"
         style="fill:#ef2f30;fill-opacity:1;fill-rule:evenodd;stroke:none"
         d="m 1594.99,2826.98 c -39.99,123.94 -111.96,283.88 -8,455.84 103.96,171.93 147.95,283.89 103.96,347.87 -43.99,63.96 -79.98,75.97 -79.98,75.97 0,0 161.95,13.99 207.93,-107.97 45.99,-121.96 69.97,-111.95 135.96,-83.96 65.96,27.98 43.97,107.96 17.98,165.94 -25.98,57.97 -43.99,195.93 109.97,289.88 153.95,93.97 131.95,207.93 93.97,243.92 -38,35.98 -42,37.98 -42,37.98 0,0 205.93,-23.98 181.95,-211.92 -24.01,-187.93 -105.97,-289.89 13.98,-295.89 119.96,-6 215.92,175.93 183.95,343.88 -32.01,167.93 -111.98,241.9 -167.96,267.89 -55.98,25.99 299.9,22 371.89,-305.88 71.97,-327.88 -53.99,-371.87 79.97,-411.85 133.94,-39.99 117.94,87.98 85.96,225.91 -31.99,137.96 87.96,209.93 161.95,225.92 73.96,15.99 77.96,10 77.96,10 0,0 -197.94,-141.95 -101.96,-247.91 95.95,-105.96 189.93,-111.95 149.94,-265.9 -39.98,-153.95 -45.96,-225.92 31.97,-231.92 77.99,-6.01 92,99.97 64,167.94 -15.25,37.02 7.17,77.93 27.94,102.63 40.06,47.61 105.72,62.03 105.33,62.31 0,0 -93.29,-132.94 -23.3,-198.93 69.96,-65.98 151.92,-569.78 11.97,-653.76 -139.95,-83.96 -1795.33,-7.99 -1795.33,-7.99" /><path
         id="path38"
         style="fill:#f36329;fill-opacity:1;fill-rule:evenodd;stroke:none"
         d="m 1768.88,3557.74 c -1.56,-26.7 -7.71,-53.59 -15.98,-79.31 -24.97,-77.58 -71.32,-157.82 -113.37,-227.39 -76.97,-127.29 -40.7,-240.15 0.56,-364.63 285.53,-12.72 572.03,-21.68 857.66,-26.66 188.28,-3.29 377.82,-5.27 566.04,0.27 67.32,1.97 135.66,4.7 202.68,11.5 19.61,2 75.1,7.72 92.65,16.32 21.66,13.49 33.66,63.57 37.76,86.21 10.99,60.31 9.93,128.16 5.01,189.09 -5.01,62.09 -14.88,126.05 -30.44,186.41 -4.41,17.13 -17.29,62.51 -29.43,85.32 -6.76,-76.84 -52.14,-148.24 -142.32,-141.3 -31.17,2.39 -60.42,12.65 -82.68,35.37 -32.4,33.11 -37.29,79.13 -33.82,123.1 3.89,49.42 17.34,102.16 29.79,150.1 6.37,24.49 13.46,58.54 -0.66,81.83 -10.11,16.73 -31.41,33.62 -46.37,45.96 -31.65,26.08 -61.32,50.88 -89.02,81.46 -10.65,11.78 -19.08,23.84 -25.55,36.09 17.74,-80.4 35.25,-191.7 -26.11,-247.61 -40.45,-36.88 -95.08,-34.7 -144.29,-20.02 -38.81,11.58 -76.37,28.48 -96.11,66.21 -22.59,43.17 -9.43,99.58 -5.82,146.29 6.44,83.36 -2.55,163.45 -20.46,245.01 -18.37,83.73 -60.4,153.22 -127.67,202.47 20.91,-45.21 35.22,-93.6 44.03,-139.83 16.37,-85.96 4.92,-179.83 -31.97,-259.2 -33.5,-71.99 -92.74,-139.68 -174.26,-154.74 -13.54,-2.51 -27.32,-3.42 -41.07,-2.74 -40.28,2.02 -79.81,13.7 -103.62,48.75 -30.09,44.28 -16.81,100.52 -4.7,148.43 14.28,56.46 29.05,109.65 36.48,167.8 1.51,11.91 1.9,23.09 1.02,33.63 -21.86,-71.27 -79.51,-125.6 -142.05,-163.78 -45.08,-27.52 -83.01,-65.86 -94.41,-118.94 -6.35,-29.52 -3.95,-65.64 8.49,-93.44 6.38,-14.24 12.18,-28.81 17.02,-43.65 25.87,-79.14 19.76,-167.09 -67.07,-203.91 -33.22,-14.11 -66.99,-28.41 -103.96,-20.53 -56.8,12.09 -85.75,69.15 -105.98,120.06" /><path
         id="path40"
         style="fill:#370c14;fill-opacity:1;fill-rule:evenodd;stroke:none"
         d="m 1787.64,3434.79 c -27.36,-72.51 -68.08,-142.65 -107.69,-208.18 -61.1,-101.01 -38.25,-192.98 -5.22,-294.47 274.49,-11.94 549.15,-20.38 823.86,-25.17 187.9,-3.28 375.92,-5.27 563.81,0.25 66.51,1.95 133.12,4.56 199.3,11.3 15.99,1.62 53.42,5.02 71.93,10.25 7.62,12.14 14.77,42.54 16.8,53.73 10.31,56.75 9.03,119.5 4.41,176.85 -3.77,46.54 -10.22,93.37 -19.95,139.26 -3.46,-3.76 -7.14,-7.39 -10.97,-10.87 -35.6,-32.08 -80.47,-44.91 -127.86,-41.27 -42.74,3.29 -82.43,18.43 -112.79,49.43 -42.57,43.47 -51.75,101.48 -47.16,159.86 4.21,53.39 17.75,106.53 31.18,158.25 2.03,7.8 9.23,37.78 4.63,45.51 -6.27,10.37 -26.55,26.17 -35.98,33.97 -7.01,5.76 -13.96,11.51 -20.84,17.33 -1.69,-55.2 -16.47,-108.02 -58.01,-145.86 -53.34,-48.62 -123.77,-50.02 -189.62,-30.36 -51.94,15.5 -98.3,39.58 -124.44,89.57 -29.47,56.31 -15.63,112.85 -11.07,171.82 4.25,54.76 1.25,108.5 -6.67,162.02 -6.26,-47.57 -19.53,-94.17 -39.49,-137.12 -40.16,-86.37 -111.35,-163.33 -208.49,-181.27 -17.14,-3.17 -34.62,-4.34 -52.02,-3.46 -55.65,2.77 -107.81,21.53 -140.33,69.37 -39.33,57.92 -27.38,123.43 -11.4,186.56 0.88,3.49 1.77,6.96 2.65,10.45 -11.92,-8.79 -24.25,-17.03 -36.81,-24.69 -33.41,-20.4 -64.31,-48.8 -72.86,-88.56 -4.22,-19.68 -2.87,-45.67 5.43,-64.19 7.06,-15.78 13.45,-31.87 18.83,-48.3 33.77,-103.43 16.87,-215.23 -93.53,-262.08 -43.64,-18.51 -83.96,-33.52 -132.25,-23.24 -31.75,6.76 -56.92,22.46 -77.38,43.31" /><path
         id="path42"
         style="fill:#370c14;fill-opacity:1;fill-rule:evenodd;stroke:none"
         d="m 2648.46,3381.88 h -296.92 l 3.27,55.4 c 4.47,76.46 69.04,134.77 145.19,134.77 76.13,0 140.7,-58.31 145.2,-134.77 l 3.26,-55.4" /><path
         id="path44"
         style="fill:#a3a7a6;fill-opacity:1;fill-rule:evenodd;stroke:none"
         d="m 2592.96,3434.22 c -2.79,47.67 -43.35,85.5 -92.96,85.5 -49.61,0 -90.17,-37.83 -92.96,-85.5 h 185.92" /><path
         id="path46"
         style="fill:#370c14;fill-opacity:1;fill-rule:evenodd;stroke:none"
         d="m 834.906,3300.08 c 356.384,-283.71 356.384,-283.71 356.384,-283.71 l 262.67,29.82 -29.82,262.66 c 0,0 0,0 -356.39,283.7 L 948.871,3448.27 834.906,3300.08" /><path
         id="path48"
         style="fill:#370c14;fill-opacity:1;fill-rule:evenodd;stroke:none"
         d="m 1058.57,3391.13 2600.37,-2067.71 -29.42,-36.95 -2600.36,2067.7 29.41,36.96" /><path
         id="path50"
         style="fill:#370c14;fill-opacity:1;fill-rule:evenodd;stroke:none"
         d="m 3467.56,1433.55 16.22,20.39 c 16.18,20.32 46.23,23.93 66.38,7.54 l 409.39,-333.54 c 20.13,-16.41 23.69,-46.06 7.54,-66.36 l -16.25,-20.4 c -16.18,-20.33 -46.23,-23.95 -66.35,-7.55 l -409.4,333.55 c -20.14,16.4 -23.71,46.04 -7.53,66.37" /><path
         id="path52"
         style="fill:#ffffff;fill-opacity:1;fill-rule:evenodd;stroke:none"
         d="m 951.266,3342.88 c 9.265,11.65 26.218,13.57 37.867,4.3 11.647,-9.26 13.577,-26.23 4.305,-37.87 -9.282,-11.66 -26.227,-13.58 -37.887,-4.31 -11.633,9.27 -13.555,26.23 -4.285,37.88" /><path
         id="path54"
         style="fill:#ffffff;fill-opacity:1;fill-rule:evenodd;stroke:none"
         d="m 1052.11,3469.58 c 9.27,11.64 26.23,13.56 37.88,4.3 11.66,-9.28 13.57,-26.23 4.3,-37.88 -9.27,-11.64 -26.23,-13.58 -37.87,-4.31 -11.63,9.28 -13.57,26.23 -4.31,37.89" /><path
         id="path56"
         style="fill:#ffffff;fill-opacity:1;fill-rule:evenodd;stroke:none"
         d="m 1037.06,3274.57 c 9.29,11.65 26.23,13.57 37.89,4.3 11.64,-9.27 13.57,-26.23 4.29,-37.87 -9.27,-11.65 -26.22,-13.58 -37.88,-4.31 -11.63,9.27 -13.57,26.23 -4.3,37.88" /><path
         id="path58"
         style="fill:#ffffff;fill-opacity:1;fill-rule:evenodd;stroke:none"
         d="m 1137.92,3401.26 c 9.27,11.66 26.24,13.58 37.88,4.3 11.65,-9.27 13.58,-26.22 4.31,-37.87 -9.27,-11.64 -26.24,-13.57 -37.88,-4.31 -11.65,9.28 -13.57,26.23 -4.31,37.88" /><path
         id="path60"
         style="fill:#ffffff;fill-opacity:1;fill-rule:evenodd;stroke:none"
         d="m 1122.87,3206.26 c 9.27,11.64 26.23,13.57 37.88,4.31 11.65,-9.28 13.57,-26.24 4.3,-37.89 -9.27,-11.64 -26.23,-13.56 -37.88,-4.3 -11.63,9.27 -13.57,26.23 -4.3,37.88" /><path
         id="path62"
         style="fill:#ffffff;fill-opacity:1;fill-rule:evenodd;stroke:none"
         d="m 1223.74,3332.95 c 9.27,11.65 26.23,13.58 37.88,4.31 11.64,-9.28 13.57,-26.23 4.3,-37.89 -9.28,-11.63 -26.23,-13.56 -37.89,-4.28 -11.64,9.27 -13.56,26.22 -4.29,37.86" /><path
         id="path64"
         style="fill:#ffffff;fill-opacity:1;fill-rule:evenodd;stroke:none"
         d="m 1208.68,3137.95 c 9.27,11.65 26.24,13.57 37.88,4.3 11.63,-9.27 13.57,-26.23 4.3,-37.88 -9.26,-11.64 -26.23,-13.56 -37.87,-4.3 -11.66,9.28 -13.58,26.23 -4.31,37.88" /><path
         id="path66"
         style="fill:#ffffff;fill-opacity:1;fill-rule:evenodd;stroke:none"
         d="m 1309.55,3264.65 c 9.27,11.65 26.22,13.57 37.88,4.3 11.63,-9.27 13.57,-26.24 4.28,-37.88 -9.26,-11.63 -26.21,-13.57 -37.87,-4.3 -11.64,9.27 -13.57,26.23 -4.29,37.88" /><path
         id="path68"
         style="fill:#370c14;fill-opacity:1;fill-rule:evenodd;stroke:none"
         d="m 4117.33,3402.56 c 15,12.47 37.29,10.42 49.77,-4.59 12.48,-15.01 10.43,-37.28 -4.57,-49.76 -229.21,-190.45 -367.45,-303.82 -367.86,-304.15 -7.48,-6.1 -16.67,-8.64 -25.57,-7.81 v -0.04 l -177.34,16.36 c -19.44,1.8 -33.73,19 -31.95,38.42 l 16.37,177.34 c 0.96,10.39 6.32,19.29 14.07,25.07 13.16,10.79 136.55,112.09 366.12,302.86 15,12.49 37.26,10.43 49.76,-4.58 12.46,-14.99 10.41,-37.28 -4.57,-49.75 -190.99,-158.72 -318.83,-263.87 -356.38,-294.73 l -11.78,-127.53 127.79,-11.79 c 35.47,29.14 155.1,127.6 356.14,294.68" /><path
         id="path70"
         style="fill:#370c14;fill-opacity:1;fill-rule:evenodd;stroke:none"
         d="m 3600.02,3119.23 -2252.49,-1795.81 29.41,-36.95 2252.5,1795.81 -29.42,36.95" /><path
         id="path72"
         style="fill:#370c14;fill-opacity:1;fill-rule:evenodd;stroke:none"
         d="m 1546.89,1431.54 -16.23,20.39 c -16.17,20.33 -46.02,23.7 -66.36,7.55 l -417.39,-331.54 c -20.33,-16.15 -23.7,-46.06 -7.53,-66.36 l 16.24,-20.4 c 16.18,-20.33 46.03,-23.7 66.36,-7.55 l 417.39,331.56 c 20.33,16.14 23.71,46.03 7.52,66.35" /><path
         id="path74"
         style="fill:#370c14;fill-opacity:1;fill-rule:evenodd;stroke:none"
         d="m 1530.77,2843.76 c 1.88,22.38 5.3,44.61 10.23,66.52 40.55,180.41 176.33,320.22 331.4,411.81 186.86,110.39 411.86,160 627.6,160 215.73,0 440.72,-49.61 627.61,-160 155.05,-91.59 290.84,-231.4 331.38,-411.81 4.94,-21.91 8.36,-44.14 10.24,-66.52 H 1530.77" /><path
         id="path76"
         style="fill:#babcba;fill-opacity:1;fill-rule:evenodd;stroke:none"
         d="m 3417.08,2839.39 c -27.61,329.22 -427.6,590.39 -917.08,590.39 -489.47,0 -889.48,-261.17 -917.08,-590.39 h 1834.16" /><path
         id="path78"
         style="fill:#a3a7a6;fill-opacity:1;fill-rule:evenodd;stroke:none"
         d="m 2865.73,3343.33 c 142.89,-73.23 254.19,-188.03 311.88,-325.26 55.04,-12.25 141.49,-33.96 206.32,-71.12 1.95,-1.14 3.9,-2.28 5.83,-3.43 2.41,-1.45 4.79,-2.92 7.12,-4.4 -1.46,4.54 -3.01,9.07 -4.62,13.59 -0.09,0.22 -0.19,0.45 -0.27,0.66 -57.08,158.19 -202.19,292.73 -397.85,378.09 -75.47,32.92 -158.48,58.53 -246.84,75.35 -33.02,6.28 -66.79,11.33 -101.2,15.08 -47.56,5.18 -96.38,7.89 -146.1,7.89 50.18,0 99.12,-4.46 146.41,-12.94 2.66,-0.46 5.34,-0.96 8,-1.47 75.53,-14.32 146.66,-38.92 211.32,-72.04" /><path
         id="path80"
         style="fill:#e7e8e5;fill-opacity:1;fill-rule:evenodd;stroke:none"
         d="m 3417.08,2839.39 c -4.26,50.94 -7.49,43.61 -28.54,90.59 -386.42,207.55 -823.7,210.68 -1250.88,171.79 -99.63,-9.07 -200.4,-22.27 -298.26,-43.33 -51.42,-11.08 -146.51,-32.5 -217.94,-71.82 -21.06,-46.98 -34.28,-96.29 -38.54,-147.23 h 1834.16" /><path
         id="path82"
         style="fill:#370c14;fill-opacity:1;fill-rule:evenodd;stroke:none"
         d="m 2500,2580.71 c -120.82,0 -242.02,4.81 -362.34,15.76 -99.63,9.08 -200.4,22.28 -298.26,43.34 -89.33,19.22 -310.39,69.66 -310.39,190.98 0,121.33 221.06,171.77 310.39,190.99 97.86,21.06 198.63,34.26 298.26,43.34 120.32,10.94 241.52,15.74 362.34,15.74 120.8,0 242,-4.8 362.31,-15.74 99.68,-9.08 200.41,-22.28 298.29,-43.34 89.3,-19.22 310.39,-69.66 310.39,-190.99 0,-121.32 -221.09,-171.76 -310.39,-190.98 -97.88,-21.06 -198.61,-34.26 -298.29,-43.34 C 2742,2585.52 2620.8,2580.71 2500,2580.71" /><path
         id="path84"
         style="fill:#5f6263;fill-opacity:1;fill-rule:evenodd;stroke:none"
         d="m 2500,2633.05 c 507.36,0 918.65,88.53 918.65,197.74 0,109.21 -411.29,197.76 -918.65,197.76 -507.36,0 -918.66,-88.55 -918.66,-197.76 0,-109.21 411.3,-197.74 918.66,-197.74" /><path
         id="path86"
         style="fill:#370c14;fill-opacity:1;fill-rule:evenodd;stroke:none"
         d="m 2500,3036.14 c -1102.53,0 -1062.4,-312 0,-312 1062.39,0 1102.54,312 0,312" /><path
         id="path88"
         style="fill:#e7e8e5;fill-opacity:1;fill-rule:evenodd;stroke:none"
         d="m 1822.4,3018.07 c 57.67,137.23 168.97,252.03 311.88,325.26 64.64,33.12 135.77,57.72 211.32,72.04 2.65,0.51 5.32,1.01 7.99,1.47 47.28,8.48 96.24,12.94 146.41,12.94 -49.74,0 -98.53,-2.71 -146.1,-7.89 -34.41,-3.75 -68.18,-8.8 -101.2,-15.08 -88.39,-16.82 -171.38,-42.43 -246.85,-75.35 -189.03,-82.45 -330.85,-210.83 -391.74,-362.07 -2.05,-5.08 -4,-10.19 -5.86,-15.33 -1.81,-4.96 -3.52,-9.94 -5.14,-14.94 4.41,2.8 8.95,5.54 13.61,8.19 1.06,0.62 2.16,1.24 3.24,1.83 64.37,35.83 148.49,56.94 202.44,68.93" /><path
         id="path90"
         style="fill:#eb1c24;fill-opacity:1;fill-rule:evenodd;stroke:none"
         d="m 3927.82,2237.85 h 364.33 l 53.31,53.31 h -417.64 v -53.31" /><path
         id="path92"
         style="fill:#eb1c24;fill-opacity:1;fill-rule:evenodd;stroke:none"
         d="m 1072.16,2237.85 v 53.31 H 654.531 l 53.321,-53.31 h 364.308" /><path
         id="path94"
         style="fill:#ffffff;fill-opacity:1;fill-rule:evenodd;stroke:none"
         d="m 2246.24,4093.55 c 10.4,-88.92 -48.14,-134.97 -113.62,-178.87 -113.12,-75.86 -118.01,-142.64 -73.83,-263.21 15.11,-41.29 9.69,-54.42 -4.15,-94.4 -0.23,36.85 3.23,53.65 -12.89,86.79 -32.98,67.75 -58.24,138.74 -17.21,211.65 63.77,113.36 169.2,59.33 221.7,238.04" /><path
         id="path96"
         style="fill:#ffffff;fill-opacity:1;fill-rule:evenodd;stroke:none"
         d="m 2659.43,3692.02 c -12.44,127.2 22.07,225.89 -27.83,362.56 -19.89,54.51 -49.39,105.26 -72.14,160.59 50.69,-59.3 95.59,-127.69 117.99,-203.24 24.67,-83.24 8.65,-236.57 -18.02,-319.91" /><path
         id="path98"
         style="fill:#ffffff;fill-opacity:1;fill-rule:evenodd;stroke:none"
         d="m 2969.32,3818.64 c 142.49,-74.7 198.81,-118.82 141.57,-273.75 -13.18,-35.63 -23.84,-72.45 -41.62,-106.1 l -0.77,18.99 c 8.07,132.19 90.5,186.73 -34.13,298.31 -54.13,48.45 -11.74,5.85 -65.05,62.55" /><path
         id="path100"
         style="fill:#ffffff;fill-opacity:1;fill-rule:evenodd;stroke:none"
         d="m 3342,3418.8 c 52.53,-85.11 85.16,-174.5 63.33,-274.91 l -9.32,31.41 c -20.11,78.82 -44.81,163.64 -54.01,243.5" /><path
         id="path102"
         style="fill:#ffffff;fill-opacity:1;fill-rule:evenodd;stroke:none"
         d="m 1604.81,3152.22 c 3.43,66.33 14.13,80.11 42.04,136.9 43.92,89.4 84.59,147.04 111.67,245.18 l 7.89,27.76 c 4.78,-31.6 6.39,-27.11 1.94,-59.14 -18.17,-130.9 -110.41,-231.08 -163.54,-350.7" /><path
         id="path104"
         style="fill:#370c14;fill-opacity:1;fill-rule:evenodd;stroke:none"
         d="m 1233.6,1677.12 c -302.311,1.2 -151.16,-1.77 -453.479,8.96 v 0 c 301.729,21.86 150.77,13.31 452.859,25.64 9.54,0.16 17.43,-7.44 17.6,-16.98 0.18,-9.55 -7.42,-17.45 -16.98,-17.62" /><path
         id="path106"
         style="fill:#370c14;fill-opacity:1;fill-rule:evenodd;stroke:none"
         d="m 3766.39,1677.12 c 302.31,1.2 151.16,-1.77 453.47,8.96 v 0 c -301.72,21.86 -150.77,13.31 -452.85,25.64 -9.54,0.16 -17.42,-7.44 -17.6,-16.98 -0.18,-9.55 7.44,-17.45 16.98,-17.62" /><path
         id="path108"
         style="fill:#370c14;fill-opacity:1;fill-rule:evenodd;stroke:none"
         d="m 3238.72,2973.58 c 132.5,-15.99 160.31,-158.6 16.18,-196.34 l -38.2,-5.61 58.26,35.59 c 84.6,57.75 31.61,119.41 -36.24,122.33 -12.14,0 -22.02,9.85 -22.02,22.01 0,12.17 9.88,22.02 22.02,22.02" /><path
         id="path110"
         style="fill:#370c14;fill-opacity:1;fill-rule:evenodd;stroke:none"
         d="m 1758.53,2973.58 c -132.49,-15.99 -160.29,-158.6 -16.14,-196.34 l 38.17,-5.61 -58.27,35.59 c -84.6,57.75 -31.6,119.41 36.24,122.33 12.16,0 22.03,9.85 22.03,22.01 0,12.17 -9.87,22.02 -22.03,22.02" /><path
         id="path112"
         style="fill:#370c14;fill-opacity:1;fill-rule:evenodd;stroke:none"
         d="m 3509.22,1763.13 c -5.76,-87.39 -26.09,-172.86 -59.87,-253.64 -73.31,-175.4 -205.38,-319.24 -366.08,-418.9 C 2908.62,982.25 2705.05,928.32 2500,928.32 c -205.07,0 -408.62,53.93 -583.28,162.27 -160.7,99.66 -292.77,243.5 -366.08,418.9 -33.77,80.78 -54.11,166.25 -59.86,253.64 h 2018.44" /><path
         id="path114"
         style="fill:#a3a7a6;fill-opacity:1;fill-rule:evenodd;stroke:none"
         d="m 3457,1766.57 c -28.81,-438.25 -446.22,-785.941 -957,-785.941 -510.78,0 -928.2,347.691 -957,785.941 h 1914" /><path
         id="path116"
         style="fill:#76797a;fill-opacity:1;fill-rule:evenodd;stroke:none"
         d="M 1773.36,1766.57 H 3226.64 C 3204.78,1328.32 2887.83,980.629 2500,980.629 c -289.97,0 -540.31,194.371 -657.33,475.631 -16.55,39.78 322.77,-125.29 1208.17,64.29 60.08,12.86 -1274.28,181.78 -1277.48,246.02" /><path
         id="path118"
         style="fill:#370c14;fill-opacity:1;fill-rule:evenodd;stroke:none"
         d="m 2500,2093.58 c 126.46,0 253.54,-6.43 379.19,-21.03 104.68,-12.15 210.83,-30 312.53,-57.93 105.35,-28.93 319.25,-98.89 319.25,-236.6 0,-137.72 -213.9,-207.68 -319.25,-236.61 -101.7,-27.93 -207.85,-45.77 -312.53,-57.93 -125.65,-14.6 -252.73,-21.04 -379.19,-21.04 -126.47,0 -253.55,6.44 -379.18,21.04 -104.68,12.16 -210.85,30 -312.55,57.93 -105.34,28.93 -319.25,98.89 -319.25,236.61 0,137.71 213.91,207.67 319.25,236.6 101.7,27.93 207.87,45.78 312.55,57.93 125.63,14.6 252.71,21.03 379.18,21.03" /><path
         id="path120"
         style="fill:#ef2f30;fill-opacity:1;fill-rule:evenodd;stroke:none"
         d="m 2500,2041.28 c 529.45,0 958.64,-117.87 958.64,-263.26 0,-145.39 -429.19,-263.26 -958.64,-263.26 -529.45,0 -958.65,117.87 -958.65,263.26 0,145.39 429.2,263.26 958.65,263.26" /><path
         id="path122"
         style="fill:#370c14;fill-opacity:1;fill-rule:evenodd;stroke:none"
         d="m 2500,2012.93 c -123.36,0 -247.32,-6.27 -369.89,-20.51 -100.57,-11.68 -202.76,-28.76 -300.48,-55.59 -65.04,-17.86 -140.62,-43.17 -197.52,-80.11 -24.88,-16.14 -62.41,-45.49 -62.41,-78.7 0,-33.22 37.53,-62.56 62.41,-78.7 56.9,-36.96 132.48,-62.27 197.52,-80.12 97.72,-26.84 199.91,-43.92 300.48,-55.6 122.57,-14.23 246.53,-20.5 369.89,-20.5 123.36,0 247.31,6.27 369.86,20.5 100.59,11.68 202.78,28.76 300.5,55.6 65.05,17.85 140.62,43.16 197.51,80.12 24.87,16.14 62.43,45.48 62.43,78.7 0,33.21 -37.56,62.56 -62.43,78.7 -56.89,36.94 -132.46,62.25 -197.51,80.11 -97.72,26.83 -199.91,43.91 -300.5,55.59 -122.55,14.24 -246.5,20.51 -369.86,20.51" /><path
         id="path124"
         style="fill:#370c14;fill-opacity:1;fill-rule:evenodd;stroke:none"
         d="m 3103.17,1928.76 c -15.99,3.64 -43.29,4.9 -50.1,-14.41 -1.28,-3.62 -1.51,-7.45 -0.76,-11.19 8.51,-42.44 17.16,-84.86 25.5,-127.32 8.37,-42.46 16.71,-84.91 25.2,-127.35 2.42,-12.05 13.43,-18.29 24.57,-20.62 10.63,-2.23 22.56,-1.46 33.11,0.77 10.24,2.16 21.16,5.98 29.87,11.82 9.25,6.19 17.14,15.9 14.52,27.77 -8.37,37.75 -16.61,75.52 -25.04,113.26 -8.45,37.84 -17.03,75.64 -25.68,113.44 -4.31,18.8 -34.64,30.07 -51.19,33.83 z m -124.95,24.48 c 18.19,-3.28 47.23,-15.13 50.99,-35.82 8.24,-45.36 16.83,-90.66 25.03,-136.02 8.18,-45.31 16.27,-90.61 24.36,-135.93 2.16,-12 -5.23,-22.11 -14.55,-28.71 -9.09,-6.42 -20.59,-10.33 -31.47,-12.21 -11.19,-1.93 -23.58,-1.8 -34.44,1.67 -11.04,3.55 -21.22,11.1 -23.12,23.24 -7.7,49 -15.45,97.94 -23.07,146.95 -7.61,48.98 -15.35,97.96 -23.04,146.94 -0.61,3.9 -0.3,7.84 1.01,11.58 6.6,18.88 31.25,21.02 48.02,18.37 l 0.28,-0.06 z m -121.83,17.99 c -17.5,2.12 -41.25,-2.2 -47.72,-21.29 -1.23,-3.64 -1.64,-7.51 -1.2,-11.34 6.21,-53.98 12.59,-107.96 18.8,-161.95 6.24,-53.93 11.97,-107.92 18.16,-161.85 1.44,-12.44 11.13,-20.86 22.17,-25.28 10.84,-4.34 23.5,-5.29 35.02,-3.94 11.46,1.33 23.45,5.12 32.93,11.83 9.56,6.76 16.95,17.13 15.29,29.38 -7.05,51.29 -14.15,102.58 -21.28,153.85 -7.11,51.35 -14.29,102.69 -21.58,154 -3.12,22 -31.17,34.23 -50.59,36.59 z m -119.87,12.68 c 20.36,-1.79 47.77,-14.58 50,-37.6 5.4,-55.66 11.05,-111.28 16.36,-166.93 5.33,-55.6 10.5,-111.2 16.03,-166.77 0.15,-1.6 0.15,-3.2 0.04,-4.79 -1.91,-23.28 -30.09,-34 -49.99,-35.58 -20.32,-1.62 -50.42,4.99 -55.89,28.11 -0.36,1.43 -0.57,2.89 -0.66,4.34 -4.06,57.41 -8.11,114.83 -12.12,172.25 -4,57.44 -8.26,114.88 -12.58,172.29 -0.27,3.65 0.15,7.31 1.28,10.8 6.29,19.38 29.39,25.48 47.53,23.88 z m -118.43,7.63 c 21.07,-1.07 48.11,-14.13 49.43,-37.99 3.23,-58.32 6.36,-116.62 9.49,-174.93 3.11,-58.3 6.07,-116.6 9.3,-174.88 0.11,-1.65 0.06,-3.28 -0.15,-4.9 -2.85,-23.46 -30.88,-33.74 -51.28,-34.71 -20.88,-1 -50.46,7.58 -54.69,31.41 -0.25,1.32 -0.4,2.66 -0.45,4.02 -1.9,59.25 -3.52,118.51 -5.24,177.77 -1.71,59.25 -3.66,118.49 -5.55,177.73 -0.08,2.52 0.16,5.01 0.72,7.47 4.82,21.09 28.9,30.01 48.42,29.01 z m -69.13,-35.01 c 0.95,-59.51 1.65,-119.02 2.3,-178.54 0.65,-59.46 1.32,-118.95 2.12,-178.42 0.68,-50.67 -107.4,-49.93 -106.94,0.25 0.54,59.45 1.48,118.88 2.13,178.34 0.66,59.47 1.29,118.92 1.96,178.38 0.57,49.92 97.64,50.12 98.43,-0.01 z m -167.5,35.13 c 19.3,0.94 43.06,-7.6 48.23,-28.34 0.66,-2.61 0.94,-5.3 0.87,-7.97 -1.76,-59.25 -3.51,-118.47 -5.23,-177.71 -1.73,-59.19 -3.36,-118.4 -5.24,-177.6 -0.06,-1.69 -0.27,-3.38 -0.63,-5.05 -5,-23.11 -33.73,-30.88 -54.2,-29.85 -20.45,1.01 -48.99,11.45 -51.62,35.07 -0.18,1.52 -0.22,3.05 -0.12,4.58 3.22,58.14 6.19,116.31 9.3,174.47 3.12,58.18 6.19,116.35 9.16,174.55 1.23,23.95 28.41,36.83 49.48,37.85 z m -118.57,-7.37 c 18.17,1.49 41.32,-4.71 47.5,-24.18 1.08,-3.4 1.5,-6.94 1.23,-10.5 -4.04,-57.23 -8.17,-114.47 -12.07,-171.72 -3.94,-57.22 -8.2,-114.42 -12.11,-171.64 -0.11,-1.48 -0.34,-2.99 -0.69,-4.44 -5.5,-22.99 -35.15,-29.53 -55.37,-27.92 -20.09,1.6 -49.02,12.78 -50.38,36.45 -0.07,1.32 -0.04,2.67 0.07,3.98 5.27,55.42 10.64,110.82 15.87,166.26 5.24,55.46 10.61,110.91 15.87,166.39 2.19,23.09 29.74,35.64 50.08,37.32 z m -119.86,-12.3 c -19.42,-2.24 -47.88,-14.55 -50.85,-36.61 -6.88,-51.12 -14.05,-102.2 -20.93,-153.31 -6.87,-51.09 -14.05,-102.13 -20.94,-153.22 -1.65,-12.3 5.94,-22.59 15.55,-29.29 9.45,-6.59 21.36,-10.45 32.7,-12.01 l 0.21,-0.04 0.19,-0.01 c 11.47,-1.26 24,-0.3 34.76,4.05 10.95,4.42 20.47,12.85 21.84,25.2 5.94,53.76 12.02,107.48 18.16,161.21 6.14,53.79 12.2,107.58 18.16,161.4 0.4,3.73 0.01,7.5 -1.16,11.06 -6.37,19.11 -30.16,23.61 -47.69,21.57 z m -121.67,-17.34 c 16.79,2.52 41.56,0.24 48.09,-18.67 1.26,-3.69 1.58,-7.59 0.98,-11.43 -7.54,-48.85 -15.1,-97.7 -22.56,-146.56 -7.44,-48.87 -15.17,-97.68 -22.74,-146.52 -1.86,-12.1 -11.91,-19.68 -22.94,-23.2 -10.82,-3.47 -23.17,-3.56 -34.3,-1.62 -10.85,1.87 -22.31,5.76 -31.41,12.08 -9.43,6.51 -17.08,16.59 -14.95,28.68 7.96,45.24 16.2,90.44 24.22,135.67 8.01,45.26 16.38,90.46 24.36,135.76 3.64,20.73 32.67,32.44 50.81,35.74 l 0.21,0.03 0.23,0.04 z m -125.18,-23.79 c -16.7,-3.59 -47.02,-14.51 -51.23,-33.58 -8.35,-37.97 -16.76,-75.94 -25.01,-113.92 -8.27,-37.98 -16.8,-75.88 -25.03,-113.87 -2.6,-11.96 5.55,-21.63 14.91,-27.73 8.84,-5.77 19.81,-9.52 30.11,-11.6 10.58,-2.16 22.48,-2.8 33.08,-0.43 11.03,2.44 21.82,8.8 24.15,20.74 8.24,42.44 16.74,84.84 25.01,127.28 8.28,42.5 16.62,84.97 24.88,127.48 0.71,3.73 0.46,7.55 -0.81,11.13 -6.89,19.16 -34.1,17.93 -50.06,14.5 z m -127.69,-29.42 c 14.96,3.72 44.48,8.41 51.44,-10.73 1.25,-3.44 1.42,-7.17 0.56,-10.74 -8.23,-34.45 -16.34,-68.95 -24.53,-103.43 -8.17,-34.45 -16.44,-68.88 -24.53,-103.36 -5.3,-22.58 -39.6,-19.59 -56.37,-15.7 -9.68,2.28 -20.08,5.76 -28.68,10.79 -9.39,5.52 -18.41,14.57 -15.31,26.53 7.57,29.31 15.38,58.55 23.09,87.83 7.68,29.21 15.32,58.41 22.86,87.65 4.47,17.26 36.33,27.38 51.47,31.16 z m 1462.67,-3.52 c 14.97,-3.91 47.21,-14.27 51.76,-31.26 7.7,-28.67 15.37,-57.33 23.07,-85.98 7.69,-28.65 15.35,-57.31 22.9,-85.99 3.14,-11.93 -5.76,-21 -15.09,-26.56 -8.55,-5.09 -18.9,-8.69 -28.55,-11.04 -16.72,-4.09 -51.38,-7.56 -56.84,15.08 -8.22,34.12 -16.35,68.27 -24.53,102.4 -8.21,34.16 -16.49,68.29 -24.86,102.42 -0.87,3.62 -0.7,7.41 0.6,10.91 7.08,19.09 36.69,13.89 51.54,10.02 v 0" /><path
         id="path126"
         style="fill:#370c14;fill-opacity:1;fill-rule:evenodd;stroke:none"
         d="m 3103.17,1928.76 c -15.99,3.64 -43.29,4.9 -50.1,-14.41 -1.28,-3.62 -1.51,-7.45 -0.76,-11.19 8.51,-42.44 17.16,-84.86 25.5,-127.32 8.37,-42.46 16.71,-84.91 25.2,-127.35 2.42,-12.05 13.43,-18.29 24.57,-20.62 10.63,-2.23 22.56,-1.46 33.11,0.77 10.24,2.16 21.16,5.98 29.87,11.82 9.25,6.19 17.14,15.9 14.52,27.77 -8.37,37.75 -16.61,75.52 -25.04,113.26 -8.45,37.84 -17.03,75.64 -25.68,113.44 -4.31,18.8 -34.64,30.07 -51.19,33.83 z m -124.95,24.48 c 18.19,-3.28 47.23,-15.13 50.99,-35.82 8.24,-45.36 16.83,-90.66 25.03,-136.02 8.18,-45.31 16.27,-90.61 24.36,-135.93 2.16,-12 -5.23,-22.11 -14.55,-28.71 -9.09,-6.42 -20.59,-10.33 -31.47,-12.21 -11.19,-1.93 -23.58,-1.8 -34.44,1.67 -11.04,3.55 -21.22,11.1 -23.12,23.24 -7.7,49 -15.45,97.94 -23.07,146.95 -7.61,48.98 -15.35,97.96 -23.04,146.94 -0.61,3.9 -0.3,7.84 1.01,11.58 6.6,18.88 31.25,21.02 48.02,18.37 l 0.28,-0.06 z m -121.83,17.99 c -17.5,2.12 -41.25,-2.2 -47.72,-21.29 -1.23,-3.64 -1.64,-7.51 -1.2,-11.34 6.21,-53.98 12.59,-107.96 18.8,-161.95 6.24,-53.93 11.97,-107.92 18.16,-161.85 1.44,-12.44 11.13,-20.86 22.17,-25.28 10.84,-4.34 23.5,-5.29 35.02,-3.94 11.46,1.33 23.45,5.12 32.93,11.83 9.56,6.76 16.95,17.13 15.29,29.38 -7.05,51.29 -14.15,102.58 -21.28,153.85 -7.11,51.35 -14.29,102.69 -21.58,154 -3.12,22 -31.17,34.23 -50.59,36.59 z m -119.87,12.68 c 20.36,-1.79 47.77,-14.58 50,-37.6 5.4,-55.66 11.05,-111.28 16.36,-166.93 5.33,-55.6 10.5,-111.2 16.03,-166.77 0.15,-1.6 0.15,-3.2 0.04,-4.79 -1.91,-23.28 -30.09,-34 -49.99,-35.58 -20.32,-1.62 -50.42,4.99 -55.89,28.11 -0.36,1.43 -0.57,2.89 -0.66,4.34 -4.06,57.41 -8.11,114.83 -12.12,172.25 -4,57.44 -8.26,114.88 -12.58,172.29 -0.27,3.65 0.15,7.31 1.28,10.8 6.29,19.38 29.39,25.48 47.53,23.88 z m -118.43,7.63 c 21.07,-1.07 48.11,-14.13 49.43,-37.99 3.23,-58.32 6.36,-116.62 9.49,-174.93 3.11,-58.3 6.07,-116.6 9.3,-174.88 0.11,-1.65 0.06,-3.28 -0.15,-4.9 -2.85,-23.46 -30.88,-33.74 -51.28,-34.71 -20.88,-1 -50.46,7.58 -54.69,31.41 -0.25,1.32 -0.4,2.66 -0.45,4.02 -1.9,59.25 -3.52,118.51 -5.24,177.77 -1.71,59.25 -3.66,118.49 -5.55,177.73 -0.08,2.52 0.16,5.01 0.72,7.47 4.82,21.09 28.9,30.01 48.42,29.01 z m -69.13,-35.01 c 0.95,-59.51 1.65,-119.02 2.3,-178.54 0.65,-59.46 1.32,-118.95 2.12,-178.42 0.68,-50.67 -107.4,-49.93 -106.94,0.25 0.54,59.45 1.48,118.88 2.13,178.34 0.66,59.47 1.29,118.92 1.96,178.38 0.57,49.92 97.64,50.12 98.43,-0.01 z m -167.5,35.13 c 19.3,0.94 43.06,-7.6 48.23,-28.34 0.66,-2.61 0.94,-5.3 0.87,-7.97 -1.76,-59.25 -3.51,-118.47 -5.23,-177.71 -1.73,-59.19 -3.36,-118.4 -5.24,-177.6 -0.06,-1.69 -0.27,-3.38 -0.63,-5.05 -5,-23.11 -33.73,-30.88 -54.2,-29.85 -20.45,1.01 -48.99,11.45 -51.62,35.07 -0.18,1.52 -0.22,3.05 -0.12,4.58 3.22,58.14 6.19,116.31 9.3,174.47 3.12,58.18 6.19,116.35 9.16,174.55 1.23,23.95 28.41,36.83 49.48,37.85 z m -118.57,-7.37 c -20.34,-1.68 -47.89,-14.23 -50.08,-37.32 -5.26,-55.48 -10.63,-110.93 -15.87,-166.39 -5.23,-55.44 -10.6,-110.84 -15.87,-166.26 -0.11,-1.31 -0.14,-2.66 -0.07,-3.98 1.36,-23.67 30.29,-34.85 50.38,-36.45 20.22,-1.61 49.87,4.93 55.37,27.92 0.35,1.45 0.58,2.96 0.69,4.44 3.91,57.22 8.17,114.42 12.11,171.64 3.9,57.25 8.03,114.49 12.07,171.72 0.27,3.56 -0.15,7.1 -1.23,10.5 -6.18,19.47 -29.33,25.67 -47.5,24.18 z m -119.86,-12.3 c 17.53,2.04 41.32,-2.46 47.69,-21.57 1.17,-3.56 1.56,-7.33 1.16,-11.06 -5.96,-53.82 -12.02,-107.61 -18.16,-161.4 -6.14,-53.73 -12.22,-107.45 -18.16,-161.21 -1.37,-12.35 -10.89,-20.78 -21.84,-25.2 -10.76,-4.35 -23.29,-5.31 -34.76,-4.05 l -0.19,0.01 -0.21,0.04 c -11.34,1.56 -23.25,5.42 -32.7,12.01 -9.61,6.7 -17.2,16.99 -15.55,29.29 6.89,51.09 14.07,102.13 20.94,153.22 6.88,51.11 14.05,102.19 20.93,153.31 2.97,22.06 31.43,34.37 50.85,36.61 z m -121.67,-17.34 -0.23,-0.04 -0.21,-0.03 c -18.14,-3.3 -47.17,-15.01 -50.81,-35.74 -7.98,-45.3 -16.35,-90.5 -24.36,-135.76 -8.02,-45.23 -16.26,-90.43 -24.22,-135.67 -2.13,-12.09 5.52,-22.17 14.95,-28.68 9.1,-6.32 20.56,-10.21 31.41,-12.08 11.13,-1.94 23.48,-1.85 34.3,1.62 11.03,3.52 21.08,11.1 22.94,23.2 7.57,48.84 15.3,97.65 22.74,146.52 7.46,48.86 15.02,97.71 22.56,146.56 0.6,3.84 0.28,7.74 -0.98,11.43 -6.53,18.91 -31.3,21.19 -48.09,18.67 z m -125.18,-23.79 c 15.96,3.43 43.17,4.66 50.06,-14.5 1.27,-3.58 1.52,-7.4 0.81,-11.13 -8.26,-42.51 -16.6,-84.98 -24.88,-127.48 -8.27,-42.44 -16.77,-84.84 -25.01,-127.28 -2.33,-11.94 -13.12,-18.3 -24.15,-20.74 -10.6,-2.37 -22.5,-1.73 -33.08,0.43 -10.3,2.08 -21.27,5.83 -30.11,11.6 -9.36,6.1 -17.51,15.77 -14.91,27.73 8.23,37.99 16.76,75.89 25.03,113.87 8.25,37.98 16.66,75.95 25.01,113.92 4.21,19.07 34.53,29.99 51.23,33.58 z m -212.69,-254.09 c 10.72,-5.17 21.74,-10.04 32.94,-14.64 0.65,-0.16 1.31,-0.32 1.96,-0.47 16.78,-3.9 47.74,-11.06 53.04,11.52 8.09,34.48 16.36,68.91 24.53,103.36 8.19,34.48 16.3,68.98 24.53,103.43 0.86,3.57 0.69,7.3 -0.56,10.74 -6.96,19.14 -36.48,14.45 -51.44,10.73 -15.14,-3.78 -47,-13.9 -51.47,-31.16 -7.54,-29.24 -15.18,-58.44 -22.86,-87.65 -7.71,-29.28 -15.52,-58.52 -23.09,-87.83 -2.39,-9.23 5.77,-12.56 12.42,-18.03 z m 1547.67,221.15 c 14.97,-3.91 47.21,-14.27 51.76,-31.26 7.7,-28.67 15.37,-57.33 23.07,-85.98 7.69,-28.65 15.35,-57.31 22.9,-85.99 2.37,-8.98 -10.44,-11.32 -16.75,-16.79 -11.82,-5.7 -24.02,-11.07 -36.41,-16.09 -17.14,-3.96 -41.99,-11.75 -47.32,10.36 -8.22,34.12 -16.35,68.27 -24.53,102.4 -8.21,34.16 -16.49,68.29 -24.86,102.42 -0.87,3.62 -0.7,7.41 0.6,10.91 7.08,19.09 36.69,13.89 51.54,10.02 v 0" /><path
         id="path128"
         style="fill:#f36329;fill-opacity:1;fill-rule:evenodd;stroke:none"
         d="m 3099.94,1914.58 c -20.28,4.6 -35.16,0.4 -33.36,-8.56 8.49,-42.45 17.16,-84.9 25.53,-127.38 8.3,-42.33 16.69,-84.93 25.18,-127.29 1.8,-9.04 20.11,-12.81 40.38,-8.5 v 0 c 20.12,4.26 34.98,14.18 33.19,22.24 -8.36,37.7 -16.6,75.56 -25,113.23 -8.44,37.82 -17.04,75.56 -25.69,113.36 -1.81,7.95 -20.12,18.32 -40.23,22.9 z m -124.28,24.35 v 0 c 19.95,-3.59 37.5,-14.56 39.24,-24.12 8.25,-45.37 16.83,-90.67 25.03,-136.01 8.16,-45.25 16.26,-90.65 24.36,-135.89 1.73,-9.58 -13.42,-20.39 -34.17,-24.03 v 0 c -20.76,-3.51 -39.09,2.5 -40.73,12.84 -7.69,48.97 -15.44,97.97 -23.06,146.92 -7.6,48.93 -15.36,97.97 -23.05,146.96 -1.62,10.34 12.76,16.43 32.38,13.33 z m -121.02,17.86 v 0 c 19.3,-2.36 36.4,-13.39 37.95,-24.2 7.29,-51.34 14.46,-102.65 21.58,-153.95 7.1,-51.24 14.23,-102.59 21.24,-153.82 1.49,-10.83 -14.37,-22.21 -35.48,-24.8 v 0 c -21.09,-2.34 -39.72,5 -41.05,16.43 -6.19,53.94 -11.94,107.97 -18.15,161.87 -6.21,53.97 -12.59,107.94 -18.8,161.94 -1.32,11.39 13.4,18.86 32.71,16.53 z m -119.4,12.63 v 0 c 18.98,-1.7 35.67,-12.78 36.8,-24.52 5.4,-55.65 11.05,-111.29 16.38,-166.91 5.29,-55.59 10.49,-111.23 16,-166.82 1.19,-11.8 -15.36,-22.75 -36.62,-24.44 v 0 c -21.44,-1.69 -40.04,6.82 -40.89,18.98 -4.04,57.38 -8.1,114.87 -12.11,172.25 -4.01,57.43 -8.26,114.91 -12.58,172.36 -0.92,12.16 13.89,20.76 33.02,19.1 z m -117.91,7.58 v 0 c 18.83,-0.96 34.98,-11.94 35.67,-24.26 3.23,-58.31 6.37,-116.68 9.48,-174.91 3.11,-58.31 6.07,-116.64 9.31,-174.91 0.7,-12.36 -16.03,-23.21 -37.61,-24.27 v 0 c -21.58,-1.01 -39.51,8.9 -39.89,21.37 -1.9,59.24 -3.53,118.5 -5.25,177.73 -1.71,59.2 -3.67,118.45 -5.55,177.79 -0.4,12.43 14.88,22.45 33.84,21.46 z m -82.92,-20.69 c 0.96,-59.54 1.65,-119.07 2.3,-178.48 0.65,-59.49 1.32,-119.02 2.14,-178.46 0.42,-30.94 -78.14,-30.24 -77.85,0.32 0.54,59.45 1.46,118.9 2.12,178.3 0.65,59.41 1.27,118.89 1.96,178.39 0.34,30.83 68.85,30.99 69.33,-0.07 z m -152.25,20.82 v 0 c 18.97,0.93 34.22,-8.88 33.85,-21.35 -1.75,-59.26 -3.51,-118.49 -5.22,-177.7 -1.72,-59.13 -3.35,-118.41 -5.25,-177.58 -0.37,-12.48 -17.98,-21.89 -39.57,-20.83 v 0 c -21.59,1.08 -38.62,11.99 -37.94,24.3 3.23,58.12 6.21,116.4 9.32,174.5 3.12,58.16 6.19,116.39 9.17,174.6 0.63,12.32 16.84,23.18 35.64,24.06 z m -118.07,-7.34 v 0 c 19.13,1.56 33.88,-7.07 33.02,-19.14 -4.03,-57.26 -8.16,-114.53 -12.09,-171.76 -3.92,-57.18 -8.17,-114.41 -12.09,-171.64 -0.83,-12.06 -18.98,-20.56 -40.41,-18.87 v 0 c -21.26,1.71 -38.08,12.86 -36.96,24.56 5.27,55.45 10.64,110.88 15.87,166.27 5.24,55.47 10.61,110.9 15.86,166.39 1.11,11.71 17.82,22.6 36.8,24.19 z m -119.4,-12.23 v 0 c 19.15,2.22 33.98,-5.27 32.71,-16.62 -5.94,-53.78 -12,-107.58 -18.14,-161.32 -6.13,-53.66 -12.22,-107.46 -18.15,-161.26 -1.26,-11.34 -19.47,-18.69 -40.56,-16.41 v 0 c -21.11,2.91 -37.26,14.2 -35.81,24.96 6.89,51.12 14.06,102.21 20.93,153.24 6.86,51.1 14.04,102.16 20.93,153.29 1.45,10.79 18.98,21.87 38.09,24.12 z m -121.16,-17.3 v 0 c 19.62,2.96 34.13,-3.14 32.53,-13.49 -7.56,-48.86 -15.12,-97.72 -22.56,-146.58 -7.44,-48.78 -15.17,-97.63 -22.73,-146.5 -1.6,-10.31 -19.62,-16.26 -40.4,-12.71 v 0 c -20.6,3.59 -36.19,14.34 -34.51,23.9 7.97,45.25 16.21,90.5 24.21,135.66 8.02,45.26 16.39,90.47 24.36,135.78 1.69,9.54 19.13,20.3 39.1,23.94 z m -124.31,-23.62 c -20.09,-4.33 -38.29,-14.46 -40.05,-22.49 -8.37,-37.95 -16.76,-75.92 -25.02,-113.9 -8.27,-37.91 -16.78,-75.86 -25.03,-113.83 -1.73,-7.99 13.58,-17.94 33.69,-22.03 v 0 c 20.44,-4.11 38.33,-0.08 40.07,8.85 8.24,42.47 16.77,84.94 25.02,127.3 8.28,42.47 16.61,84.94 24.86,127.47 1.74,8.96 -13.24,12.99 -33.54,8.63 v 0 z M 1772,1887.32 v 0 c 20.77,5.17 36.09,3.36 34.34,-3.95 -8.22,-34.48 -16.35,-68.99 -24.54,-103.47 -8.16,-34.42 -16.41,-68.85 -24.51,-103.39 -1.71,-7.25 -19.15,-9.45 -38.93,-4.85 v 0 c -19.79,4.6 -34.79,13.35 -33.2,19.5 7.56,29.27 15.36,58.54 23.07,87.77 7.67,29.19 15.32,58.48 22.88,87.72 1.6,6.18 19.95,15.46 40.89,20.67 z m 1455.51,-3.46 v 0 c 20.94,-5.51 39.74,-14.91 41.36,-20.97 7.71,-28.68 15.39,-57.34 23.06,-85.99 7.7,-28.64 15.36,-57.31 22.9,-85.93 1.62,-6.07 -13.25,-14.92 -33.02,-19.76 v 0 c -19.8,-4.79 -37.5,-2.87 -39.25,4.36 -8.22,34.12 -16.36,68.3 -24.53,102.39 -8.21,34.16 -16.48,68.34 -24.88,102.5 -1.76,7.24 13.43,8.81 34.36,3.4 v 0" /><path
         id="path130"
         style="fill:#f68857;fill-opacity:1;fill-rule:evenodd;stroke:none"
         d="m 3087.58,1897.41 c 7.71,-38.38 15.5,-76.72 23.05,-115.13 7.97,-40.62 15.97,-81.24 24.1,-121.85 5.62,-1.07 14.98,0.07 19.02,0.92 3.88,0.81 12.3,3.28 17.25,6.18 -7.89,35.56 -15.66,71.12 -23.59,106.68 -8.24,36.91 -16.63,73.79 -25.07,110.67 -5.45,4.95 -20.43,9.88 -26.57,11.27 -1.81,0.41 -5.02,0.98 -8.19,1.26 z m -115.08,22.9 c -2.11,0.31 -6.03,0.66 -9.34,0.44 7.29,-46.38 14.62,-92.79 21.85,-139.21 7.41,-47.77 14.96,-95.51 22.47,-143.28 5.11,-2.09 15.19,-1.49 19.43,-0.77 4.11,0.72 13.5,3.27 17.99,6.57 -7.84,43.8 -15.65,87.61 -23.57,131.39 -8.08,44.79 -16.56,89.49 -24.69,134.29 -4.38,5.04 -18.15,9.44 -24.14,10.57 z m -131.26,17.34 c 6.05,-52.42 12.22,-104.78 18.27,-157.18 6.1,-53.05 11.76,-106.18 17.84,-159.23 4.76,-2.92 15.88,-2.99 20.39,-2.46 4.35,0.5 14.47,2.94 18.55,6.6 -6.9,50.22 -13.87,100.45 -20.84,150.67 -7.07,50.91 -14.19,101.81 -21.4,152.71 -3.57,4.93 -16.3,8.61 -21.7,9.28 -2.4,0.28 -7.62,0.46 -11.11,-0.39 z m -120,11.45 c 4.28,-56.61 8.47,-113.21 12.41,-169.83 3.97,-56.71 7.96,-113.4 11.96,-170.11 4.43,-3.39 16.08,-3.96 20.69,-3.6 4.38,0.35 15.13,2.5 19.08,6.19 -5.43,54.79 -10.55,109.64 -15.79,164.44 -5.27,55.37 -10.9,110.68 -16.27,166.04 -2.94,4.72 -14.79,7.95 -19.73,8.39 -2.72,0.22 -9.09,0.09 -12.35,-1.52 z m -118.83,5.69 c 1.89,-58.83 3.81,-117.66 5.52,-176.48 1.71,-58.7 3.31,-117.39 5.18,-176.07 3.87,-3.84 15.57,-4.93 20.18,-4.72 4.46,0.21 15.86,2.2 19.56,6.12 -3.21,57.73 -6.15,115.46 -9.24,173.19 -3.08,58.06 -6.22,116.12 -9.45,174.18 -2.54,4.34 -13.37,6.92 -17.79,7.13 -3.25,0.17 -11.18,-0.59 -13.96,-3.35 z m -86.87,1.32 c -1.96,3.27 -12.48,4.55 -15.78,4.55 -3.36,0 -13.69,-1.26 -15.8,-4.48 0,0 0,-0.01 0,-0.02 -0.67,-59.45 -1.31,-118.92 -1.95,-178.38 -0.65,-59.13 -1.59,-118.27 -2.12,-177.4 3.53,-3.56 15.7,-4.98 19.98,-5.02 4.25,-0.04 16.45,1.1 20.06,4.59 -0.8,59.22 -1.45,118.44 -2.1,177.69 -0.65,59.44 -1.36,118.88 -2.29,178.37 0,0.03 0,0.06 0,0.1 z m -150.19,-4.77 c -2.97,-57.95 -6.03,-115.93 -9.14,-173.87 -3.08,-57.56 -6.02,-115.13 -9.2,-172.67 3.78,-3.99 15.33,-6.04 19.9,-6.26 4.43,-0.24 15.88,0.66 19.8,4.25 1.87,58.6 3.5,117.22 5.19,175.84 1.71,58.78 3.45,117.55 5.2,176.34 -2.84,2.7 -10.8,3.46 -14.03,3.29 -4.35,-0.2 -15.1,-2.68 -17.72,-6.92 z m -119.33,-8.46 c -5.24,-55.14 -10.57,-110.29 -15.78,-165.45 -5.16,-54.6 -10.45,-109.18 -15.63,-163.78 4,-3.82 14.9,-6.07 19.41,-6.43 4.49,-0.35 15.83,0.14 20.2,3.43 3.87,56.53 8.08,113.01 11.95,169.54 3.88,56.39 7.94,112.77 11.93,169.18 -3.26,1.65 -9.7,1.82 -12.45,1.59 -4.87,-0.41 -16.62,-3.46 -19.63,-8.08 z m -120.88,-13.27 c -6.83,-50.69 -13.94,-101.31 -20.74,-151.99 -6.74,-50 -13.75,-99.94 -20.5,-149.93 4.2,-3.66 14.38,-6.3 18.96,-6.98 4.56,-0.46 15.13,-0.32 19.76,2.41 5.86,52.89 11.84,105.77 17.87,158.65 5.96,52.16 11.85,104.34 17.62,156.54 -3.5,0.9 -8.77,0.76 -11.23,0.48 -5.42,-0.63 -18.05,-4.3 -21.74,-9.18 z m -98.52,-7.98 c -5.98,-1.16 -19.52,-5.44 -23.9,-10.37 -7.87,-44.7 -16.13,-89.33 -24.05,-134.01 -7.75,-43.68 -15.68,-87.33 -23.38,-131 4.6,-3.34 14.11,-5.94 18.29,-6.66 4.14,-0.7 14.04,-1.34 19.08,0.65 7.37,47.59 14.9,95.17 22.17,142.79 7.05,46.32 14.22,92.64 21.38,138.95 -3.36,0.26 -7.39,-0.06 -9.59,-0.35 z m -149.6,-34.21 c -8.17,-37.05 -16.35,-74.1 -24.42,-111.19 -7.77,-35.72 -15.77,-71.43 -23.57,-107.15 5.03,-2.93 13.58,-5.37 17.52,-6.17 4.01,-0.81 13.28,-1.86 18.83,-0.72 7.91,40.67 16.06,81.3 23.98,121.96 7.48,38.43 15.02,76.84 22.48,115.24 -3.33,-0.25 -6.73,-0.82 -8.64,-1.22 -6.06,-1.3 -20.74,-5.95 -26.18,-10.75 z m -128.61,-29.33 c -7.25,-28.01 -14.57,-55.99 -21.93,-83.98 -6.86,-26.13 -13.83,-52.25 -20.64,-78.42 5.41,-2.55 13.11,-4.76 16.8,-5.63 3.8,-0.89 12.19,-2.24 17.97,-1.92 7.54,32.07 15.22,64.08 22.82,96.12 6.83,28.75 13.61,57.5 20.42,86.24 -2.92,-0.5 -5.61,-1.1 -7.29,-1.52 -6.23,-1.53 -21.61,-6.37 -28.15,-10.89 z m 1467.47,8.98 c 6.9,-28.22 13.74,-56.46 20.51,-84.72 7.58,-31.63 15.12,-63.29 22.73,-94.91 5.87,-0.27 14.36,1.19 18.19,2.13 3.73,0.9 11.42,3.21 16.82,5.83 -6.77,25.54 -13.58,51.09 -20.45,76.6 -7.35,27.38 -14.66,54.76 -22.01,82.15 -6.7,4.62 -22.54,9.75 -28.91,11.41 -1.63,0.41 -4.12,1 -6.88,1.51 v 0" /><path
         id="path132"
         style="fill:#484a4b;fill-opacity:1;fill-rule:evenodd;stroke:none"
         d="m 3275.98,1567.6 c -31.15,-11.03 -60.47,-19.66 -84.26,-26.19 -1.43,-0.39 -2.82,-0.78 -4.25,-1.17 -99.08,-325.82 -369.46,-559.611 -687.47,-559.611 208.17,0 400.85,57.761 558.03,155.861 137,85.52 247.02,201.69 316.84,337 1.89,3.67 3.76,7.34 5.59,11.02 7.21,14.54 13.96,29.29 20.24,44.25 16.73,39.87 30.05,81.17 39.69,123.61 -32.5,-26.2 -72.82,-47.63 -113.44,-64.97 -17.13,-7.31 -34.3,-13.91 -50.97,-19.8" /><path
         id="path134"
         style="fill:#370c14;fill-opacity:1;fill-rule:evenodd;stroke:none"
         d="m 3482.18,1653.03 c -120.91,-149.57 -374.15,-198.64 -566.97,-216.28 -77.98,-7.15 -157.57,-11.21 -235.44,-1.86 47.31,6.51 21.18,3.61 68.37,7.4 209.19,16.83 564.57,65.09 692.85,233.55 6.89,10.4 21.7,13.72 33.06,7.4 11.4,-6.3 15.01,-19.83 8.13,-30.21" /><path
         id="path136"
         style="fill:#370c14;fill-opacity:1;fill-rule:evenodd;stroke:none"
         d="m 1497.87,1647.79 c 129.26,-151.35 395.76,-204.09 598.33,-224.53 81.93,-8.26 165.48,-13.5 247.03,-5.26 -49.74,7.19 -22.28,3.89 -71.86,8.39 -219.72,19.86 -593.33,73.28 -730.66,243.65 -7.41,10.51 -23,14.04 -34.84,7.89 -11.81,-6.14 -15.41,-19.65 -8,-30.14" /><path
         id="path138"
         style="fill:#370c14;fill-opacity:1;fill-rule:evenodd;stroke:none"
         d="m 1072.16,1974.94 h 2855.66 v 760.42 H 1072.16 v -760.42" /><path
         id="path140"
         style="fill:#ef2f30;fill-opacity:1;fill-rule:evenodd;stroke:none"
         d="m 1124.5,2027.28 h 2751 v 655.74 h -2751 v -655.74" /><g
         transform="scale(10)"
         id="g142"><text
           id="text146"
           style="font-variant:normal;font-weight:800;font-size:49.34049988px;font-family:OpenSans;-inkscape-font-specification:OpenSans-Extrabold;writing-mode:lr-tb;fill:#ffffff;fill-opacity:1;fill-rule:nonzero;stroke:none"
           transform="matrix(1,0,0,-1,128.28,217.466)"><tspan
             id="tspan144"
             y="0"
             x="0 31.273405 65.124504 96.542496 127.81589 152.92229 182.96619 218.33531">BARBECUE</tspan></text>
</g><path
         id="path148"
         style="fill:#f36329;fill-opacity:1;fill-rule:evenodd;stroke:none"
         d="M 2020.32,2665.7 H 3875.5 v 24.78 h -2751 v -24.78 h 23.65 52.32 21.61 68.13 66.12 52.31 499.24 36.56 75.88" /><path
         id="path150"
         style="fill:#ffffff;fill-opacity:1;fill-rule:evenodd;stroke:none"
         d="m 1243.79,2611.17 h 2512.42 v -18.89 H 1243.79 Z m 0,-493.15 h 2512.42 v -18.89 H 1243.79 v 18.89 0" /></g></g></svg>