<svg width="2994" height="880" xmlns="http://www.w3.org/2000/svg">
 <metadata id="metadata3470">image/svg+xml</metadata>
 <defs>
  <clipPath clipPathUnits="userSpaceOnUse" id="clipPath3480">
   <path d="m0,660l660,0l0,-660l-660,0l0,660z" id="path3478"/>
  </clipPath>
 </defs>
 <g>
  <title>background</title>
  <rect x="-1" y="-1" width="2996" height="882" id="canvas_background" fill="none"/>
 </g>
 <g>
  <title>Layer 1</title>
  <g id="g3472" transform="matrix(0.8006791710456995,0,0,-0.6139157313035165,110.5268362616602,599.5477564357095) ">
   <g id="g4260">
    <path id="path3482" d="m-191.188773,-23.448659l3.677,0c1.135,0 2.026,0.106 2.672,0.318c0.646,0.212 1.161,0.51 1.545,0.893c0.54,0.541 0.961,1.269 1.262,2.182c0.302,0.914 0.453,2.022 0.453,3.322c0,1.804 -0.295,3.19 -0.887,4.159c-0.591,0.967 -1.31,1.617 -2.155,1.946c-0.612,0.235 -1.594,0.352 -2.949,0.352l-3.618,0l0,-13.172zm-2.282,-2.031l0,17.235l5.932,0c1.338,0 2.36,-0.082 3.065,-0.247c0.986,-0.228 1.828,-0.639 2.525,-1.235c0.908,-0.767 1.587,-1.749 2.037,-2.944c0.451,-1.195 0.676,-2.562 0.676,-4.098c0,-1.308 -0.153,-2.469 -0.458,-3.479c-0.305,-1.011 -0.697,-1.848 -1.175,-2.51c-0.477,-0.663 -1,-1.184 -1.568,-1.564c-0.567,-0.38 -1.252,-0.668 -2.055,-0.864c-0.802,-0.196 -1.724,-0.294 -2.766,-0.294l-6.213,0z" fill-rule="nonzero" fill="#ffff00"/>
    <path id="path3484" d="m-174.783773,-18.041659l6.969,0c-0.094,1.052 -0.36,1.842 -0.799,2.368c-0.674,0.817 -1.548,1.225 -2.621,1.225c-0.971,0 -1.788,-0.326 -2.45,-0.978c-0.662,-0.651 -1.028,-1.523 -1.099,-2.615m6.946,-3.407l2.187,-0.281c-0.345,-1.277 -0.983,-2.268 -1.915,-2.973c-0.931,-0.705 -2.122,-1.058 -3.571,-1.058c-1.824,0 -3.272,0.562 -4.34,1.687c-1.069,1.124 -1.603,2.701 -1.603,4.731c0,2.1 0.54,3.729 1.621,4.889c1.08,1.16 2.482,1.74 4.205,1.74c1.668,0 3.03,-0.568 4.088,-1.704c1.057,-1.136 1.586,-2.735 1.586,-4.794c0,-0.126 -0.004,-0.315 -0.012,-0.565l-9.317,0c0.079,-1.373 0.467,-2.425 1.165,-3.155c0.698,-0.729 1.569,-1.095 2.612,-1.095c0.776,0 1.439,0.205 1.988,0.616c0.549,0.41 0.984,1.064 1.306,1.962" fill-rule="nonzero" fill="#ffff00"/>
    <path id="path3486" d="m-163.840773,-21.744659l2.094,0.328c0.118,-0.842 0.445,-1.489 0.983,-1.937c0.538,-0.448 1.289,-0.673 2.254,-0.673c0.973,0 1.695,0.199 2.166,0.595c0.471,0.397 0.706,0.861 0.706,1.396c0,0.479 -0.207,0.855 -0.62,1.13c-0.289,0.189 -1.01,0.428 -2.163,0.719c-1.554,0.392 -2.631,0.731 -3.231,1.016c-0.6,0.286 -1.055,0.681 -1.365,1.187c-0.31,0.505 -0.464,1.063 -0.464,1.674c0,0.557 0.127,1.071 0.382,1.545c0.254,0.475 0.602,0.868 1.04,1.182c0.329,0.242 0.778,0.448 1.347,0.616c0.568,0.169 1.177,0.253 1.828,0.253c0.979,0 1.84,-0.141 2.58,-0.423c0.741,-0.282 1.288,-0.664 1.641,-1.145c0.352,-0.482 0.595,-1.125 0.729,-1.932l-2.063,-0.281c-0.094,0.642 -0.367,1.144 -0.818,1.505c-0.451,0.361 -1.089,0.541 -1.912,0.541c-0.974,0 -1.668,-0.161 -2.084,-0.483c-0.416,-0.321 -0.623,-0.698 -0.623,-1.13c0,-0.275 0.086,-0.523 0.259,-0.742c0.172,-0.228 0.443,-0.417 0.811,-0.566c0.212,-0.079 0.836,-0.259 1.872,-0.541c1.498,-0.401 2.543,-0.728 3.133,-0.982c0.59,-0.255 1.053,-0.625 1.389,-1.11c0.336,-0.487 0.504,-1.089 0.504,-1.81c0,-0.705 -0.206,-1.369 -0.617,-1.992c-0.412,-0.622 -1.006,-1.104 -1.783,-1.445c-0.776,-0.341 -1.654,-0.511 -2.634,-0.511c-1.623,0 -2.861,0.338 -3.711,1.013c-0.852,0.674 -1.395,1.675 -1.63,3.003" fill-rule="nonzero" fill="#ffff00"/>
    <path id="path3488" d="m-150.951773,-12.994659l2.109,0l0,-12.484l-2.109,0l0,12.484zm0,4.75l2.109,0l0,-2.438l-2.109,0l0,2.438z" fill-rule="nonzero" fill="#ffff00"/>
    <path id="path3490" d="m-144.251773,-19.014659c0,-1.639 0.325,-2.834 0.974,-3.586c0.65,-0.753 1.464,-1.129 2.442,-1.129c0.97,0 1.784,0.374 2.442,1.123c0.657,0.748 0.985,1.922 0.985,3.522c0,1.528 -0.338,2.68 -1.015,3.457c-0.677,0.775 -1.492,1.164 -2.448,1.164c-0.938,0 -1.737,-0.383 -2.394,-1.147c-0.657,-0.764 -0.986,-1.899 -0.986,-3.404m-1.75,-7.496l2.062,-0.313c0.086,-0.632 0.325,-1.093 0.716,-1.382c0.524,-0.391 1.24,-0.586 2.147,-0.586c0.978,0 1.733,0.196 2.265,0.588c0.531,0.392 0.892,0.941 1.079,1.647c0.11,0.432 0.16,1.337 0.153,2.718c-0.924,-1.094 -2.075,-1.641 -3.453,-1.641c-1.715,0 -3.043,0.619 -3.982,1.858c-0.94,1.238 -1.409,2.722 -1.409,4.455c0,1.191 0.216,2.29 0.646,3.297c0.431,1.006 1.056,1.785 1.874,2.333c0.819,0.548 1.78,0.823 2.885,0.823c1.472,0 2.687,-0.594 3.642,-1.781l0,1.5l1.953,0l0,-10.789c0,-1.944 -0.198,-3.321 -0.593,-4.131c-0.396,-0.811 -1.023,-1.451 -1.881,-1.922c-0.858,-0.47 -1.914,-0.705 -3.168,-0.705c-1.488,0 -2.691,0.335 -3.608,1.005c-0.917,0.67 -1.36,1.678 -1.328,3.026" fill-rule="nonzero" fill="#ffff00"/>
    <path id="path3492" d="m-132.225773,-25.479659l0,12.485l1.89,0l0,-1.775c0.916,1.37 2.24,2.056 3.97,2.056c0.752,0 1.444,-0.135 2.074,-0.405c0.63,-0.271 1.102,-0.625 1.415,-1.065c0.313,-0.438 0.533,-0.96 0.658,-1.563c0.078,-0.392 0.118,-1.077 0.118,-2.057l0,-7.676l-2.11,0l0,7.598c0,0.862 -0.082,1.507 -0.246,1.934c-0.165,0.427 -0.456,0.769 -0.875,1.023c-0.419,0.256 -0.911,0.383 -1.474,0.383c-0.9,0 -1.677,-0.286 -2.331,-0.859c-0.653,-0.572 -0.98,-1.658 -0.98,-3.257l0,-6.822l-2.109,0z" fill-rule="nonzero" fill="#ffff00"/>
    <path id="path3494" d="m-117.267773,-18.041659l6.969,0c-0.094,1.052 -0.361,1.842 -0.799,2.368c-0.674,0.817 -1.548,1.225 -2.621,1.225c-0.972,0 -1.788,-0.326 -2.45,-0.978c-0.662,-0.651 -1.029,-1.523 -1.099,-2.615m6.945,-3.407l2.188,-0.281c-0.345,-1.277 -0.984,-2.268 -1.915,-2.973c-0.932,-0.705 -2.122,-1.058 -3.571,-1.058c-1.825,0 -3.272,0.562 -4.34,1.687c-1.07,1.124 -1.604,2.701 -1.604,4.731c0,2.1 0.54,3.729 1.621,4.889c1.081,1.16 2.483,1.74 4.205,1.74c1.668,0 3.031,-0.568 4.088,-1.704c1.057,-1.136 1.586,-2.735 1.586,-4.794c0,-0.126 -0.004,-0.315 -0.012,-0.565l-9.316,0c0.078,-1.373 0.467,-2.425 1.165,-3.155c0.697,-0.729 1.568,-1.095 2.611,-1.095c0.777,0 1.439,0.205 1.989,0.616c0.548,0.41 0.984,1.064 1.305,1.962" fill-rule="nonzero" fill="#ffff00"/>
    <path id="path3496" d="m-104.074773,-19.250659c0,-1.6 0.337,-2.795 1.01,-3.588c0.674,-0.791 1.469,-1.188 2.385,-1.188c0.924,0 1.709,0.378 2.355,1.135c0.646,0.757 0.969,1.911 0.969,3.464c0,1.71 -0.329,2.964 -0.987,3.765c-0.657,0.798 -1.468,1.199 -2.431,1.199c-0.94,0 -1.724,-0.385 -2.355,-1.152c-0.63,-0.77 -0.946,-1.981 -0.946,-3.635m6.688,-6.229l0,1.571c-0.791,-1.235 -1.955,-1.852 -3.49,-1.852c-0.995,0 -1.91,0.274 -2.744,0.822c-0.834,0.549 -1.48,1.315 -1.938,2.299c-0.458,0.983 -0.688,2.113 -0.688,3.391c0,1.246 0.208,2.376 0.624,3.39c0.415,1.015 1.037,1.793 1.868,2.334c0.83,0.54 1.758,0.811 2.784,0.811c0.752,0 1.422,-0.158 2.01,-0.476c0.587,-0.317 1.065,-0.73 1.433,-1.239l0,6.184l2.11,0l0,-17.235l-1.969,0z" fill-rule="nonzero" fill="#ffff00"/>
    <path id="path3498" d="m-77.447773,-19.213659c-0.767,-0.314 -1.918,-0.58 -3.451,-0.799c-0.869,-0.126 -1.484,-0.268 -1.844,-0.424c-0.36,-0.156 -0.637,-0.386 -0.833,-0.687c-0.196,-0.302 -0.294,-0.637 -0.294,-1.006c0,-0.565 0.213,-1.034 0.639,-1.41c0.426,-0.377 1.049,-0.565 1.869,-0.565c0.813,0 1.535,0.178 2.168,0.535c0.633,0.357 1.098,0.844 1.395,1.463c0.226,0.479 0.34,1.184 0.34,2.117l0.011,0.776zm0.172,-4.719c-0.786,-0.668 -1.541,-1.141 -2.263,-1.415c-0.723,-0.275 -1.499,-0.413 -2.327,-0.413c-1.367,0 -2.418,0.335 -3.152,1.005c-0.734,0.67 -1.102,1.526 -1.102,2.567c0,0.612 0.139,1.17 0.416,1.675c0.278,0.506 0.641,0.911 1.09,1.217c0.45,0.306 0.955,0.536 1.518,0.693c0.414,0.11 1.039,0.216 1.875,0.318c1.703,0.203 2.957,0.446 3.762,0.728c0.007,0.29 0.011,0.475 0.011,0.553c0,0.863 -0.199,1.471 -0.598,1.823c-0.539,0.479 -1.341,0.718 -2.404,0.718c-0.992,0 -1.725,-0.175 -2.198,-0.524c-0.474,-0.348 -0.823,-0.965 -1.05,-1.851l-2.062,0.281c0.188,0.886 0.497,1.601 0.928,2.146c0.43,0.544 1.052,0.963 1.867,1.256c0.814,0.295 1.758,0.442 2.831,0.442c1.064,0 1.929,-0.125 2.596,-0.376c0.665,-0.251 1.154,-0.567 1.467,-0.946c0.314,-0.38 0.533,-0.861 0.658,-1.44c0.071,-0.361 0.106,-1.012 0.106,-1.951l0,-2.822c0,-1.967 0.045,-3.211 0.136,-3.733c0.09,-0.52 0.268,-1.019 0.536,-1.498l-2.203,0c-0.227,0.442 -0.373,0.957 -0.438,1.547" fill-rule="nonzero" fill="#ffff00"/>
    <path id="path3500" d="m-72.019773,-25.479659l0,12.485l1.89,0l0,-1.775c0.916,1.37 2.24,2.056 3.97,2.056c0.752,0 1.444,-0.135 2.074,-0.405c0.631,-0.271 1.102,-0.625 1.415,-1.065c0.313,-0.438 0.533,-0.96 0.658,-1.563c0.078,-0.392 0.118,-1.077 0.118,-2.057l0,-7.676l-2.11,0l0,7.598c0,0.862 -0.082,1.507 -0.246,1.934c-0.165,0.427 -0.456,0.769 -0.875,1.023c-0.419,0.256 -0.911,0.383 -1.474,0.383c-0.9,0 -1.677,-0.286 -2.331,-0.859c-0.653,-0.572 -0.98,-1.658 -0.98,-3.257l0,-6.822l-2.109,0z" fill-rule="nonzero" fill="#ffff00"/>
    <path id="path3502" d="m-57.248773,-19.250659c0,-1.6 0.336,-2.795 1.009,-3.588c0.674,-0.791 1.469,-1.188 2.385,-1.188c0.924,0 1.709,0.378 2.356,1.135c0.645,0.757 0.968,1.911 0.968,3.464c0,1.71 -0.329,2.964 -0.986,3.765c-0.658,0.798 -1.469,1.199 -2.432,1.199c-0.94,0 -1.724,-0.385 -2.355,-1.152c-0.63,-0.77 -0.945,-1.981 -0.945,-3.635m6.687,-6.229l0,1.571c-0.791,-1.235 -1.955,-1.852 -3.49,-1.852c-0.994,0 -1.909,0.274 -2.743,0.822c-0.834,0.549 -1.481,1.315 -1.939,2.299c-0.458,0.983 -0.687,2.113 -0.687,3.391c0,1.246 0.207,2.376 0.623,3.39c0.415,1.015 1.037,1.793 1.868,2.334c0.83,0.54 1.758,0.811 2.785,0.811c0.752,0 1.421,-0.158 2.009,-0.476c0.587,-0.317 1.065,-0.73 1.433,-1.239l0,6.184l2.11,0l0,-17.235l-1.969,0z" fill-rule="nonzero" fill="#ffff00"/>
    <path id="path3504" d="m-38.605773,-25.479659l0,12.485l1.89,0l0,-1.895c0.487,0.886 0.937,1.471 1.349,1.752c0.413,0.283 0.867,0.424 1.362,0.424c0.715,0 1.441,-0.228 2.18,-0.682l-0.74,-1.957c-0.516,0.301 -1.033,0.451 -1.549,0.451c-0.461,0 -0.876,-0.138 -1.243,-0.417c-0.368,-0.278 -0.63,-0.664 -0.787,-1.158c-0.235,-0.752 -0.353,-1.575 -0.353,-2.468l0,-6.535l-2.109,0z" fill-rule="nonzero" fill="#ffff00"/>
    <path id="path3506" d="m-28.984773,-18.041659l6.968,0c-0.094,1.052 -0.36,1.842 -0.799,2.368c-0.674,0.817 -1.547,1.225 -2.62,1.225c-0.972,0 -1.789,-0.326 -2.451,-0.978c-0.662,-0.651 -1.028,-1.523 -1.098,-2.615m6.945,-3.407l2.187,-0.281c-0.345,-1.277 -0.982,-2.268 -1.914,-2.973c-0.933,-0.705 -2.123,-1.058 -3.571,-1.058c-1.825,0 -3.272,0.562 -4.341,1.687c-1.068,1.124 -1.603,2.701 -1.603,4.731c0,2.1 0.54,3.729 1.621,4.889c1.081,1.16 2.482,1.74 4.206,1.74c1.667,0 3.03,-0.568 4.087,-1.704c1.057,-1.136 1.586,-2.735 1.586,-4.794c0,-0.126 -0.004,-0.315 -0.012,-0.565l-9.316,0c0.078,-1.373 0.466,-2.425 1.164,-3.155c0.699,-0.729 1.569,-1.095 2.612,-1.095c0.776,0 1.439,0.205 1.988,0.616c0.549,0.41 0.984,1.064 1.306,1.962" fill-rule="nonzero" fill="#ffff00"/>
    <path id="path3508" d="m-17.229773,-8.244659l2.109,0l0,-17.234l-2.109,0l0,17.234z" fill-rule="nonzero" fill="#ffff00"/>
    <path id="path3510" d="m-10.259773,-18.041659l6.969,0c-0.094,1.052 -0.361,1.842 -0.799,2.368c-0.674,0.817 -1.547,1.225 -2.62,1.225c-0.972,0 -1.789,-0.326 -2.451,-0.978c-0.662,-0.651 -1.028,-1.523 -1.099,-2.615m6.946,-3.407l2.187,-0.281c-0.345,-1.277 -0.983,-2.268 -1.915,-2.973c-0.932,-0.705 -2.122,-1.058 -3.571,-1.058c-1.824,0 -3.271,0.562 -4.341,1.687c-1.068,1.124 -1.603,2.701 -1.603,4.731c0,2.1 0.541,3.729 1.622,4.889c1.08,1.16 2.482,1.74 4.205,1.74c1.668,0 3.03,-0.568 4.088,-1.704c1.057,-1.136 1.585,-2.735 1.585,-4.794c0,-0.126 -0.003,-0.315 -0.011,-0.565l-9.317,0c0.079,-1.373 0.467,-2.425 1.165,-3.155c0.698,-0.729 1.568,-1.095 2.612,-1.095c0.776,0 1.439,0.205 1.987,0.616c0.549,0.41 0.985,1.064 1.307,1.962" fill-rule="nonzero" fill="#ffff00"/>
    <path id="path3512" d="m9.496227,-19.213659c-0.767,-0.314 -1.918,-0.58 -3.452,-0.799c-0.869,-0.126 -1.483,-0.268 -1.843,-0.424c-0.361,-0.156 -0.638,-0.386 -0.834,-0.687c-0.196,-0.302 -0.293,-0.637 -0.293,-1.006c0,-0.565 0.213,-1.034 0.638,-1.41c0.426,-0.377 1.049,-0.565 1.87,-0.565c0.812,0 1.535,0.178 2.168,0.535c0.632,0.357 1.097,0.844 1.394,1.463c0.227,0.479 0.34,1.184 0.34,2.117l0.012,0.776zm0.172,-4.719c-0.787,-0.668 -1.541,-1.141 -2.264,-1.415c-0.723,-0.275 -1.498,-0.413 -2.326,-0.413c-1.367,0 -2.418,0.335 -3.153,1.005c-0.734,0.67 -1.101,1.526 -1.101,2.567c0,0.612 0.138,1.17 0.416,1.675c0.277,0.506 0.64,0.911 1.09,1.217c0.449,0.306 0.955,0.536 1.517,0.693c0.414,0.11 1.039,0.216 1.875,0.318c1.703,0.203 2.957,0.446 3.762,0.728c0.008,0.29 0.012,0.475 0.012,0.553c0,0.863 -0.2,1.471 -0.598,1.823c-0.54,0.479 -1.341,0.718 -2.404,0.718c-0.993,0 -1.726,-0.175 -2.199,-0.524c-0.473,-0.348 -0.823,-0.965 -1.049,-1.851l-2.063,0.281c0.188,0.886 0.497,1.601 0.928,2.146c0.431,0.544 1.053,0.963 1.867,1.256c0.815,0.295 1.758,0.442 2.831,0.442c1.065,0 1.93,-0.125 2.596,-0.376c0.665,-0.251 1.155,-0.567 1.468,-0.946c0.313,-0.38 0.532,-0.861 0.658,-1.44c0.07,-0.361 0.105,-1.012 0.105,-1.951l0,-2.822c0,-1.967 0.045,-3.211 0.136,-3.733c0.09,-0.52 0.269,-1.019 0.536,-1.498l-2.203,0c-0.227,0.442 -0.373,0.957 -0.437,1.547" fill-rule="nonzero" fill="#ffff00"/>
    <path id="path3514" d="m14.064227,-21.744659l2.093,0.328c0.118,-0.842 0.446,-1.489 0.983,-1.937c0.538,-0.448 1.289,-0.673 2.254,-0.673c0.974,0 1.695,0.199 2.166,0.595c0.471,0.397 0.707,0.861 0.707,1.396c0,0.479 -0.207,0.855 -0.621,1.13c-0.289,0.189 -1.01,0.428 -2.163,0.719c-1.554,0.392 -2.631,0.731 -3.23,1.016c-0.601,0.286 -1.056,0.681 -1.366,1.187c-0.309,0.505 -0.464,1.063 -0.464,1.674c0,0.557 0.127,1.071 0.382,1.545c0.255,0.475 0.602,0.868 1.04,1.182c0.329,0.242 0.779,0.448 1.347,0.616c0.568,0.169 1.178,0.253 1.828,0.253c0.98,0 1.84,-0.141 2.581,-0.423c0.74,-0.282 1.287,-0.664 1.64,-1.145c0.352,-0.482 0.596,-1.125 0.729,-1.932l-2.063,-0.281c-0.094,0.642 -0.366,1.144 -0.818,1.505c-0.451,0.361 -1.088,0.541 -1.912,0.541c-0.973,0 -1.668,-0.161 -2.084,-0.483c-0.416,-0.321 -0.623,-0.698 -0.623,-1.13c0,-0.275 0.086,-0.523 0.259,-0.742c0.172,-0.228 0.443,-0.417 0.812,-0.566c0.212,-0.079 0.836,-0.259 1.871,-0.541c1.499,-0.401 2.543,-0.728 3.133,-0.982c0.59,-0.255 1.053,-0.625 1.389,-1.11c0.336,-0.487 0.505,-1.089 0.505,-1.81c0,-0.705 -0.206,-1.369 -0.618,-1.992c-0.412,-0.622 -1.006,-1.104 -1.782,-1.445c-0.777,-0.341 -1.655,-0.511 -2.635,-0.511c-1.623,0 -2.86,0.338 -3.711,1.013c-0.852,0.674 -1.395,1.675 -1.629,3.003" fill-rule="nonzero" fill="#ffff00"/>
    <path id="path3516" d="m28.531227,-18.041659l6.969,0c-0.094,1.052 -0.361,1.842 -0.799,2.368c-0.674,0.817 -1.548,1.225 -2.621,1.225c-0.972,0 -1.788,-0.326 -2.451,-0.978c-0.662,-0.651 -1.028,-1.523 -1.098,-2.615m6.945,-3.407l2.188,-0.281c-0.345,-1.277 -0.984,-2.268 -1.915,-2.973c-0.932,-0.705 -2.122,-1.058 -3.572,-1.058c-1.824,0 -3.271,0.562 -4.34,1.687c-1.069,1.124 -1.603,2.701 -1.603,4.731c0,2.1 0.54,3.729 1.621,4.889c1.08,1.16 2.482,1.74 4.205,1.74c1.668,0 3.031,-0.568 4.088,-1.704c1.057,-1.136 1.586,-2.735 1.586,-4.794c0,-0.126 -0.004,-0.315 -0.012,-0.565l-9.316,0c0.078,-1.373 0.467,-2.425 1.164,-3.155c0.698,-0.729 1.569,-1.095 2.612,-1.095c0.777,0 1.439,0.205 1.988,0.616c0.549,0.41 0.984,1.064 1.306,1.962" fill-rule="nonzero" fill="#ffff00"/>
    <path id="path3518" d="m41.723227,-19.250659c0,-1.6 0.337,-2.795 1.01,-3.588c0.674,-0.791 1.469,-1.188 2.385,-1.188c0.924,0 1.709,0.378 2.355,1.135c0.646,0.757 0.969,1.911 0.969,3.464c0,1.71 -0.329,2.964 -0.987,3.765c-0.658,0.798 -1.468,1.199 -2.431,1.199c-0.94,0 -1.725,-0.385 -2.355,-1.152c-0.63,-0.77 -0.946,-1.981 -0.946,-3.635m6.688,-6.229l0,1.571c-0.791,-1.235 -1.954,-1.852 -3.49,-1.852c-0.995,0 -1.91,0.274 -2.744,0.822c-0.834,0.549 -1.48,1.315 -1.938,2.299c-0.458,0.983 -0.688,2.113 -0.688,3.391c0,1.246 0.208,2.376 0.623,3.39c0.415,1.015 1.038,1.793 1.869,2.334c0.83,0.54 1.757,0.811 2.785,0.811c0.752,0 1.422,-0.158 2.009,-0.476c0.586,-0.317 1.065,-0.73 1.433,-1.239l0,6.184l2.109,0l0,-17.235l-1.968,0z" fill-rule="nonzero" fill="#ffff00"/>
    <path id="path3520" d="m60.398227,-12.994659l2.109,0l0,-12.484l-2.109,0l0,12.484zm0,4.75l2.109,0l0,-2.438l-2.109,0l0,2.438z" fill-rule="nonzero" fill="#ffff00"/>
    <path id="path3522" d="m65.743227,-25.479659l0,12.485l1.89,0l0,-1.775c0.916,1.37 2.24,2.056 3.971,2.056c0.751,0 1.442,-0.135 2.073,-0.405c0.63,-0.271 1.102,-0.625 1.415,-1.065c0.314,-0.438 0.533,-0.96 0.659,-1.563c0.078,-0.392 0.117,-1.077 0.117,-2.057l0,-7.676l-2.11,0l0,7.598c0,0.862 -0.082,1.507 -0.247,1.934c-0.164,0.427 -0.455,0.769 -0.874,1.023c-0.419,0.256 -0.91,0.383 -1.473,0.383c-0.901,0 -1.678,-0.286 -2.331,-0.859c-0.654,-0.572 -0.981,-1.658 -0.981,-3.257l0,-6.822l-2.109,0z" fill-rule="nonzero" fill="#ffff00"/>
    <path id="path3524" d="m87.713227,-19.309659c0,-1.607 0.326,-2.796 0.975,-3.564c0.649,-0.769 1.436,-1.153 2.359,-1.153c0.939,0 1.744,0.399 2.413,1.194c0.668,0.797 1.003,2.029 1.003,3.699c0,1.592 -0.327,2.783 -0.98,3.576c-0.653,0.791 -1.435,1.188 -2.342,1.188c-0.899,0 -1.696,-0.422 -2.388,-1.265c-0.693,-0.843 -1.04,-2.067 -1.04,-3.675m-1.906,-10.951l0,17.266l1.922,0l0,-1.622c0.454,0.633 0.968,1.11 1.539,1.427c0.571,0.318 1.265,0.476 2.08,0.476c1.066,0 2.005,-0.275 2.82,-0.822c0.814,-0.549 1.429,-1.324 1.844,-2.323c0.415,-0.999 0.623,-2.093 0.623,-3.285c0,-1.277 -0.229,-2.427 -0.687,-3.449c-0.458,-1.023 -1.124,-1.807 -1.997,-2.352c-0.874,-0.544 -1.793,-0.816 -2.756,-0.816c-0.705,0 -1.338,0.148 -1.898,0.445c-0.56,0.297 -1.02,0.672 -1.38,1.125l0,-6.07l-2.11,0z" fill-rule="nonzero" fill="#ffff00"/>
    <path id="path3526" d="m107.344227,-25.479659l0,1.841c-0.968,-1.415 -2.285,-2.122 -3.949,-2.122c-0.734,0 -1.42,0.141 -2.057,0.423c-0.636,0.282 -1.109,0.637 -1.418,1.064c-0.308,0.427 -0.525,0.95 -0.65,1.57c-0.086,0.415 -0.129,1.073 -0.129,1.974l0,7.735l2.11,0l0,-6.92c0,-1.105 0.043,-1.848 0.128,-2.233c0.133,-0.555 0.415,-0.992 0.845,-1.309c0.43,-0.318 0.961,-0.476 1.595,-0.476c0.633,0 1.227,0.162 1.782,0.487c0.555,0.326 0.947,0.768 1.179,1.328c0.23,0.56 0.346,1.373 0.346,2.438l0,6.685l2.108,0l0,-12.485l-1.89,0z" fill-rule="nonzero" fill="#ffff00"/>
    <path id="path3528" d="m114.474227,-19.143659c0,-1.498 0.204,-2.58 0.612,-3.247c0.667,-1.091 1.569,-1.636 2.708,-1.636c0.926,0 1.727,0.403 2.401,1.206c0.675,0.804 1.013,2.002 1.013,3.595c0,1.632 -0.324,2.836 -0.972,3.612c-0.647,0.777 -1.43,1.165 -2.348,1.165c-0.926,0 -1.727,-0.402 -2.402,-1.206c-0.674,-0.803 -1.012,-1.966 -1.012,-3.489m0.031,-6.336l-1.953,0l0,17.235l2.109,0l0,-6.145c0.895,1.117 2.035,1.676 3.424,1.676c0.769,0 1.496,-0.154 2.183,-0.465c0.686,-0.309 1.251,-0.744 1.694,-1.305c0.443,-0.559 0.791,-1.235 1.041,-2.027c0.252,-0.791 0.377,-1.638 0.377,-2.539c0,-2.139 -0.529,-3.792 -1.589,-4.96c-1.059,-1.167 -2.331,-1.751 -3.813,-1.751c-1.476,0 -2.633,0.613 -3.473,1.84l0,-1.559z" fill-rule="nonzero" fill="#ffff00"/>
    <path id="path3530" d="m125.901227,-8.244659l2.109,0l0,-17.234l-2.109,0l0,17.234z" fill-rule="nonzero" fill="#ffff00"/>
    <path id="path3532" d="m131.293227,-12.994659l2.109,0l0,-12.484l-2.109,0l0,12.484zm0,4.75l2.109,0l0,-2.438l-2.109,0l0,2.438z" fill-rule="nonzero" fill="#ffff00"/>
    <path id="path3534" d="m144.779227,-20.901659l2.079,-0.281c-0.228,-1.432 -0.81,-2.553 -1.747,-3.363c-0.936,-0.811 -2.087,-1.215 -3.45,-1.215c-1.709,0 -3.082,0.559 -4.121,1.675c-1.039,1.116 -1.557,2.717 -1.557,4.802c0,1.347 0.223,2.527 0.669,3.537c0.447,1.011 1.126,1.769 2.039,2.275c0.914,0.505 1.907,0.758 2.98,0.758c1.355,0 2.465,-0.344 3.326,-1.029c0.861,-0.687 1.414,-1.662 1.657,-2.924l-2.062,-0.313c-0.196,0.84 -0.542,1.472 -1.04,1.896c-0.497,0.424 -1.098,0.635 -1.803,0.635c-1.065,0 -1.931,-0.382 -2.596,-1.147c-0.666,-0.765 -0.999,-1.975 -0.999,-3.63c0,-1.679 0.322,-2.898 0.965,-3.659c0.644,-0.761 1.483,-1.142 2.519,-1.142c0.831,0 1.525,0.256 2.082,0.767c0.557,0.511 0.91,1.297 1.059,2.358" fill-rule="nonzero" fill="#ffff00"/>
    <path id="path3536" d="m156.743227,-19.250659c0,-1.6 0.337,-2.795 1.01,-3.588c0.674,-0.791 1.469,-1.188 2.385,-1.188c0.924,0 1.709,0.378 2.355,1.135c0.646,0.757 0.969,1.911 0.969,3.464c0,1.71 -0.329,2.964 -0.986,3.765c-0.659,0.798 -1.469,1.199 -2.432,1.199c-0.939,0 -1.725,-0.385 -2.355,-1.152c-0.63,-0.77 -0.946,-1.981 -0.946,-3.635m6.688,-6.229l0,1.571c-0.791,-1.235 -1.955,-1.852 -3.49,-1.852c-0.995,0 -1.91,0.274 -2.744,0.822c-0.834,0.549 -1.48,1.315 -1.938,2.299c-0.459,0.983 -0.688,2.113 -0.688,3.391c0,1.246 0.207,2.376 0.623,3.39c0.415,1.015 1.038,1.793 1.869,2.334c0.83,0.54 1.758,0.811 2.784,0.811c0.752,0 1.422,-0.158 2.01,-0.476c0.587,-0.317 1.065,-0.73 1.433,-1.239l0,6.184l2.109,0l0,-17.235l-1.968,0z" fill-rule="nonzero" fill="#ffff00"/>
    <path id="path3538" d="m170.108227,-19.239659c0,-1.599 0.348,-2.796 1.045,-3.593c0.698,-0.795 1.575,-1.194 2.632,-1.194c1.05,0 1.923,0.401 2.62,1.2c0.698,0.8 1.046,2.019 1.046,3.658c0,1.545 -0.35,2.715 -1.052,3.512c-0.701,0.794 -1.572,1.193 -2.614,1.193c-1.057,0 -1.934,-0.397 -2.632,-1.188c-0.697,-0.793 -1.045,-1.988 -1.045,-3.588m-2.172,0.002c0,2.312 0.641,4.024 1.926,5.137c1.073,0.924 2.38,1.387 3.923,1.387c1.715,0 3.116,-0.563 4.205,-1.687c1.089,-1.125 1.633,-2.678 1.633,-4.661c0,-1.605 -0.241,-2.869 -0.723,-3.79c-0.481,-0.921 -1.182,-1.636 -2.102,-2.145c-0.92,-0.509 -1.924,-0.764 -3.013,-0.764c-1.746,0 -3.158,0.561 -4.234,1.681c-1.077,1.12 -1.615,2.735 -1.615,4.842" fill-rule="nonzero" fill="#ffff00"/>
    <path id="path3540" d="m182.106227,-25.479659l0,12.485l1.89,0l0,-1.747c0.392,0.609 0.911,1.1 1.561,1.471c0.649,0.371 1.387,0.557 2.217,0.557c0.922,0 1.679,-0.192 2.27,-0.574c0.59,-0.384 1.007,-0.919 1.249,-1.607c0.988,1.454 2.275,2.181 3.859,2.181c1.24,0 2.193,-0.343 2.86,-1.028c0.667,-0.687 1,-1.743 1,-3.168l0,-8.57l-2.11,0l0,7.868c0,0.847 -0.068,1.456 -0.206,1.83c-0.136,0.372 -0.385,0.671 -0.746,0.899c-0.361,0.227 -0.785,0.341 -1.27,0.341c-0.879,0 -1.609,-0.292 -2.189,-0.876c-0.58,-0.585 -0.87,-1.52 -0.87,-2.806l0,-7.256l-2.109,0l0,8.115c0,0.941 -0.172,1.647 -0.517,2.117c-0.345,0.47 -0.908,0.706 -1.691,0.706c-0.595,0 -1.145,-0.157 -1.651,-0.471c-0.504,-0.313 -0.871,-0.772 -1.097,-1.376c-0.227,-0.603 -0.341,-1.474 -0.341,-2.61l0,-6.481l-2.109,0z" fill-rule="nonzero" fill="#ffff00"/>
    <path id="path3542" d="m210.108227,-19.213659c-0.767,-0.314 -1.918,-0.58 -3.453,-0.799c-0.868,-0.126 -1.482,-0.268 -1.842,-0.424c-0.361,-0.156 -0.638,-0.386 -0.833,-0.687c-0.197,-0.302 -0.294,-0.637 -0.294,-1.006c0,-0.565 0.213,-1.034 0.638,-1.41c0.426,-0.377 1.049,-0.565 1.869,-0.565c0.813,0 1.536,0.178 2.168,0.535c0.633,0.357 1.098,0.844 1.395,1.463c0.227,0.479 0.34,1.184 0.34,2.117l0.012,0.776zm0.171,-4.719c-0.786,-0.668 -1.541,-1.141 -2.263,-1.415c-0.723,-0.275 -1.498,-0.413 -2.326,-0.413c-1.368,0 -2.418,0.335 -3.153,1.005c-0.734,0.67 -1.101,1.526 -1.101,2.567c0,0.612 0.138,1.17 0.416,1.675c0.277,0.506 0.64,0.911 1.089,1.217c0.45,0.306 0.956,0.536 1.518,0.693c0.414,0.11 1.039,0.216 1.875,0.318c1.703,0.203 2.957,0.446 3.762,0.728c0.008,0.29 0.012,0.475 0.012,0.553c0,0.863 -0.2,1.471 -0.599,1.823c-0.539,0.479 -1.34,0.718 -2.403,0.718c-0.994,0 -1.726,-0.175 -2.199,-0.524c-0.473,-0.348 -0.823,-0.965 -1.049,-1.851l-2.063,0.281c0.188,0.886 0.497,1.601 0.928,2.146c0.43,0.544 1.052,0.963 1.867,1.256c0.814,0.295 1.759,0.442 2.831,0.442c1.064,0 1.93,-0.125 2.596,-0.376c0.665,-0.251 1.154,-0.567 1.467,-0.946c0.314,-0.38 0.533,-0.861 0.659,-1.44c0.07,-0.361 0.105,-1.012 0.105,-1.951l0,-2.822c0,-1.967 0.045,-3.211 0.136,-3.733c0.09,-0.52 0.268,-1.019 0.536,-1.498l-2.203,0c-0.228,0.442 -0.373,0.957 -0.438,1.547" fill-rule="nonzero" fill="#ffff00"/>
    <path id="path3544" d="m215.535227,-12.994659l2.109,0l0,-12.484l-2.109,0l0,12.484zm0,4.75l2.109,0l0,-2.438l-2.109,0l0,2.438z" fill-rule="nonzero" fill="#ffff00"/>
    <path id="path3546" d="m220.880227,-25.479659l0,12.485l1.891,0l0,-1.775c0.916,1.37 2.239,2.056 3.97,2.056c0.752,0 1.443,-0.135 2.074,-0.405c0.629,-0.271 1.101,-0.625 1.415,-1.065c0.313,-0.438 0.532,-0.96 0.658,-1.563c0.078,-0.392 0.117,-1.077 0.117,-2.057l0,-7.676l-2.109,0l0,7.598c0,0.862 -0.082,1.507 -0.247,1.934c-0.165,0.427 -0.457,0.769 -0.875,1.023c-0.418,0.256 -0.91,0.383 -1.473,0.383c-0.901,0 -1.678,-0.286 -2.331,-0.859c-0.654,-0.572 -0.981,-1.658 -0.981,-3.257l0,-6.822l-2.109,0z" fill-rule="nonzero" fill="#ffff00"/>
    <path id="path3548" d="m242.851227,-19.143659c0,-1.498 0.204,-2.58 0.612,-3.247c0.667,-1.091 1.569,-1.636 2.708,-1.636c0.926,0 1.727,0.403 2.401,1.206c0.675,0.804 1.013,2.002 1.013,3.595c0,1.632 -0.324,2.836 -0.972,3.612c-0.647,0.777 -1.43,1.165 -2.348,1.165c-0.926,0 -1.727,-0.402 -2.402,-1.206c-0.674,-0.803 -1.012,-1.966 -1.012,-3.489m0.031,-6.336l-1.953,0l0,17.235l2.109,0l0,-6.145c0.895,1.117 2.035,1.676 3.424,1.676c0.769,0 1.496,-0.154 2.183,-0.465c0.686,-0.309 1.251,-0.744 1.694,-1.305c0.443,-0.559 0.791,-1.235 1.041,-2.027c0.252,-0.791 0.377,-1.638 0.377,-2.539c0,-2.139 -0.529,-3.792 -1.589,-4.96c-1.06,-1.167 -2.331,-1.751 -3.813,-1.751c-1.476,0 -2.633,0.613 -3.473,1.84l0,-1.559z" fill-rule="nonzero" fill="#ffff00"/>
    <path id="path3550" d="m254.232227,-30.281659l-0.235,1.99c0.461,-0.125 0.864,-0.188 1.208,-0.188c0.47,0 0.845,0.078 1.126,0.235c0.281,0.157 0.513,0.377 0.693,0.658c0.132,0.212 0.347,0.736 0.645,1.574c0.039,0.118 0.102,0.29 0.188,0.518l-4.75,12.5l2.28,0l2.602,-7.198c0.338,-0.912 0.64,-1.872 0.908,-2.879c0.244,0.941 0.535,1.873 0.873,2.797l2.665,7.28l2.114,0l-4.733,-12.704c-0.51,-1.369 -0.906,-2.31 -1.188,-2.827c-0.376,-0.695 -0.807,-1.205 -1.293,-1.53c-0.486,-0.324 -1.066,-0.486 -1.74,-0.486c-0.407,0 -0.862,0.086 -1.363,0.26" fill-rule="nonzero" fill="#ffff00"/>
    <path id="path3552" d="m273.414227,-25.479659l0,17.235l11.625,0l0,-2.032l-9.344,0l0,-5.343l8.094,0l0,-2.032l-8.094,0l0,-7.828l-2.281,0z" fill-rule="nonzero" fill="#ffff00"/>
    <path id="path3554" d="m287.704227,-25.479659l0,12.485l1.891,0l0,-1.895c0.487,0.886 0.936,1.471 1.349,1.752c0.413,0.283 0.866,0.424 1.362,0.424c0.715,0 1.441,-0.228 2.179,-0.682l-0.74,-1.957c-0.515,0.301 -1.032,0.451 -1.549,0.451c-0.461,0 -0.875,-0.138 -1.243,-0.417c-0.367,-0.278 -0.63,-0.664 -0.786,-1.158c-0.236,-0.752 -0.353,-1.575 -0.353,-2.468l0,-6.535l-2.11,0z" fill-rule="nonzero" fill="#ffff00"/>
    <path id="path3556" d="m297.325227,-18.041659l6.969,0c-0.094,1.052 -0.36,1.842 -0.799,2.368c-0.674,0.817 -1.548,1.225 -2.621,1.225c-0.972,0 -1.788,-0.326 -2.45,-0.978c-0.662,-0.651 -1.028,-1.523 -1.099,-2.615m6.946,-3.407l2.187,-0.281c-0.345,-1.277 -0.983,-2.268 -1.915,-2.973c-0.932,-0.705 -2.122,-1.058 -3.571,-1.058c-1.824,0 -3.272,0.562 -4.34,1.687c-1.069,1.124 -1.604,2.701 -1.604,4.731c0,2.1 0.54,3.729 1.621,4.889c1.081,1.16 2.483,1.74 4.206,1.74c1.668,0 3.031,-0.568 4.087,-1.704c1.057,-1.136 1.586,-2.735 1.586,-4.794c0,-0.126 -0.004,-0.315 -0.011,-0.565l-9.317,0c0.078,-1.373 0.467,-2.425 1.164,-3.155c0.699,-0.729 1.57,-1.095 2.613,-1.095c0.776,0 1.438,0.205 1.988,0.616c0.549,0.41 0.983,1.064 1.306,1.962" fill-rule="nonzero" fill="#ffff00"/>
    <path id="path3558" d="m310.705227,-18.041659l6.969,0c-0.095,1.052 -0.36,1.842 -0.799,2.368c-0.674,0.817 -1.548,1.225 -2.621,1.225c-0.972,0 -1.788,-0.326 -2.45,-0.978c-0.662,-0.651 -1.029,-1.523 -1.099,-2.615m6.945,-3.407l2.188,-0.281c-0.345,-1.277 -0.983,-2.268 -1.915,-2.973c-0.932,-0.705 -2.122,-1.058 -3.57,-1.058c-1.826,0 -3.273,0.562 -4.341,1.687c-1.07,1.124 -1.604,2.701 -1.604,4.731c0,2.1 0.54,3.729 1.621,4.889c1.081,1.16 2.483,1.74 4.205,1.74c1.668,0 3.031,-0.568 4.088,-1.704c1.058,-1.136 1.586,-2.735 1.586,-4.794c0,-0.126 -0.004,-0.315 -0.011,-0.565l-9.317,0c0.078,-1.373 0.467,-2.425 1.165,-3.155c0.697,-0.729 1.569,-1.095 2.612,-1.095c0.776,0 1.439,0.205 1.988,0.616c0.549,0.41 0.984,1.064 1.305,1.962" fill-rule="nonzero" fill="#ffff00"/>
    <path id="path3560" d="m322.008227,-19.948659l2.156,0.188c0.102,-0.864 0.338,-1.574 0.709,-2.128c0.371,-0.554 0.948,-1.002 1.73,-1.344c0.781,-0.341 1.661,-0.512 2.637,-0.512c0.868,0 1.634,0.129 2.298,0.388c0.664,0.26 1.158,0.616 1.484,1.068c0.324,0.451 0.486,0.944 0.486,1.476c0,0.541 -0.156,1.013 -0.468,1.417c-0.311,0.404 -0.828,0.742 -1.549,1.017c-0.462,0.18 -1.484,0.461 -3.066,0.842c-1.583,0.38 -2.692,0.739 -3.328,1.077c-0.824,0.431 -1.438,0.967 -1.842,1.607c-0.404,0.639 -0.606,1.356 -0.606,2.149c0,0.871 0.247,1.685 0.741,2.442c0.493,0.757 1.215,1.332 2.163,1.725c0.948,0.392 2.003,0.588 3.163,0.588c1.278,0 2.404,-0.205 3.381,-0.616c0.976,-0.411 1.726,-1.015 2.252,-1.813c0.525,-0.798 0.807,-1.701 0.846,-2.711l-2.187,-0.172c-0.118,1.087 -0.515,1.908 -1.192,2.464c-0.678,0.556 -1.68,0.833 -3.003,0.833c-1.38,0 -2.384,-0.253 -3.015,-0.759c-0.631,-0.507 -0.946,-1.116 -0.946,-1.83c0,-0.62 0.223,-1.13 0.67,-1.53c0.438,-0.401 1.585,-0.811 3.437,-1.23c1.853,-0.42 3.124,-0.786 3.814,-1.099c1.002,-0.462 1.743,-1.048 2.221,-1.757c0.478,-0.709 0.717,-1.526 0.717,-2.449c0,-0.917 -0.263,-1.781 -0.787,-2.591c-0.525,-0.812 -1.277,-1.442 -2.26,-1.892c-0.982,-0.45 -2.089,-0.676 -3.317,-0.676c-1.558,0 -2.864,0.228 -3.916,0.682c-1.053,0.454 -1.879,1.138 -2.478,2.051c-0.598,0.912 -0.914,1.944 -0.945,3.095" fill-rule="nonzero" fill="#ffff00"/>
    <path id="path3562" d="m343.733227,-25.479659l-6.666,17.235l2.472,0l4.478,-12.516c0.36,-1.003 0.662,-1.943 0.905,-2.82c0.267,0.939 0.576,1.88 0.929,2.82l4.657,12.516l2.331,0l-6.748,-17.235l-2.358,0z" fill-rule="nonzero" fill="#ffff00"/>
    <path id="path3564" d="m362.930227,-18.729659l0,2.031l7.297,0l0,-6.388c-1.12,-0.893 -2.277,-1.565 -3.468,-2.014c-1.191,-0.451 -2.413,-0.676 -3.666,-0.676c-1.694,0 -3.231,0.363 -4.613,1.088c-1.384,0.725 -2.428,1.774 -3.133,3.146c-0.705,1.372 -1.058,2.905 -1.058,4.598c0,1.678 0.351,3.244 1.052,4.698c0.701,1.455 1.71,2.535 3.026,3.24c1.317,0.706 2.833,1.058 4.549,1.058c1.245,0 2.372,-0.202 3.379,-0.606c1.007,-0.404 1.796,-0.968 2.368,-1.689c0.572,-0.722 1.007,-1.664 1.305,-2.827l-2.058,-0.563c-0.259,0.878 -0.58,1.568 -0.965,2.071c-0.383,0.503 -0.932,0.906 -1.645,1.208c-0.714,0.302 -1.506,0.453 -2.376,0.453c-1.042,0 -1.944,-0.158 -2.704,-0.476c-0.761,-0.317 -1.375,-0.735 -1.841,-1.252c-0.466,-0.517 -0.829,-1.085 -1.088,-1.704c-0.438,-1.066 -0.658,-2.222 -0.658,-3.468c0,-1.536 0.265,-2.821 0.794,-3.855c0.529,-1.036 1.299,-1.803 2.31,-2.305c1.011,-0.501 2.085,-0.752 3.222,-0.752c0.988,0 1.952,0.189 2.894,0.568c0.94,0.38 1.653,0.784 2.139,1.215l0,3.201l-5.062,0z" fill-rule="nonzero" fill="#ffff00"/>
    <path id="path3566" d="m373.909227,-23.073659l2.406,0l0,-2.406l-2.406,0l0,2.406z" fill-rule="nonzero" fill="#ffff00"/>
    <path id="path3568" d="m381.375227,-19.239659c0,-1.599 0.349,-2.796 1.046,-3.593c0.697,-0.795 1.574,-1.194 2.632,-1.194c1.05,0 1.923,0.401 2.62,1.2c0.697,0.8 1.046,2.019 1.046,3.658c0,1.545 -0.351,2.715 -1.052,3.512c-0.701,0.794 -1.572,1.193 -2.614,1.193c-1.058,0 -1.935,-0.397 -2.632,-1.188c-0.697,-0.793 -1.046,-1.988 -1.046,-3.588m-2.172,0.002c0,2.312 0.642,4.024 1.927,5.137c1.072,0.924 2.38,1.387 3.923,1.387c1.715,0 3.116,-0.563 4.205,-1.687c1.089,-1.125 1.633,-2.678 1.633,-4.661c0,-1.605 -0.242,-2.869 -0.723,-3.79c-0.481,-0.921 -1.183,-1.636 -2.102,-2.145c-0.92,-0.509 -1.924,-0.764 -3.013,-0.764c-1.746,0 -3.158,0.561 -4.235,1.681c-1.077,1.12 -1.615,2.735 -1.615,4.842" fill-rule="nonzero" fill="#ffff00"/>
    <path id="path3570" d="m393.349227,-25.479659l0,12.485l1.89,0l0,-1.895c0.488,0.886 0.937,1.471 1.35,1.752c0.412,0.283 0.865,0.424 1.361,0.424c0.715,0 1.442,-0.228 2.18,-0.682l-0.74,-1.957c-0.516,0.301 -1.032,0.451 -1.549,0.451c-0.461,0 -0.875,-0.138 -1.243,-0.417c-0.367,-0.278 -0.63,-0.664 -0.786,-1.158c-0.237,-0.752 -0.354,-1.575 -0.354,-2.468l0,-6.535l-2.109,0z" fill-rule="nonzero" fill="#ffff00"/>
    <path id="path3572" d="m402.747227,-19.014659c0,-1.639 0.325,-2.834 0.975,-3.586c0.649,-0.753 1.463,-1.129 2.441,-1.129c0.971,0 1.784,0.374 2.442,1.123c0.658,0.748 0.986,1.922 0.986,3.522c0,1.528 -0.338,2.68 -1.016,3.457c-0.676,0.775 -1.492,1.164 -2.447,1.164c-0.939,0 -1.737,-0.383 -2.395,-1.147c-0.657,-0.764 -0.986,-1.899 -0.986,-3.404m-1.75,-7.496l2.063,-0.313c0.086,-0.632 0.325,-1.093 0.715,-1.382c0.525,-0.391 1.241,-0.586 2.148,-0.586c0.977,0 1.732,0.196 2.265,0.588c0.531,0.392 0.891,0.941 1.079,1.647c0.109,0.432 0.16,1.337 0.152,2.718c-0.924,-1.094 -2.074,-1.641 -3.453,-1.641c-1.715,0 -3.042,0.619 -3.982,1.858c-0.939,1.238 -1.409,2.722 -1.409,4.455c0,1.191 0.216,2.29 0.647,3.297c0.43,1.006 1.055,1.785 1.874,2.333c0.818,0.548 1.78,0.823 2.884,0.823c1.472,0 2.687,-0.594 3.642,-1.781l0,1.5l1.953,0l0,-10.789c0,-1.944 -0.197,-3.321 -0.593,-4.131c-0.396,-0.811 -1.023,-1.451 -1.88,-1.922c-0.859,-0.47 -1.914,-0.705 -3.168,-0.705c-1.489,0 -2.692,0.335 -3.609,1.005c-0.917,0.67 -1.359,1.678 -1.328,3.026" fill-rule="nonzero" fill="#ffff00"/>
   </g>
   <path d="m132.117227,372.058341c12.11,-1.228 22.662,-5.928 28.622,-12.749c5.959,-6.82 6.665,-15.005 1.914,-22.2c-2.259,-3.421 -6.919,-5.968 -12.576,-6.87c-5.656,-0.901 -11.652,-0.057 -16.18,2.281c-8.292,4.282 -20.108,4.403 -28.613,0.294c-12.792,-6.18 -30.53,-6.081 -43.15,0.241c-12.619,6.324 -16.934,17.274 -10.495,26.638c6.44,9.363 22.007,14.777 37.866,13.169c16.04,-1.626 28.892,0.588 42.612,-0.804m-1.369,-5.47c9.471,-0.96 17.724,-4.637 22.385,-9.97c4.65,-5.323 5.205,-11.749 1.497,-17.363c-1.198,-1.815 -3.669,-3.164 -6.668,-3.644c-2.994,-0.476 -6.185,-0.026 -8.581,1.21c-11.403,5.889 -27.665,6.054 -39.359,0.404c-9.636,-4.656 -22.998,-4.581 -32.504,0.183c-9.505,4.761 -12.754,13.012 -7.906,20.064c4.848,7.05 16.584,11.131 28.525,9.92c6.342,-0.643 12.601,-0.765 19.009,-0.662c5.19,0.085 10.407,0.321 15.599,0.267c2.679,-0.028 5.354,-0.14 8.003,-0.409m-48.725,-6.141c7.369,0 13.343,-3.801 13.343,-8.491c0,-4.691 -5.974,-8.491 -13.343,-8.491c-7.37,0 -13.342,3.8 -13.342,8.491c0,4.69 5.972,8.491 13.342,8.491m0,-4.451c3.507,0 6.351,-1.808 6.351,-4.04c0,-2.232 -2.844,-4.042 -6.351,-4.042c-3.506,0 -6.349,1.81 -6.349,4.042c0,2.232 2.843,4.04 6.349,4.04m-95.885,-50.742c-5.701,5.062 -8.85,10.598 -8.85,16.4c0,11.959 13.345,22.791 34.946,30.659l-26.096,-47.059zm196.358,47.339c22.056,-7.892 35.722,-18.837 35.722,-30.939c0,-5.942 -3.299,-11.606 -9.266,-16.768l-26.456,47.707zm-12.873,4c0.326,-0.088 0.653,-0.177 0.978,-0.267l26.43,-59.332c-9.022,-4.735 -20.568,-8.793 -33.941,-11.919l-5.984,19.652c-1.72,-0.573 -3.557,-1.02 -5.479,-1.327c-3.192,-0.511 -6.474,-0.603 -9.655,-0.306l4.165,-21.319c-12.242,-1.942 -25.551,-3.172 -39.521,-3.539l-1.458,26.738c-4.87,-1.835 -10.187,-2.984 -15.617,-3.452l-1.269,-23.27c-13.972,0.394 -27.275,1.65 -39.503,3.62l5.359,27.418c-5.641,3.68 -9.373,8.262 -10.956,13.136l-11.333,-37.214c-13.374,3.165 -24.9,7.264 -33.866,12.044l26.224,58.874c6.598,1.84 13.737,3.44 21.317,4.76c-1.893,-2.889 -2.927,-5.899 -3.155,-8.902l-0.002,0l0,-0.028c-0.063,-0.841 -0.063,-1.682 0,-2.519l0,-14.391c-0.063,-0.841 -0.063,-1.682 0,-2.519l0,-2.399l0.352,0c1.45,-6.613 6.8,-12.824 15.483,-17.173c14.898,-7.464 35.844,-7.581 50.946,-0.285c6.165,2.978 14.733,2.89 20.744,-0.212c6.072,-3.138 14.16,-4.276 21.745,-3.066c7.604,1.213 13.864,4.633 16.9,9.233c2.433,3.679 3.626,7.595 3.606,11.503l0.002,0c0,10.739 1.817,18.55 -2.512,26.461m-83.818,-308.391c-6.541,0 -12.618,-4.888 -13.572,-10.916c-0.955,-6.029 3.573,-10.917 10.113,-10.917c6.542,0 12.617,4.888 13.574,10.917c0.954,6.028 -3.574,10.916 -10.115,10.916m-10.013,19.577c-13.641,0 -26.315,-10.194 -28.307,-22.769c-1.206,-7.62 1.785,-14.364 7.365,-18.498c-2.937,3.947 -4.277,9.02 -3.4,14.554c1.992,12.575 14.666,22.771 28.307,22.771c5.377,0 10.1,-1.585 13.73,-4.275c-3.736,5.022 -10.057,8.217 -17.695,8.217m-37.525,34.069c6.54,0 11.542,-4.631 11.173,-10.346c-0.371,-5.714 -5.975,-10.347 -12.515,-10.347c-6.541,0 -11.543,4.633 -11.172,10.347c0.37,5.715 5.972,10.346 12.514,10.346m0.681,10.523c-13.191,0 -24.492,-9.343 -25.239,-20.869c-0.747,-11.525 9.342,-20.867 22.534,-20.867c8.484,0 16.185,3.864 20.801,9.687l1.178,-13.871c3.471,1.442 7.237,2.253 11.079,2.253c1.823,0 3.57,-0.184 5.225,-0.529l-11.356,101.26l-9.283,7.432c13.73,-4.814 28.491,-7.432 43.866,-7.432c15.775,0 30.907,2.759 44.938,7.815l-5.993,-85.748l22.849,0l-12.026,9.049l14.439,85.447c15.928,8.834 29.847,20.85 40.897,35.192c-4.583,-11.797 -11.521,-22.188 -20.658,-31.267l-9.685,-138.543l22.848,0l-12.026,9.048l29.773,176.183c6.608,11.625 11.513,24.345 14.369,37.822c-25.506,-14.387 -72.118,-22.32 -125.402,-19.247c-40.205,2.318 -76.612,10.462 -103.018,21.766c26.41,-8.311 60.925,-13.345 98.695,-13.345c83.045,0 150.366,24.33 150.366,54.342c0,22.146 -36.662,41.196 -89.247,49.661c-6.868,4.45 -15.862,7.45 -25.752,8.453c-14.188,1.438 -28.265,-0.651 -42.61,0.804c-12.926,1.31 -25.699,-1.337 -34.868,-6.74c-20.319,-2.138 -38.857,-5.785 -54.632,-10.581c9.224,5.24 19.107,9.325 29.432,12.128c53.658,14.564 110.227,14.564 163.883,0l3.772,-1.023c-6.515,6.126 -11.062,14.317 -12.62,23.564l-1.481,8.779c-11.648,-5.169 -24.03,-8.487 -36.702,-9.834c-21.373,-2.273 -41.773,9.505 -50.491,29.152l-5.524,12.447c-11.729,-14.423 -31.39,-19.691 -48.758,-13.065l-6.148,2.345c-0.984,-15.844 -9.338,-30.312 -22.567,-39.087l-9.309,-6.175c11.862,13.476 11.862,33.669 0,47.145c-13.538,15.379 -19.117,36.2 -15.083,56.288l2.483,12.364c4.961,-22.32 22.393,-39.752 44.712,-44.713c22.923,-5.095 46.503,5.273 58.243,25.609c11.742,20.337 8.931,45.939 -6.943,63.244l-8.242,8.983c30.218,-8.81 48.141,-39.852 40.66,-70.426l-5.47,-22.368c-3.022,-18.884 5.92,-37.674 22.483,-47.237c16.562,-9.562 37.308,-7.912 52.151,4.147l7.53,6.119c-6.441,-16.245 -1.471,-34.793 12.23,-45.642l8.967,-7.101c-6.367,14.89 -6.367,31.735 0,46.626l4.063,9.501c6.691,15.646 7.775,31.089 3.335,47.518c-16.322,60.4 -62.076,45.748 -45.786,114.033c-19.844,-22.372 -19.844,-56.043 0,-78.414c12.215,-13.77 17.231,-32.487 13.536,-50.52c-2.208,-10.785 -10.214,-19.456 -20.788,-22.516c-10.574,-3.061 -21.974,-0.006 -29.602,7.932c-7.627,7.938 -10.225,19.45 -6.746,29.894c4.94,14.831 4.94,30.865 0,45.696l-3.571,10.715c-7.334,22.02 -21.943,38.21 -43.096,47.763c-7.561,3.414 -14.099,9.145 -18.478,16.729c-9.319,16.143 -6.474,36.555 6.905,49.532l13.195,12.798c-24.672,-6.197 -44.049,-25.273 -50.633,-49.843c-6.583,-24.571 0.66,-50.78 18.927,-68.483c12.265,-11.886 14.129,-30.9 4.406,-44.942c-9.723,-14.042 -28.178,-18.987 -43.619,-11.688c-15.441,7.299 -23.334,24.698 -18.656,41.125c5.347,18.77 5.347,38.659 0,57.429l-3.835,13.467c-0.212,-26.812 -7.263,-53.128 -20.487,-76.454c-15.96,-28.154 -15.96,-62.622 0,-90.775c10.16,-17.922 10.16,-39.864 0,-57.787l-11.701,-20.639l0.006,-0.002c-11.607,-7.708 -18.205,-16.543 -18.205,-25.935c0,-9.373 6.567,-18.192 18.129,-25.89c3.129,-42 25.82,-78.548 58.991,-100.569l-9.162,-71.244c1.881,0.389 3.831,0.597 5.824,0.597c2.43,0 4.757,-0.307 6.938,-0.877l-0.356,0.001c-13.643,0 -25.329,-9.663 -26.101,-21.58c-0.468,-7.22 3.178,-13.612 9.157,-17.531c-3.318,3.74 -5.15,8.549 -4.81,13.795c0.774,11.917 12.459,21.579 26.101,21.579c5.376,0 10.253,-1.501 14.143,-4.049c-4.124,4.645 -10.543,7.642 -17.955,7.78l4.706,60.358l-3.226,7.856c6.01,-3.597 12.328,-6.734 18.907,-9.355l6.116,-71.983c-4.035,3.434 -9.589,5.534 -15.842,5.534m48.615,-53.068c13.192,0 22.325,-9.857 20.399,-22.017c-1.925,-12.161 -14.182,-22.019 -27.374,-22.019c-13.192,0 -22.325,9.858 -20.399,22.019c1.926,12.16 14.182,22.017 27.374,22.017" id="path3574" fill-rule="evenodd" fill="#ffff00"/>
  </g>
  <text stroke="null" transform="matrix(1,0,0,2.1077125226973976,0,-612.8043385529617) " xml:space="preserve" text-anchor="start" font-family="Helvetica, Arial, sans-serif" font-size="170" id="svg_3" y="546.90625" x="332" stroke-width="0" fill="#ffff00">Кухня выходного дня</text>
  <g id="svg_53" transform="matrix(0.8006791710456995,0,0,-0.6139157313035165,110.5268362616602,599.5477564357095) ">
   <g id="svg_51">
    <path id="svg_5" d="m2231.754342,-23.448659l3.677,0c1.135,0 2.026,0.106 2.672,0.318c0.646,0.212 1.161,0.51 1.545,0.893c0.54,0.541 0.961,1.269 1.262,2.182c0.302,0.914 0.453,2.022 0.453,3.322c0,1.804 -0.295,3.19 -0.887,4.159c-0.591,0.967 -1.31,1.617 -2.155,1.946c-0.612,0.235 -1.594,0.352 -2.949,0.352l-3.618,0l0,-13.172zm-2.282,-2.031l0,17.235l5.932,0c1.338,0 2.36,-0.082 3.065,-0.247c0.986,-0.228 1.828,-0.639 2.525,-1.235c0.908,-0.767 1.587,-1.749 2.037,-2.944c0.451,-1.195 0.676,-2.562 0.676,-4.098c0,-1.308 -0.153,-2.469 -0.458,-3.479c-0.305,-1.011 -0.697,-1.848 -1.175,-2.51c-0.477,-0.663 -1,-1.184 -1.568,-1.564c-0.567,-0.38 -1.252,-0.668 -2.055,-0.864c-0.802,-0.196 -1.724,-0.294 -2.766,-0.294l-6.213,0z" fill-rule="nonzero" fill="#ffff00"/>
    <path id="svg_6" d="m2248.159342,-18.041659l6.969,0c-0.094,1.052 -0.36,1.842 -0.799,2.368c-0.674,0.817 -1.548,1.225 -2.621,1.225c-0.971,0 -1.788,-0.326 -2.45,-0.978c-0.662,-0.651 -1.028,-1.523 -1.099,-2.615m6.946,-3.407l2.187,-0.281c-0.345,-1.277 -0.983,-2.268 -1.915,-2.973c-0.931,-0.705 -2.122,-1.058 -3.571,-1.058c-1.824,0 -3.272,0.562 -4.34,1.687c-1.069,1.124 -1.603,2.701 -1.603,4.731c0,2.1 0.54,3.729 1.621,4.889c1.08,1.16 2.482,1.74 4.205,1.74c1.668,0 3.03,-0.568 4.088,-1.704c1.057,-1.136 1.586,-2.735 1.586,-4.794c0,-0.126 -0.004,-0.315 -0.012,-0.565l-9.317,0c0.079,-1.373 0.467,-2.425 1.165,-3.155c0.698,-0.729 1.569,-1.095 2.612,-1.095c0.776,0 1.439,0.205 1.988,0.616c0.549,0.41 0.984,1.064 1.306,1.962" fill-rule="nonzero" fill="#ffff00"/>
    <path id="svg_7" d="m2259.102342,-21.744659l2.094,0.328c0.118,-0.842 0.445,-1.489 0.983,-1.937c0.538,-0.448 1.289,-0.673 2.254,-0.673c0.973,0 1.695,0.199 2.166,0.595c0.471,0.397 0.706,0.861 0.706,1.396c0,0.479 -0.207,0.855 -0.62,1.13c-0.289,0.189 -1.01,0.428 -2.163,0.719c-1.554,0.392 -2.631,0.731 -3.231,1.016c-0.6,0.286 -1.055,0.681 -1.365,1.187c-0.31,0.505 -0.464,1.063 -0.464,1.674c0,0.557 0.127,1.071 0.382,1.545c0.254,0.475 0.602,0.868 1.04,1.182c0.329,0.242 0.778,0.448 1.347,0.616c0.568,0.169 1.177,0.253 1.828,0.253c0.979,0 1.84,-0.141 2.58,-0.423c0.741,-0.282 1.288,-0.664 1.641,-1.145c0.352,-0.482 0.595,-1.125 0.729,-1.932l-2.063,-0.281c-0.094,0.642 -0.367,1.144 -0.818,1.505c-0.451,0.361 -1.089,0.541 -1.912,0.541c-0.974,0 -1.668,-0.161 -2.084,-0.483c-0.416,-0.321 -0.623,-0.698 -0.623,-1.13c0,-0.275 0.086,-0.523 0.259,-0.742c0.172,-0.228 0.443,-0.417 0.811,-0.566c0.212,-0.079 0.836,-0.259 1.872,-0.541c1.498,-0.401 2.543,-0.728 3.133,-0.982c0.59,-0.255 1.053,-0.625 1.389,-1.11c0.336,-0.487 0.504,-1.089 0.504,-1.81c0,-0.705 -0.206,-1.369 -0.617,-1.992c-0.412,-0.622 -1.006,-1.104 -1.783,-1.445c-0.776,-0.341 -1.654,-0.511 -2.634,-0.511c-1.623,0 -2.861,0.338 -3.711,1.013c-0.852,0.674 -1.395,1.675 -1.63,3.003" fill-rule="nonzero" fill="#ffff00"/>
    <path id="svg_8" d="m2271.991342,-12.994659l2.109,0l0,-12.484l-2.109,0l0,12.484zm0,4.75l2.109,0l0,-2.438l-2.109,0l0,2.438z" fill-rule="nonzero" fill="#ffff00"/>
    <path id="svg_9" d="m2278.691342,-19.014659c0,-1.639 0.325,-2.834 0.974,-3.586c0.65,-0.753 1.464,-1.129 2.442,-1.129c0.97,0 1.784,0.374 2.442,1.123c0.657,0.748 0.985,1.922 0.985,3.522c0,1.528 -0.338,2.68 -1.015,3.457c-0.677,0.775 -1.492,1.164 -2.448,1.164c-0.938,0 -1.737,-0.383 -2.394,-1.147c-0.657,-0.764 -0.986,-1.899 -0.986,-3.404m-1.75,-7.496l2.062,-0.313c0.086,-0.632 0.325,-1.093 0.716,-1.382c0.524,-0.391 1.24,-0.586 2.147,-0.586c0.978,0 1.733,0.196 2.265,0.588c0.531,0.392 0.892,0.941 1.079,1.647c0.11,0.432 0.16,1.337 0.153,2.718c-0.924,-1.094 -2.075,-1.641 -3.453,-1.641c-1.715,0 -3.043,0.619 -3.982,1.858c-0.94,1.238 -1.409,2.722 -1.409,4.455c0,1.191 0.216,2.29 0.646,3.297c0.431,1.006 1.056,1.785 1.874,2.333c0.819,0.548 1.78,0.823 2.885,0.823c1.472,0 2.687,-0.594 3.642,-1.781l0,1.5l1.953,0l0,-10.789c0,-1.944 -0.198,-3.321 -0.593,-4.131c-0.396,-0.811 -1.023,-1.451 -1.881,-1.922c-0.858,-0.47 -1.914,-0.705 -3.168,-0.705c-1.488,0 -2.691,0.335 -3.608,1.005c-0.917,0.67 -1.36,1.678 -1.328,3.026" fill-rule="nonzero" fill="#ffff00"/>
    <path id="svg_10" d="m2290.717342,-25.479659l0,12.485l1.89,0l0,-1.775c0.916,1.37 2.24,2.056 3.97,2.056c0.752,0 1.444,-0.135 2.074,-0.405c0.63,-0.271 1.102,-0.625 1.415,-1.065c0.313,-0.438 0.533,-0.96 0.658,-1.563c0.078,-0.392 0.118,-1.077 0.118,-2.057l0,-7.676l-2.11,0l0,7.598c0,0.862 -0.082,1.507 -0.246,1.934c-0.165,0.427 -0.456,0.769 -0.875,1.023c-0.419,0.256 -0.911,0.383 -1.474,0.383c-0.9,0 -1.677,-0.286 -2.331,-0.859c-0.653,-0.572 -0.98,-1.658 -0.98,-3.257l0,-6.822l-2.109,0z" fill-rule="nonzero" fill="#ffff00"/>
    <path id="svg_11" d="m2305.675342,-18.041659l6.969,0c-0.094,1.052 -0.361,1.842 -0.799,2.368c-0.674,0.817 -1.548,1.225 -2.621,1.225c-0.972,0 -1.788,-0.326 -2.45,-0.978c-0.662,-0.651 -1.029,-1.523 -1.099,-2.615m6.945,-3.407l2.188,-0.281c-0.345,-1.277 -0.984,-2.268 -1.915,-2.973c-0.932,-0.705 -2.122,-1.058 -3.571,-1.058c-1.825,0 -3.272,0.562 -4.34,1.687c-1.07,1.124 -1.604,2.701 -1.604,4.731c0,2.1 0.54,3.729 1.621,4.889c1.081,1.16 2.483,1.74 4.205,1.74c1.668,0 3.031,-0.568 4.088,-1.704c1.057,-1.136 1.586,-2.735 1.586,-4.794c0,-0.126 -0.004,-0.315 -0.012,-0.565l-9.316,0c0.078,-1.373 0.467,-2.425 1.165,-3.155c0.697,-0.729 1.568,-1.095 2.611,-1.095c0.777,0 1.439,0.205 1.989,0.616c0.548,0.41 0.984,1.064 1.305,1.962" fill-rule="nonzero" fill="#ffff00"/>
    <path id="svg_12" d="m2318.868342,-19.250659c0,-1.6 0.337,-2.795 1.01,-3.588c0.674,-0.791 1.469,-1.188 2.385,-1.188c0.924,0 1.709,0.378 2.355,1.135c0.646,0.757 0.969,1.911 0.969,3.464c0,1.71 -0.329,2.964 -0.987,3.765c-0.657,0.798 -1.468,1.199 -2.431,1.199c-0.94,0 -1.724,-0.385 -2.355,-1.152c-0.63,-0.77 -0.946,-1.981 -0.946,-3.635m6.688,-6.229l0,1.571c-0.791,-1.235 -1.955,-1.852 -3.49,-1.852c-0.995,0 -1.91,0.274 -2.744,0.822c-0.834,0.549 -1.48,1.315 -1.938,2.299c-0.458,0.983 -0.688,2.113 -0.688,3.391c0,1.246 0.208,2.376 0.624,3.39c0.415,1.015 1.037,1.793 1.868,2.334c0.83,0.54 1.758,0.811 2.784,0.811c0.752,0 1.422,-0.158 2.01,-0.476c0.587,-0.317 1.065,-0.73 1.433,-1.239l0,6.184l2.11,0l0,-17.235l-1.969,0z" fill-rule="nonzero" fill="#ffff00"/>
    <path id="svg_13" d="m2345.495342,-19.213659c-0.767,-0.314 -1.918,-0.58 -3.451,-0.799c-0.869,-0.126 -1.484,-0.268 -1.844,-0.424c-0.36,-0.156 -0.637,-0.386 -0.833,-0.687c-0.196,-0.302 -0.294,-0.637 -0.294,-1.006c0,-0.565 0.213,-1.034 0.639,-1.41c0.426,-0.377 1.049,-0.565 1.869,-0.565c0.813,0 1.535,0.178 2.168,0.535c0.633,0.357 1.098,0.844 1.395,1.463c0.226,0.479 0.34,1.184 0.34,2.117l0.011,0.776zm0.172,-4.719c-0.786,-0.668 -1.541,-1.141 -2.263,-1.415c-0.723,-0.275 -1.499,-0.413 -2.327,-0.413c-1.367,0 -2.418,0.335 -3.152,1.005c-0.734,0.67 -1.102,1.526 -1.102,2.567c0,0.612 0.139,1.17 0.416,1.675c0.278,0.506 0.641,0.911 1.09,1.217c0.45,0.306 0.955,0.536 1.518,0.693c0.414,0.11 1.039,0.216 1.875,0.318c1.703,0.203 2.957,0.446 3.762,0.728c0.007,0.29 0.011,0.475 0.011,0.553c0,0.863 -0.199,1.471 -0.598,1.823c-0.539,0.479 -1.341,0.718 -2.404,0.718c-0.992,0 -1.725,-0.175 -2.198,-0.524c-0.474,-0.348 -0.823,-0.965 -1.05,-1.851l-2.062,0.281c0.188,0.886 0.497,1.601 0.928,2.146c0.43,0.544 1.052,0.963 1.867,1.256c0.814,0.295 1.758,0.442 2.831,0.442c1.064,0 1.929,-0.125 2.596,-0.376c0.665,-0.251 1.154,-0.567 1.467,-0.946c0.314,-0.38 0.533,-0.861 0.658,-1.44c0.071,-0.361 0.106,-1.012 0.106,-1.951l0,-2.822c0,-1.967 0.045,-3.211 0.136,-3.733c0.09,-0.52 0.268,-1.019 0.536,-1.498l-2.203,0c-0.227,0.442 -0.373,0.957 -0.438,1.547" fill-rule="nonzero" fill="#ffff00"/>
    <path id="svg_14" d="m2350.923342,-25.479659l0,12.485l1.89,0l0,-1.775c0.916,1.37 2.24,2.056 3.97,2.056c0.752,0 1.444,-0.135 2.074,-0.405c0.631,-0.271 1.102,-0.625 1.415,-1.065c0.313,-0.438 0.533,-0.96 0.658,-1.563c0.078,-0.392 0.118,-1.077 0.118,-2.057l0,-7.676l-2.11,0l0,7.598c0,0.862 -0.082,1.507 -0.246,1.934c-0.165,0.427 -0.456,0.769 -0.875,1.023c-0.419,0.256 -0.911,0.383 -1.474,0.383c-0.9,0 -1.677,-0.286 -2.331,-0.859c-0.653,-0.572 -0.98,-1.658 -0.98,-3.257l0,-6.822l-2.109,0z" fill-rule="nonzero" fill="#ffff00"/>
    <path id="svg_15" d="m2365.694342,-19.250659c0,-1.6 0.336,-2.795 1.009,-3.588c0.674,-0.791 1.469,-1.188 2.385,-1.188c0.924,0 1.709,0.378 2.356,1.135c0.645,0.757 0.968,1.911 0.968,3.464c0,1.71 -0.329,2.964 -0.986,3.765c-0.658,0.798 -1.469,1.199 -2.432,1.199c-0.94,0 -1.724,-0.385 -2.355,-1.152c-0.63,-0.77 -0.945,-1.981 -0.945,-3.635m6.687,-6.229l0,1.571c-0.791,-1.235 -1.955,-1.852 -3.49,-1.852c-0.994,0 -1.909,0.274 -2.743,0.822c-0.834,0.549 -1.481,1.315 -1.939,2.299c-0.458,0.983 -0.687,2.113 -0.687,3.391c0,1.246 0.207,2.376 0.623,3.39c0.415,1.015 1.037,1.793 1.868,2.334c0.83,0.54 1.758,0.811 2.785,0.811c0.752,0 1.421,-0.158 2.009,-0.476c0.587,-0.317 1.065,-0.73 1.433,-1.239l0,6.184l2.11,0l0,-17.235l-1.969,0z" fill-rule="nonzero" fill="#ffff00"/>
    <path id="svg_16" d="m2384.337342,-25.479659l0,12.485l1.89,0l0,-1.895c0.487,0.886 0.937,1.471 1.349,1.752c0.413,0.283 0.867,0.424 1.362,0.424c0.715,0 1.441,-0.228 2.18,-0.682l-0.74,-1.957c-0.516,0.301 -1.033,0.451 -1.549,0.451c-0.461,0 -0.876,-0.138 -1.243,-0.417c-0.368,-0.278 -0.63,-0.664 -0.787,-1.158c-0.235,-0.752 -0.353,-1.575 -0.353,-2.468l0,-6.535l-2.109,0z" fill-rule="nonzero" fill="#ffff00"/>
    <path id="svg_17" d="m2393.958342,-18.041659l6.968,0c-0.094,1.052 -0.36,1.842 -0.799,2.368c-0.674,0.817 -1.547,1.225 -2.62,1.225c-0.972,0 -1.789,-0.326 -2.451,-0.978c-0.662,-0.651 -1.028,-1.523 -1.098,-2.615m6.945,-3.407l2.187,-0.281c-0.345,-1.277 -0.982,-2.268 -1.914,-2.973c-0.933,-0.705 -2.123,-1.058 -3.571,-1.058c-1.825,0 -3.272,0.562 -4.341,1.687c-1.068,1.124 -1.603,2.701 -1.603,4.731c0,2.1 0.54,3.729 1.621,4.889c1.081,1.16 2.482,1.74 4.206,1.74c1.667,0 3.03,-0.568 4.087,-1.704c1.057,-1.136 1.586,-2.735 1.586,-4.794c0,-0.126 -0.004,-0.315 -0.012,-0.565l-9.316,0c0.078,-1.373 0.466,-2.425 1.164,-3.155c0.699,-0.729 1.569,-1.095 2.612,-1.095c0.776,0 1.439,0.205 1.988,0.616c0.549,0.41 0.984,1.064 1.306,1.962" fill-rule="nonzero" fill="#ffff00"/>
    <path id="svg_18" d="m2405.713342,-8.244659l2.109,0l0,-17.234l-2.109,0l0,17.234z" fill-rule="nonzero" fill="#ffff00"/>
    <path id="svg_19" d="m2412.683342,-18.041659l6.969,0c-0.094,1.052 -0.361,1.842 -0.799,2.368c-0.674,0.817 -1.547,1.225 -2.62,1.225c-0.972,0 -1.789,-0.326 -2.451,-0.978c-0.662,-0.651 -1.028,-1.523 -1.099,-2.615m6.946,-3.407l2.187,-0.281c-0.345,-1.277 -0.983,-2.268 -1.915,-2.973c-0.932,-0.705 -2.122,-1.058 -3.571,-1.058c-1.824,0 -3.271,0.562 -4.341,1.687c-1.068,1.124 -1.603,2.701 -1.603,4.731c0,2.1 0.541,3.729 1.622,4.889c1.08,1.16 2.482,1.74 4.205,1.74c1.668,0 3.03,-0.568 4.088,-1.704c1.057,-1.136 1.585,-2.735 1.585,-4.794c0,-0.126 -0.003,-0.315 -0.011,-0.565l-9.317,0c0.079,-1.373 0.467,-2.425 1.165,-3.155c0.698,-0.729 1.568,-1.095 2.612,-1.095c0.776,0 1.439,0.205 1.987,0.616c0.549,0.41 0.985,1.064 1.307,1.962" fill-rule="nonzero" fill="#ffff00"/>
    <path id="svg_20" d="m2432.439342,-19.213659c-0.767,-0.314 -1.918,-0.58 -3.452,-0.799c-0.869,-0.126 -1.483,-0.268 -1.843,-0.424c-0.361,-0.156 -0.638,-0.386 -0.834,-0.687c-0.196,-0.302 -0.293,-0.637 -0.293,-1.006c0,-0.565 0.213,-1.034 0.638,-1.41c0.426,-0.377 1.049,-0.565 1.87,-0.565c0.812,0 1.535,0.178 2.168,0.535c0.632,0.357 1.097,0.844 1.394,1.463c0.227,0.479 0.34,1.184 0.34,2.117l0.012,0.776zm0.172,-4.719c-0.787,-0.668 -1.541,-1.141 -2.264,-1.415c-0.723,-0.275 -1.498,-0.413 -2.326,-0.413c-1.367,0 -2.418,0.335 -3.153,1.005c-0.734,0.67 -1.101,1.526 -1.101,2.567c0,0.612 0.138,1.17 0.416,1.675c0.277,0.506 0.64,0.911 1.09,1.217c0.449,0.306 0.955,0.536 1.517,0.693c0.414,0.11 1.039,0.216 1.875,0.318c1.703,0.203 2.957,0.446 3.762,0.728c0.008,0.29 0.012,0.475 0.012,0.553c0,0.863 -0.2,1.471 -0.598,1.823c-0.54,0.479 -1.341,0.718 -2.404,0.718c-0.993,0 -1.726,-0.175 -2.199,-0.524c-0.473,-0.348 -0.823,-0.965 -1.049,-1.851l-2.063,0.281c0.188,0.886 0.497,1.601 0.928,2.146c0.431,0.544 1.053,0.963 1.867,1.256c0.815,0.295 1.758,0.442 2.831,0.442c1.065,0 1.93,-0.125 2.596,-0.376c0.665,-0.251 1.155,-0.567 1.468,-0.946c0.313,-0.38 0.532,-0.861 0.658,-1.44c0.07,-0.361 0.105,-1.012 0.105,-1.951l0,-2.822c0,-1.967 0.045,-3.211 0.136,-3.733c0.09,-0.52 0.269,-1.019 0.536,-1.498l-2.203,0c-0.227,0.442 -0.373,0.957 -0.437,1.547" fill-rule="nonzero" fill="#ffff00"/>
    <path id="svg_21" d="m2437.007342,-21.744659l2.093,0.328c0.118,-0.842 0.446,-1.489 0.983,-1.937c0.538,-0.448 1.289,-0.673 2.254,-0.673c0.974,0 1.695,0.199 2.166,0.595c0.471,0.397 0.707,0.861 0.707,1.396c0,0.479 -0.207,0.855 -0.621,1.13c-0.289,0.189 -1.01,0.428 -2.163,0.719c-1.554,0.392 -2.631,0.731 -3.23,1.016c-0.601,0.286 -1.056,0.681 -1.366,1.187c-0.309,0.505 -0.464,1.063 -0.464,1.674c0,0.557 0.127,1.071 0.382,1.545c0.255,0.475 0.602,0.868 1.04,1.182c0.329,0.242 0.779,0.448 1.347,0.616c0.568,0.169 1.178,0.253 1.828,0.253c0.98,0 1.84,-0.141 2.581,-0.423c0.74,-0.282 1.287,-0.664 1.64,-1.145c0.352,-0.482 0.596,-1.125 0.729,-1.932l-2.063,-0.281c-0.094,0.642 -0.366,1.144 -0.818,1.505c-0.451,0.361 -1.088,0.541 -1.912,0.541c-0.973,0 -1.668,-0.161 -2.084,-0.483c-0.416,-0.321 -0.623,-0.698 -0.623,-1.13c0,-0.275 0.086,-0.523 0.259,-0.742c0.172,-0.228 0.443,-0.417 0.812,-0.566c0.212,-0.079 0.836,-0.259 1.871,-0.541c1.499,-0.401 2.543,-0.728 3.133,-0.982c0.59,-0.255 1.053,-0.625 1.389,-1.11c0.336,-0.487 0.505,-1.089 0.505,-1.81c0,-0.705 -0.206,-1.369 -0.618,-1.992c-0.412,-0.622 -1.006,-1.104 -1.782,-1.445c-0.777,-0.341 -1.655,-0.511 -2.635,-0.511c-1.623,0 -2.86,0.338 -3.711,1.013c-0.852,0.674 -1.395,1.675 -1.629,3.003" fill-rule="nonzero" fill="#ffff00"/>
    <path id="svg_22" d="m2451.474342,-18.041659l6.969,0c-0.094,1.052 -0.361,1.842 -0.799,2.368c-0.674,0.817 -1.548,1.225 -2.621,1.225c-0.972,0 -1.788,-0.326 -2.451,-0.978c-0.662,-0.651 -1.028,-1.523 -1.098,-2.615m6.945,-3.407l2.188,-0.281c-0.345,-1.277 -0.984,-2.268 -1.915,-2.973c-0.932,-0.705 -2.122,-1.058 -3.572,-1.058c-1.824,0 -3.271,0.562 -4.34,1.687c-1.069,1.124 -1.603,2.701 -1.603,4.731c0,2.1 0.54,3.729 1.621,4.889c1.08,1.16 2.482,1.74 4.205,1.74c1.668,0 3.031,-0.568 4.088,-1.704c1.057,-1.136 1.586,-2.735 1.586,-4.794c0,-0.126 -0.004,-0.315 -0.012,-0.565l-9.316,0c0.078,-1.373 0.467,-2.425 1.164,-3.155c0.698,-0.729 1.569,-1.095 2.612,-1.095c0.777,0 1.439,0.205 1.988,0.616c0.549,0.41 0.984,1.064 1.306,1.962" fill-rule="nonzero" fill="#ffff00"/>
    <path id="svg_23" d="m2464.666342,-19.250659c0,-1.6 0.337,-2.795 1.01,-3.588c0.674,-0.791 1.469,-1.188 2.385,-1.188c0.924,0 1.709,0.378 2.355,1.135c0.646,0.757 0.969,1.911 0.969,3.464c0,1.71 -0.329,2.964 -0.987,3.765c-0.658,0.798 -1.468,1.199 -2.431,1.199c-0.94,0 -1.725,-0.385 -2.355,-1.152c-0.63,-0.77 -0.946,-1.981 -0.946,-3.635m6.688,-6.229l0,1.571c-0.791,-1.235 -1.954,-1.852 -3.49,-1.852c-0.995,0 -1.91,0.274 -2.744,0.822c-0.834,0.549 -1.48,1.315 -1.938,2.299c-0.458,0.983 -0.688,2.113 -0.688,3.391c0,1.246 0.208,2.376 0.623,3.39c0.415,1.015 1.038,1.793 1.869,2.334c0.83,0.54 1.757,0.811 2.785,0.811c0.752,0 1.422,-0.158 2.009,-0.476c0.586,-0.317 1.065,-0.73 1.433,-1.239l0,6.184l2.109,0l0,-17.235l-1.968,0z" fill-rule="nonzero" fill="#ffff00"/>
    <path id="svg_24" d="m2483.341342,-12.994659l2.109,0l0,-12.484l-2.109,0l0,12.484zm0,4.75l2.109,0l0,-2.438l-2.109,0l0,2.438z" fill-rule="nonzero" fill="#ffff00"/>
    <path id="svg_25" d="m2488.686342,-25.479659l0,12.485l1.89,0l0,-1.775c0.916,1.37 2.24,2.056 3.971,2.056c0.751,0 1.442,-0.135 2.073,-0.405c0.63,-0.271 1.102,-0.625 1.415,-1.065c0.314,-0.438 0.533,-0.96 0.659,-1.563c0.078,-0.392 0.117,-1.077 0.117,-2.057l0,-7.676l-2.11,0l0,7.598c0,0.862 -0.082,1.507 -0.247,1.934c-0.164,0.427 -0.455,0.769 -0.874,1.023c-0.419,0.256 -0.91,0.383 -1.473,0.383c-0.901,0 -1.678,-0.286 -2.331,-0.859c-0.654,-0.572 -0.981,-1.658 -0.981,-3.257l0,-6.822l-2.109,0z" fill-rule="nonzero" fill="#ffff00"/>
    <path id="svg_26" d="m2510.656342,-19.309659c0,-1.607 0.326,-2.796 0.975,-3.564c0.649,-0.769 1.436,-1.153 2.359,-1.153c0.939,0 1.744,0.399 2.413,1.194c0.668,0.797 1.003,2.029 1.003,3.699c0,1.592 -0.327,2.783 -0.98,3.576c-0.653,0.791 -1.435,1.188 -2.342,1.188c-0.899,0 -1.696,-0.422 -2.388,-1.265c-0.693,-0.843 -1.04,-2.067 -1.04,-3.675m-1.906,-10.951l0,17.266l1.922,0l0,-1.622c0.454,0.633 0.968,1.11 1.539,1.427c0.571,0.318 1.265,0.476 2.08,0.476c1.066,0 2.005,-0.275 2.82,-0.822c0.814,-0.549 1.429,-1.324 1.844,-2.323c0.415,-0.999 0.623,-2.093 0.623,-3.285c0,-1.277 -0.229,-2.427 -0.687,-3.449c-0.458,-1.023 -1.124,-1.807 -1.997,-2.352c-0.874,-0.544 -1.793,-0.816 -2.756,-0.816c-0.705,0 -1.338,0.148 -1.898,0.445c-0.56,0.297 -1.02,0.672 -1.38,1.125l0,-6.07l-2.11,0z" fill-rule="nonzero" fill="#ffff00"/>
    <path id="svg_27" d="m2530.287342,-25.479659l0,1.841c-0.968,-1.415 -2.285,-2.122 -3.949,-2.122c-0.734,0 -1.42,0.141 -2.057,0.423c-0.636,0.282 -1.109,0.637 -1.418,1.064c-0.308,0.427 -0.525,0.95 -0.65,1.57c-0.086,0.415 -0.129,1.073 -0.129,1.974l0,7.735l2.11,0l0,-6.92c0,-1.105 0.043,-1.848 0.128,-2.233c0.133,-0.555 0.415,-0.992 0.845,-1.309c0.43,-0.318 0.961,-0.476 1.595,-0.476c0.633,0 1.227,0.162 1.782,0.487c0.555,0.326 0.947,0.768 1.179,1.328c0.23,0.56 0.346,1.373 0.346,2.438l0,6.685l2.108,0l0,-12.485l-1.89,0z" fill-rule="nonzero" fill="#ffff00"/>
    <path id="svg_28" d="m2537.417342,-19.143659c0,-1.498 0.204,-2.58 0.612,-3.247c0.667,-1.091 1.569,-1.636 2.708,-1.636c0.926,0 1.727,0.403 2.401,1.206c0.675,0.804 1.013,2.002 1.013,3.595c0,1.632 -0.324,2.836 -0.972,3.612c-0.647,0.777 -1.43,1.165 -2.348,1.165c-0.926,0 -1.727,-0.402 -2.402,-1.206c-0.674,-0.803 -1.012,-1.966 -1.012,-3.489m0.031,-6.336l-1.953,0l0,17.235l2.109,0l0,-6.145c0.895,1.117 2.035,1.676 3.424,1.676c0.769,0 1.496,-0.154 2.183,-0.465c0.686,-0.309 1.251,-0.744 1.694,-1.305c0.443,-0.559 0.791,-1.235 1.041,-2.027c0.252,-0.791 0.377,-1.638 0.377,-2.539c0,-2.139 -0.529,-3.792 -1.589,-4.96c-1.059,-1.167 -2.331,-1.751 -3.813,-1.751c-1.476,0 -2.633,0.613 -3.473,1.84l0,-1.559z" fill-rule="nonzero" fill="#ffff00"/>
    <path id="svg_29" d="m2548.844342,-8.244659l2.109,0l0,-17.234l-2.109,0l0,17.234z" fill-rule="nonzero" fill="#ffff00"/>
    <path id="svg_30" d="m2554.236342,-12.994659l2.109,0l0,-12.484l-2.109,0l0,12.484zm0,4.75l2.109,0l0,-2.438l-2.109,0l0,2.438z" fill-rule="nonzero" fill="#ffff00"/>
    <path id="svg_31" d="m2567.722342,-20.901659l2.079,-0.281c-0.228,-1.432 -0.81,-2.553 -1.747,-3.363c-0.936,-0.811 -2.087,-1.215 -3.45,-1.215c-1.709,0 -3.082,0.559 -4.121,1.675c-1.039,1.116 -1.557,2.717 -1.557,4.802c0,1.347 0.223,2.527 0.669,3.537c0.447,1.011 1.126,1.769 2.039,2.275c0.914,0.505 1.907,0.758 2.98,0.758c1.355,0 2.465,-0.344 3.326,-1.029c0.861,-0.687 1.414,-1.662 1.657,-2.924l-2.062,-0.313c-0.196,0.84 -0.542,1.472 -1.04,1.896c-0.497,0.424 -1.098,0.635 -1.803,0.635c-1.065,0 -1.931,-0.382 -2.596,-1.147c-0.666,-0.765 -0.999,-1.975 -0.999,-3.63c0,-1.679 0.322,-2.898 0.965,-3.659c0.644,-0.761 1.483,-1.142 2.519,-1.142c0.831,0 1.525,0.256 2.082,0.767c0.557,0.511 0.91,1.297 1.059,2.358" fill-rule="nonzero" fill="#ffff00"/>
    <path id="svg_32" d="m2579.686342,-19.250659c0,-1.6 0.337,-2.795 1.01,-3.588c0.674,-0.791 1.469,-1.188 2.385,-1.188c0.924,0 1.709,0.378 2.355,1.135c0.646,0.757 0.969,1.911 0.969,3.464c0,1.71 -0.329,2.964 -0.986,3.765c-0.659,0.798 -1.469,1.199 -2.432,1.199c-0.939,0 -1.725,-0.385 -2.355,-1.152c-0.63,-0.77 -0.946,-1.981 -0.946,-3.635m6.688,-6.229l0,1.571c-0.791,-1.235 -1.955,-1.852 -3.49,-1.852c-0.995,0 -1.91,0.274 -2.744,0.822c-0.834,0.549 -1.48,1.315 -1.938,2.299c-0.459,0.983 -0.688,2.113 -0.688,3.391c0,1.246 0.207,2.376 0.623,3.39c0.415,1.015 1.038,1.793 1.869,2.334c0.83,0.54 1.758,0.811 2.784,0.811c0.752,0 1.422,-0.158 2.01,-0.476c0.587,-0.317 1.065,-0.73 1.433,-1.239l0,6.184l2.109,0l0,-17.235l-1.968,0z" fill-rule="nonzero" fill="#ffff00"/>
    <path id="svg_33" d="m2593.051342,-19.239659c0,-1.599 0.348,-2.796 1.045,-3.593c0.698,-0.795 1.575,-1.194 2.632,-1.194c1.05,0 1.923,0.401 2.62,1.2c0.698,0.8 1.046,2.019 1.046,3.658c0,1.545 -0.35,2.715 -1.052,3.512c-0.701,0.794 -1.572,1.193 -2.614,1.193c-1.057,0 -1.934,-0.397 -2.632,-1.188c-0.697,-0.793 -1.045,-1.988 -1.045,-3.588m-2.172,0.002c0,2.312 0.641,4.024 1.926,5.137c1.073,0.924 2.38,1.387 3.923,1.387c1.715,0 3.116,-0.563 4.205,-1.687c1.089,-1.125 1.633,-2.678 1.633,-4.661c0,-1.605 -0.241,-2.869 -0.723,-3.79c-0.481,-0.921 -1.182,-1.636 -2.102,-2.145c-0.92,-0.509 -1.924,-0.764 -3.013,-0.764c-1.746,0 -3.158,0.561 -4.234,1.681c-1.077,1.12 -1.615,2.735 -1.615,4.842" fill-rule="nonzero" fill="#ffff00"/>
    <path id="svg_34" d="m2605.049342,-25.479659l0,12.485l1.89,0l0,-1.747c0.392,0.609 0.911,1.1 1.561,1.471c0.649,0.371 1.387,0.557 2.217,0.557c0.922,0 1.679,-0.192 2.27,-0.574c0.59,-0.384 1.007,-0.919 1.249,-1.607c0.988,1.454 2.275,2.181 3.859,2.181c1.24,0 2.193,-0.343 2.86,-1.028c0.667,-0.687 1,-1.743 1,-3.168l0,-8.57l-2.11,0l0,7.868c0,0.847 -0.068,1.456 -0.206,1.83c-0.136,0.372 -0.385,0.671 -0.746,0.899c-0.361,0.227 -0.785,0.341 -1.27,0.341c-0.879,0 -1.609,-0.292 -2.189,-0.876c-0.58,-0.585 -0.87,-1.52 -0.87,-2.806l0,-7.256l-2.109,0l0,8.115c0,0.941 -0.172,1.647 -0.517,2.117c-0.345,0.47 -0.908,0.706 -1.691,0.706c-0.595,0 -1.145,-0.157 -1.651,-0.471c-0.504,-0.313 -0.871,-0.772 -1.097,-1.376c-0.227,-0.603 -0.341,-1.474 -0.341,-2.61l0,-6.481l-2.109,0z" fill-rule="nonzero" fill="#ffff00"/>
    <path id="svg_35" d="m2633.051342,-19.213659c-0.767,-0.314 -1.918,-0.58 -3.453,-0.799c-0.868,-0.126 -1.482,-0.268 -1.842,-0.424c-0.361,-0.156 -0.638,-0.386 -0.833,-0.687c-0.197,-0.302 -0.294,-0.637 -0.294,-1.006c0,-0.565 0.213,-1.034 0.638,-1.41c0.426,-0.377 1.049,-0.565 1.869,-0.565c0.813,0 1.536,0.178 2.168,0.535c0.633,0.357 1.098,0.844 1.395,1.463c0.227,0.479 0.34,1.184 0.34,2.117l0.012,0.776zm0.171,-4.719c-0.786,-0.668 -1.541,-1.141 -2.263,-1.415c-0.723,-0.275 -1.498,-0.413 -2.326,-0.413c-1.368,0 -2.418,0.335 -3.153,1.005c-0.734,0.67 -1.101,1.526 -1.101,2.567c0,0.612 0.138,1.17 0.416,1.675c0.277,0.506 0.64,0.911 1.089,1.217c0.45,0.306 0.956,0.536 1.518,0.693c0.414,0.11 1.039,0.216 1.875,0.318c1.703,0.203 2.957,0.446 3.762,0.728c0.008,0.29 0.012,0.475 0.012,0.553c0,0.863 -0.2,1.471 -0.599,1.823c-0.539,0.479 -1.34,0.718 -2.403,0.718c-0.994,0 -1.726,-0.175 -2.199,-0.524c-0.473,-0.348 -0.823,-0.965 -1.049,-1.851l-2.063,0.281c0.188,0.886 0.497,1.601 0.928,2.146c0.43,0.544 1.052,0.963 1.867,1.256c0.814,0.295 1.759,0.442 2.831,0.442c1.064,0 1.93,-0.125 2.596,-0.376c0.665,-0.251 1.154,-0.567 1.467,-0.946c0.314,-0.38 0.533,-0.861 0.659,-1.44c0.07,-0.361 0.105,-1.012 0.105,-1.951l0,-2.822c0,-1.967 0.045,-3.211 0.136,-3.733c0.09,-0.52 0.268,-1.019 0.536,-1.498l-2.203,0c-0.228,0.442 -0.373,0.957 -0.438,1.547" fill-rule="nonzero" fill="#ffff00"/>
    <path id="svg_36" d="m2638.478342,-12.994659l2.109,0l0,-12.484l-2.109,0l0,12.484zm0,4.75l2.109,0l0,-2.438l-2.109,0l0,2.438z" fill-rule="nonzero" fill="#ffff00"/>
    <path id="svg_37" d="m2643.823342,-25.479659l0,12.485l1.891,0l0,-1.775c0.916,1.37 2.239,2.056 3.97,2.056c0.752,0 1.443,-0.135 2.074,-0.405c0.629,-0.271 1.101,-0.625 1.415,-1.065c0.313,-0.438 0.532,-0.96 0.658,-1.563c0.078,-0.392 0.117,-1.077 0.117,-2.057l0,-7.676l-2.109,0l0,7.598c0,0.862 -0.082,1.507 -0.247,1.934c-0.165,0.427 -0.457,0.769 -0.875,1.023c-0.418,0.256 -0.91,0.383 -1.473,0.383c-0.901,0 -1.678,-0.286 -2.331,-0.859c-0.654,-0.572 -0.981,-1.658 -0.981,-3.257l0,-6.822l-2.109,0z" fill-rule="nonzero" fill="#ffff00"/>
    <path id="svg_38" d="m2665.794342,-19.143659c0,-1.498 0.204,-2.58 0.612,-3.247c0.667,-1.091 1.569,-1.636 2.708,-1.636c0.926,0 1.727,0.403 2.401,1.206c0.675,0.804 1.013,2.002 1.013,3.595c0,1.632 -0.324,2.836 -0.972,3.612c-0.647,0.777 -1.43,1.165 -2.348,1.165c-0.926,0 -1.727,-0.402 -2.402,-1.206c-0.674,-0.803 -1.012,-1.966 -1.012,-3.489m0.031,-6.336l-1.953,0l0,17.235l2.109,0l0,-6.145c0.895,1.117 2.035,1.676 3.424,1.676c0.769,0 1.496,-0.154 2.183,-0.465c0.686,-0.309 1.251,-0.744 1.694,-1.305c0.443,-0.559 0.791,-1.235 1.041,-2.027c0.252,-0.791 0.377,-1.638 0.377,-2.539c0,-2.139 -0.529,-3.792 -1.589,-4.96c-1.06,-1.167 -2.331,-1.751 -3.813,-1.751c-1.476,0 -2.633,0.613 -3.473,1.84l0,-1.559z" fill-rule="nonzero" fill="#ffff00"/>
    <path id="svg_39" d="m2677.175342,-30.281659l-0.235,1.99c0.461,-0.125 0.864,-0.188 1.208,-0.188c0.47,0 0.845,0.078 1.126,0.235c0.281,0.157 0.513,0.377 0.693,0.658c0.132,0.212 0.347,0.736 0.645,1.574c0.039,0.118 0.102,0.29 0.188,0.518l-4.75,12.5l2.28,0l2.602,-7.198c0.338,-0.912 0.64,-1.872 0.908,-2.879c0.244,0.941 0.535,1.873 0.873,2.797l2.665,7.28l2.114,0l-4.733,-12.704c-0.51,-1.369 -0.906,-2.31 -1.188,-2.827c-0.376,-0.695 -0.807,-1.205 -1.293,-1.53c-0.486,-0.324 -1.066,-0.486 -1.74,-0.486c-0.407,0 -0.862,0.086 -1.363,0.26" fill-rule="nonzero" fill="#ffff00"/>
    <path id="svg_40" d="m2696.357342,-25.479659l0,17.235l11.625,0l0,-2.032l-9.344,0l0,-5.343l8.094,0l0,-2.032l-8.094,0l0,-7.828l-2.281,0z" fill-rule="nonzero" fill="#ffff00"/>
    <path id="svg_41" d="m2710.647342,-25.479659l0,12.485l1.891,0l0,-1.895c0.487,0.886 0.936,1.471 1.349,1.752c0.413,0.283 0.866,0.424 1.362,0.424c0.715,0 1.441,-0.228 2.179,-0.682l-0.74,-1.957c-0.515,0.301 -1.032,0.451 -1.549,0.451c-0.461,0 -0.875,-0.138 -1.243,-0.417c-0.367,-0.278 -0.63,-0.664 -0.786,-1.158c-0.236,-0.752 -0.353,-1.575 -0.353,-2.468l0,-6.535l-2.11,0z" fill-rule="nonzero" fill="#ffff00"/>
    <path id="svg_42" d="m2720.268342,-18.041659l6.969,0c-0.094,1.052 -0.36,1.842 -0.799,2.368c-0.674,0.817 -1.548,1.225 -2.621,1.225c-0.972,0 -1.788,-0.326 -2.45,-0.978c-0.662,-0.651 -1.028,-1.523 -1.099,-2.615m6.946,-3.407l2.187,-0.281c-0.345,-1.277 -0.983,-2.268 -1.915,-2.973c-0.932,-0.705 -2.122,-1.058 -3.571,-1.058c-1.824,0 -3.272,0.562 -4.34,1.687c-1.069,1.124 -1.604,2.701 -1.604,4.731c0,2.1 0.54,3.729 1.621,4.889c1.081,1.16 2.483,1.74 4.206,1.74c1.668,0 3.031,-0.568 4.087,-1.704c1.057,-1.136 1.586,-2.735 1.586,-4.794c0,-0.126 -0.004,-0.315 -0.011,-0.565l-9.317,0c0.078,-1.373 0.467,-2.425 1.164,-3.155c0.699,-0.729 1.57,-1.095 2.613,-1.095c0.776,0 1.438,0.205 1.988,0.616c0.549,0.41 0.983,1.064 1.306,1.962" fill-rule="nonzero" fill="#ffff00"/>
    <path id="svg_43" d="m2733.648342,-18.041659l6.969,0c-0.095,1.052 -0.36,1.842 -0.799,2.368c-0.674,0.817 -1.548,1.225 -2.621,1.225c-0.972,0 -1.788,-0.326 -2.45,-0.978c-0.662,-0.651 -1.029,-1.523 -1.099,-2.615m6.945,-3.407l2.188,-0.281c-0.345,-1.277 -0.983,-2.268 -1.915,-2.973c-0.932,-0.705 -2.122,-1.058 -3.57,-1.058c-1.826,0 -3.273,0.562 -4.341,1.687c-1.07,1.124 -1.604,2.701 -1.604,4.731c0,2.1 0.54,3.729 1.621,4.889c1.081,1.16 2.483,1.74 4.205,1.74c1.668,0 3.031,-0.568 4.088,-1.704c1.058,-1.136 1.586,-2.735 1.586,-4.794c0,-0.126 -0.004,-0.315 -0.011,-0.565l-9.317,0c0.078,-1.373 0.467,-2.425 1.165,-3.155c0.697,-0.729 1.569,-1.095 2.612,-1.095c0.776,0 1.439,0.205 1.988,0.616c0.549,0.41 0.984,1.064 1.305,1.962" fill-rule="nonzero" fill="#ffff00"/>
    <path id="svg_44" d="m2744.951342,-19.948659l2.156,0.188c0.102,-0.864 0.338,-1.574 0.709,-2.128c0.371,-0.554 0.948,-1.002 1.73,-1.344c0.781,-0.341 1.661,-0.512 2.637,-0.512c0.868,0 1.634,0.129 2.298,0.388c0.664,0.26 1.158,0.616 1.484,1.068c0.324,0.451 0.486,0.944 0.486,1.476c0,0.541 -0.156,1.013 -0.468,1.417c-0.311,0.404 -0.828,0.742 -1.549,1.017c-0.462,0.18 -1.484,0.461 -3.066,0.842c-1.583,0.38 -2.692,0.739 -3.328,1.077c-0.824,0.431 -1.438,0.967 -1.842,1.607c-0.404,0.639 -0.606,1.356 -0.606,2.149c0,0.871 0.247,1.685 0.741,2.442c0.493,0.757 1.215,1.332 2.163,1.725c0.948,0.392 2.003,0.588 3.163,0.588c1.278,0 2.404,-0.205 3.381,-0.616c0.976,-0.411 1.726,-1.015 2.252,-1.813c0.525,-0.798 0.807,-1.701 0.846,-2.711l-2.187,-0.172c-0.118,1.087 -0.515,1.908 -1.192,2.464c-0.678,0.556 -1.68,0.833 -3.003,0.833c-1.38,0 -2.384,-0.253 -3.015,-0.759c-0.631,-0.507 -0.946,-1.116 -0.946,-1.83c0,-0.62 0.223,-1.13 0.67,-1.53c0.438,-0.401 1.585,-0.811 3.437,-1.23c1.853,-0.42 3.124,-0.786 3.814,-1.099c1.002,-0.462 1.743,-1.048 2.221,-1.757c0.478,-0.709 0.717,-1.526 0.717,-2.449c0,-0.917 -0.263,-1.781 -0.787,-2.591c-0.525,-0.812 -1.277,-1.442 -2.26,-1.892c-0.982,-0.45 -2.089,-0.676 -3.317,-0.676c-1.558,0 -2.864,0.228 -3.916,0.682c-1.053,0.454 -1.879,1.138 -2.478,2.051c-0.598,0.912 -0.914,1.944 -0.945,3.095" fill-rule="nonzero" fill="#ffff00"/>
    <path id="svg_45" d="m2766.676342,-25.479659l-6.666,17.235l2.472,0l4.478,-12.516c0.36,-1.003 0.662,-1.943 0.905,-2.82c0.267,0.939 0.576,1.88 0.929,2.82l4.657,12.516l2.331,0l-6.748,-17.235l-2.358,0z" fill-rule="nonzero" fill="#ffff00"/>
    <path id="svg_46" d="m2785.873342,-18.729659l0,2.031l7.297,0l0,-6.388c-1.12,-0.893 -2.277,-1.565 -3.468,-2.014c-1.191,-0.451 -2.413,-0.676 -3.666,-0.676c-1.694,0 -3.231,0.363 -4.613,1.088c-1.384,0.725 -2.428,1.774 -3.133,3.146c-0.705,1.372 -1.058,2.905 -1.058,4.598c0,1.678 0.351,3.244 1.052,4.698c0.701,1.455 1.71,2.535 3.026,3.24c1.317,0.706 2.833,1.058 4.549,1.058c1.245,0 2.372,-0.202 3.379,-0.606c1.007,-0.404 1.796,-0.968 2.368,-1.689c0.572,-0.722 1.007,-1.664 1.305,-2.827l-2.058,-0.563c-0.259,0.878 -0.58,1.568 -0.965,2.071c-0.383,0.503 -0.932,0.906 -1.645,1.208c-0.714,0.302 -1.506,0.453 -2.376,0.453c-1.042,0 -1.944,-0.158 -2.704,-0.476c-0.761,-0.317 -1.375,-0.735 -1.841,-1.252c-0.466,-0.517 -0.829,-1.085 -1.088,-1.704c-0.438,-1.066 -0.658,-2.222 -0.658,-3.468c0,-1.536 0.265,-2.821 0.794,-3.855c0.529,-1.036 1.299,-1.803 2.31,-2.305c1.011,-0.501 2.085,-0.752 3.222,-0.752c0.988,0 1.952,0.189 2.894,0.568c0.94,0.38 1.653,0.784 2.139,1.215l0,3.201l-5.062,0z" fill-rule="nonzero" fill="#ffff00"/>
    <path id="svg_47" d="m2796.852342,-23.073659l2.406,0l0,-2.406l-2.406,0l0,2.406z" fill-rule="nonzero" fill="#ffff00"/>
    <path id="svg_48" d="m2804.318342,-19.239659c0,-1.599 0.349,-2.796 1.046,-3.593c0.697,-0.795 1.574,-1.194 2.632,-1.194c1.05,0 1.923,0.401 2.62,1.2c0.697,0.8 1.046,2.019 1.046,3.658c0,1.545 -0.351,2.715 -1.052,3.512c-0.701,0.794 -1.572,1.193 -2.614,1.193c-1.058,0 -1.935,-0.397 -2.632,-1.188c-0.697,-0.793 -1.046,-1.988 -1.046,-3.588m-2.172,0.002c0,2.312 0.642,4.024 1.927,5.137c1.072,0.924 2.38,1.387 3.923,1.387c1.715,0 3.116,-0.563 4.205,-1.687c1.089,-1.125 1.633,-2.678 1.633,-4.661c0,-1.605 -0.242,-2.869 -0.723,-3.79c-0.481,-0.921 -1.183,-1.636 -2.102,-2.145c-0.92,-0.509 -1.924,-0.764 -3.013,-0.764c-1.746,0 -3.158,0.561 -4.235,1.681c-1.077,1.12 -1.615,2.735 -1.615,4.842" fill-rule="nonzero" fill="#ffff00"/>
    <path id="svg_49" d="m2816.292342,-25.479659l0,12.485l1.89,0l0,-1.895c0.488,0.886 0.937,1.471 1.35,1.752c0.412,0.283 0.865,0.424 1.361,0.424c0.715,0 1.442,-0.228 2.18,-0.682l-0.74,-1.957c-0.516,0.301 -1.032,0.451 -1.549,0.451c-0.461,0 -0.875,-0.138 -1.243,-0.417c-0.367,-0.278 -0.63,-0.664 -0.786,-1.158c-0.237,-0.752 -0.354,-1.575 -0.354,-2.468l0,-6.535l-2.109,0z" fill-rule="nonzero" fill="#ffff00"/>
    <path id="svg_50" d="m2825.690342,-19.014659c0,-1.639 0.325,-2.834 0.975,-3.586c0.649,-0.753 1.463,-1.129 2.441,-1.129c0.971,0 1.784,0.374 2.442,1.123c0.658,0.748 0.986,1.922 0.986,3.522c0,1.528 -0.338,2.68 -1.016,3.457c-0.676,0.775 -1.492,1.164 -2.447,1.164c-0.939,0 -1.737,-0.383 -2.395,-1.147c-0.657,-0.764 -0.986,-1.899 -0.986,-3.404m-1.75,-7.496l2.063,-0.313c0.086,-0.632 0.325,-1.093 0.715,-1.382c0.525,-0.391 1.241,-0.586 2.148,-0.586c0.977,0 1.732,0.196 2.265,0.588c0.531,0.392 0.891,0.941 1.079,1.647c0.109,0.432 0.16,1.337 0.152,2.718c-0.924,-1.094 -2.074,-1.641 -3.453,-1.641c-1.715,0 -3.042,0.619 -3.982,1.858c-0.939,1.238 -1.409,2.722 -1.409,4.455c0,1.191 0.216,2.29 0.647,3.297c0.43,1.006 1.055,1.785 1.874,2.333c0.818,0.548 1.78,0.823 2.884,0.823c1.472,0 2.687,-0.594 3.642,-1.781l0,1.5l1.953,0l0,-10.789c0,-1.944 -0.197,-3.321 -0.593,-4.131c-0.396,-0.811 -1.023,-1.451 -1.88,-1.922c-0.859,-0.47 -1.914,-0.705 -3.168,-0.705c-1.489,0 -2.692,0.335 -3.609,1.005c-0.917,0.67 -1.359,1.678 -1.328,3.026" fill-rule="nonzero" fill="#ffff00"/>
   </g>
   <path d="m2555.060342,372.058341c12.11,-1.228 22.662,-5.928 28.622,-12.749c5.959,-6.82 6.665,-15.005 1.914,-22.2c-2.259,-3.421 -6.919,-5.968 -12.576,-6.87c-5.656,-0.901 -11.652,-0.057 -16.18,2.281c-8.292,4.282 -20.108,4.403 -28.613,0.294c-12.792,-6.18 -30.53,-6.081 -43.15,0.241c-12.619,6.324 -16.934,17.274 -10.495,26.638c6.44,9.363 22.007,14.777 37.866,13.169c16.04,-1.626 28.892,0.588 42.612,-0.804m-1.369,-5.47c9.471,-0.96 17.724,-4.637 22.385,-9.97c4.65,-5.323 5.205,-11.749 1.497,-17.363c-1.198,-1.815 -3.669,-3.164 -6.668,-3.644c-2.994,-0.476 -6.185,-0.026 -8.581,1.21c-11.403,5.889 -27.665,6.054 -39.359,0.404c-9.636,-4.656 -22.998,-4.581 -32.504,0.183c-9.505,4.761 -12.754,13.012 -7.906,20.064c4.848,7.05 16.584,11.131 28.525,9.92c6.342,-0.643 12.601,-0.765 19.009,-0.662c5.19,0.085 10.407,0.321 15.599,0.267c2.679,-0.028 5.354,-0.14 8.003,-0.409m-48.725,-6.141c7.369,0 13.343,-3.801 13.343,-8.491c0,-4.691 -5.974,-8.491 -13.343,-8.491c-7.37,0 -13.342,3.8 -13.342,8.491c0,4.69 5.972,8.491 13.342,8.491m0,-4.451c3.507,0 6.351,-1.808 6.351,-4.04c0,-2.232 -2.844,-4.042 -6.351,-4.042c-3.506,0 -6.349,1.81 -6.349,4.042c0,2.232 2.843,4.04 6.349,4.04m-95.885,-50.742c-5.701,5.062 -8.85,10.598 -8.85,16.4c0,11.959 13.345,22.791 34.946,30.659l-26.096,-47.059zm196.358,47.339c22.056,-7.892 35.722,-18.837 35.722,-30.939c0,-5.942 -3.299,-11.606 -9.266,-16.768l-26.456,47.707zm-12.873,4c0.326,-0.088 0.653,-0.177 0.978,-0.267l26.43,-59.332c-9.022,-4.735 -20.568,-8.793 -33.941,-11.919l-5.984,19.652c-1.72,-0.573 -3.557,-1.02 -5.479,-1.327c-3.192,-0.511 -6.474,-0.603 -9.655,-0.306l4.165,-21.319c-12.242,-1.942 -25.551,-3.172 -39.521,-3.539l-1.458,26.738c-4.87,-1.835 -10.187,-2.984 -15.617,-3.452l-1.269,-23.27c-13.972,0.394 -27.275,1.65 -39.503,3.62l5.359,27.418c-5.641,3.68 -9.373,8.262 -10.956,13.136l-11.333,-37.214c-13.374,3.165 -24.9,7.264 -33.866,12.044l26.224,58.874c6.598,1.84 13.737,3.44 21.317,4.76c-1.893,-2.889 -2.927,-5.899 -3.155,-8.902l-0.002,0l0,-0.028c-0.063,-0.841 -0.063,-1.682 0,-2.519l0,-14.391c-0.063,-0.841 -0.063,-1.682 0,-2.519l0,-2.399l0.352,0c1.45,-6.613 6.8,-12.824 15.483,-17.173c14.898,-7.464 35.844,-7.581 50.946,-0.285c6.165,2.978 14.733,2.89 20.744,-0.212c6.072,-3.138 14.16,-4.276 21.745,-3.066c7.604,1.213 13.864,4.633 16.9,9.233c2.433,3.679 3.626,7.595 3.606,11.503l0.002,0c0,10.739 1.817,18.55 -2.512,26.461m-83.818,-308.391c-6.541,0 -12.618,-4.888 -13.572,-10.916c-0.955,-6.029 3.573,-10.917 10.113,-10.917c6.542,0 12.617,4.888 13.574,10.917c0.954,6.028 -3.574,10.916 -10.115,10.916m-10.013,19.577c-13.641,0 -26.315,-10.194 -28.307,-22.769c-1.206,-7.62 1.785,-14.364 7.365,-18.498c-2.937,3.947 -4.277,9.02 -3.4,14.554c1.992,12.575 14.666,22.771 28.307,22.771c5.377,0 10.1,-1.585 13.73,-4.275c-3.736,5.022 -10.057,8.217 -17.695,8.217m-37.525,34.069c6.54,0 11.542,-4.631 11.173,-10.346c-0.371,-5.714 -5.975,-10.347 -12.515,-10.347c-6.541,0 -11.543,4.633 -11.172,10.347c0.37,5.715 5.972,10.346 12.514,10.346m0.681,10.523c-13.191,0 -24.492,-9.343 -25.239,-20.869c-0.747,-11.525 9.342,-20.867 22.534,-20.867c8.484,0 16.185,3.864 20.801,9.687l1.178,-13.871c3.471,1.442 7.237,2.253 11.079,2.253c1.823,0 3.57,-0.184 5.225,-0.529l-11.356,101.26l-9.283,7.432c13.73,-4.814 28.491,-7.432 43.866,-7.432c15.775,0 30.907,2.759 44.938,7.815l-5.993,-85.748l22.849,0l-12.026,9.049l14.439,85.447c15.928,8.834 29.847,20.85 40.897,35.192c-4.583,-11.797 -11.521,-22.188 -20.658,-31.267l-9.685,-138.543l22.848,0l-12.026,9.048l29.773,176.183c6.608,11.625 11.513,24.345 14.369,37.822c-25.506,-14.387 -72.118,-22.32 -125.402,-19.247c-40.205,2.318 -76.612,10.462 -103.018,21.766c26.41,-8.311 60.925,-13.345 98.695,-13.345c83.045,0 150.366,24.33 150.366,54.342c0,22.146 -36.662,41.196 -89.247,49.661c-6.868,4.45 -15.862,7.45 -25.752,8.453c-14.188,1.438 -28.265,-0.651 -42.61,0.804c-12.926,1.31 -25.699,-1.337 -34.868,-6.74c-20.319,-2.138 -38.857,-5.785 -54.632,-10.581c9.224,5.24 19.107,9.325 29.432,12.128c53.658,14.564 110.227,14.564 163.883,0l3.772,-1.023c-6.515,6.126 -11.062,14.317 -12.62,23.564l-1.481,8.779c-11.648,-5.169 -24.03,-8.487 -36.702,-9.834c-21.373,-2.273 -41.773,9.505 -50.491,29.152l-5.524,12.447c-11.729,-14.423 -31.39,-19.691 -48.758,-13.065l-6.148,2.345c-0.984,-15.844 -9.338,-30.312 -22.567,-39.087l-9.309,-6.175c11.862,13.476 11.862,33.669 0,47.145c-13.538,15.379 -19.117,36.2 -15.083,56.288l2.483,12.364c4.961,-22.32 22.393,-39.752 44.712,-44.713c22.923,-5.095 46.503,5.273 58.243,25.609c11.742,20.337 8.931,45.939 -6.943,63.244l-8.242,8.983c30.218,-8.81 48.141,-39.852 40.66,-70.426l-5.47,-22.368c-3.022,-18.884 5.92,-37.674 22.483,-47.237c16.562,-9.562 37.308,-7.912 52.151,4.147l7.53,6.119c-6.441,-16.245 -1.471,-34.793 12.23,-45.642l8.967,-7.101c-6.367,14.89 -6.367,31.735 0,46.626l4.063,9.501c6.691,15.646 7.775,31.089 3.335,47.518c-16.322,60.4 -62.076,45.748 -45.786,114.033c-19.844,-22.372 -19.844,-56.043 0,-78.414c12.215,-13.77 17.231,-32.487 13.536,-50.52c-2.208,-10.785 -10.214,-19.456 -20.788,-22.516c-10.574,-3.061 -21.974,-0.006 -29.602,7.932c-7.627,7.938 -10.225,19.45 -6.746,29.894c4.94,14.831 4.94,30.865 0,45.696l-3.571,10.715c-7.334,22.02 -21.943,38.21 -43.096,47.763c-7.561,3.414 -14.099,9.145 -18.478,16.729c-9.319,16.143 -6.474,36.555 6.905,49.532l13.195,12.798c-24.672,-6.197 -44.049,-25.273 -50.633,-49.843c-6.583,-24.571 0.66,-50.78 18.927,-68.483c12.265,-11.886 14.129,-30.9 4.406,-44.942c-9.723,-14.042 -28.178,-18.987 -43.619,-11.688c-15.441,7.299 -23.334,24.698 -18.656,41.125c5.347,18.77 5.347,38.659 0,57.429l-3.835,13.467c-0.212,-26.812 -7.263,-53.128 -20.487,-76.454c-15.96,-28.154 -15.96,-62.622 0,-90.775c10.16,-17.922 10.16,-39.864 0,-57.787l-11.701,-20.639l0.006,-0.002c-11.607,-7.708 -18.205,-16.543 -18.205,-25.935c0,-9.373 6.567,-18.192 18.129,-25.89c3.129,-42 25.82,-78.548 58.991,-100.569l-9.162,-71.244c1.881,0.389 3.831,0.597 5.824,0.597c2.43,0 4.757,-0.307 6.938,-0.877l-0.356,0.001c-13.643,0 -25.329,-9.663 -26.101,-21.58c-0.468,-7.22 3.178,-13.612 9.157,-17.531c-3.318,3.74 -5.15,8.549 -4.81,13.795c0.774,11.917 12.459,21.579 26.101,21.579c5.376,0 10.253,-1.501 14.143,-4.049c-4.124,4.645 -10.543,7.642 -17.955,7.78l4.706,60.358l-3.226,7.856c6.01,-3.597 12.328,-6.734 18.907,-9.355l6.116,-71.983c-4.035,3.434 -9.589,5.534 -15.842,5.534m48.615,-53.068c13.192,0 22.325,-9.857 20.399,-22.017c-1.925,-12.161 -14.182,-22.019 -27.374,-22.019c-13.192,0 -22.325,9.858 -20.399,22.019c1.926,12.16 14.182,22.017 27.374,22.017" id="svg_52" fill-rule="evenodd" fill="#ffff00"/>
  </g>
 </g>
</svg>