<svg width="24" height="24" xmlns="http://www.w3.org/2000/svg">

 <g>
  <title>background</title>
  <rect fill="none" id="canvas_background" height="402" width="582" y="-1" x="-1"/>
 </g>
 <g>
  <title>Layer 1</title>
  <path id="svg_1" fill="#0F1729" d="m7.78125,4c-3.24426,0 -5.78125,2.81981 -5.78125,6.1559c0,1.7352 0.27768,3.1641 1.31283,4.6675c0.98767,1.4346 2.63007,2.8822 5.17851,4.7921l3.50866,2.3845l3.5084,-2.3842c2.5486,-1.91 4.1911,-3.3578 5.1788,-4.7924c1.0351,-1.5034 1.3128,-2.9323 1.3128,-4.6675c0,-3.33608 -2.537,-6.1559 -5.7812,-6.1559c-1.6279,0 -3.037,0.66321 -4.2188,1.86323c-1.1818,-1.20002 -2.59094,-1.86323 -4.21875,-1.86323zm0,2c-2.00574,0 -3.78125,1.7855 -3.78125,4.1559c0,0.549 0.03107,1.0316 0.10853,1.4766c0.12973,0.7455 0.38961,1.3857 0.85161,2.0568c0.78518,1.1404 2.18847,2.4207 4.73142,4.3264l2.30844,1.7337l2.3084,-1.7337c2.543,-1.9057 3.9463,-3.186 4.7315,-4.3264c0.7378,-1.0717 0.9601,-2.0648 0.9601,-3.5334c0,-2.3704 -1.7755,-4.1559 -3.7812,-4.1559c-1.2357,0 -2.3687,0.58627 -3.4155,1.99831c-0.1886,0.25443 -0.4866,0.40446 -0.8033,0.40446c-0.3167,0 -0.6147,-0.15003 -0.8033,-0.40446c-1.0468,-1.41204 -2.17981,-1.99831 -3.41545,-1.99831z" clip-rule="evenodd" fill-rule="evenodd"/>
 </g>
</svg>