<svg width="640" height="640" xmlns="http://www.w3.org/2000/svg" xmlns:xlink="http://www.w3.org/1999/xlink">
 <title>BBQ Grill</title>
 <defs>
  <filter height="3.215384" y="-1.107692" width="2.515789" x="-0.757895" id="filter5925" color-interpolation-filters="sRGB">
   <feGaussianBlur id="feGaussianBlur5927" stdDeviation="6.108639"/>
  </filter>
  <clipPath id="clipPath6054" clipPathUnits="userSpaceOnUse">
   <path fill="none" stroke="#000000" stroke-width="2" stroke-linejoin="round" stroke-miterlimit="4" stroke-dashoffset="4.1" id="path6056" d="m346.99661,366.74915c-5.59958,15.64436 -39.00007,26.70025 -87.1091,26.70025c-48.10903,0 -84.56383,-12.074 -87.1091,-26.70025c0.93062,-24.19693 170.85126,-25.32898 174.2182,0z"/>
  </clipPath>
  <filter height="1.659995" y="-0.329997" width="1.066" x="-0.033" id="filter7005" color-interpolation-filters="sRGB">
   <feGaussianBlur id="feGaussianBlur7007" stdDeviation="0.534907"/>
  </filter>
  <linearGradient id="linearGradient6958">
   <stop stop-color="#cd1515" id="stop6960" offset="0"/>
   <stop stop-color="#1b1010" id="stop6962" offset="1"/>
  </linearGradient>
  <linearGradient id="linearGradient3879">
   <stop stop-color="#453a3a" id="stop3881" offset="0"/>
   <stop stop-color="#999999" stop-opacity="0" id="stop3883" offset="1"/>
  </linearGradient>
  <linearGradient y2="1.810717" x2="0.030428" y1="0.726431" x1="0.030428" id="linearGradient3611" xlink:href="#linearGradient3879"/>
  <linearGradient y2="1.82859" x2="-0.02991" y1="0.7204" x1="-0.02991" id="linearGradient3613" xlink:href="#linearGradient3879"/>
  <radialGradient xlink:href="#linearGradient5577-4" id="radialGradient3192" gradientUnits="userSpaceOnUse" gradientTransform="matrix(0.43381211,-8.3811864e-4,4.8775745e-4,0.25246004,-30.386846,273.59649)" cx="245.64377" cy="283.65454" fx="245.64377" fy="283.65454" r="88.1091"/>
  <linearGradient id="linearGradient5577-4">
   <stop stop-color="#ec5d69" id="stop5579-0" offset="0"/>
   <stop stop-color="#ff0000" id="stop5581-9" offset="1"/>
  </linearGradient>
  <radialGradient r="8.390314" fy="360.49048" fx="231.87373" cy="360.49048" cx="231.87373" gradientTransform="matrix(1,0,0,0.93933006,12,43.870936)" gradientUnits="userSpaceOnUse" id="radialGradient3113" xlink:href="#linearGradient6958"/>
  <linearGradient y2="-0.246288" x2="-0.371245" y1="0.726431" x1="0.030428" id="linearGradient3115" xlink:href="#linearGradient3879"/>
 </defs>
 <metadata id="metadata3728">image/svg+xmlBBQ GrillSMILAnimationAnimatebarbecuebar-b-queBBQGrillSteakCelebrationholidaysSteak and hot dogs smoking on a red BBQ grill.Aukipawww.portaloha.com/creative-dept</metadata>
 <g>
  <title>background</title>
  <rect fill="none" id="canvas_background" height="402" width="582" y="-1" x="-1"/>
 </g>
 <g>
  <title>Layer 1</title>
  <g id="layer1">
   <g display="inline" id="Grill" transform="matrix(1.5,0,0,1.5,-120,-260) ">
    <path fill="#000000" fill-rule="nonzero" stroke="#000000" stroke-linejoin="round" stroke-miterlimit="4" stroke-dashoffset="4.1" d="m188.38591,472.22764l154.7522,-0.50906l1.08122,4.43948l-79.62029,34.18511l-8.90946,0l-68.26968,-35.40087l0.96601,-2.71466z" id="path3843"/>
    <use x="0" y="0" xlink:href="#rect3791" id="use3823" transform="matrix(-0.99562382,0.09345166,0.09345166,0.99562382,487.374,-17.590208) " width="1200" height="600"/>
    <path fill="#cccccc" fill-rule="nonzero" stroke="#000000" stroke-width="0.5" stroke-linejoin="round" stroke-miterlimit="4" stroke-dashoffset="4.1" d="m192.55889,399.91637l8.11344,2.8494l-11.54002,112.51147l-8.47338,0.0302l11.89996,-115.39107z" id="rect3791"/>
    <path fill="#ff0000" fill-rule="nonzero" stroke="#000000" stroke-linejoin="round" stroke-miterlimit="4" stroke-dashoffset="4.1" d="m348.097,366.74915c0,34.98838 -40.10046,63.35208 -88.20949,63.35208c-48.10903,0 -88.90951,-28.3637 -88.90951,-63.35208c-4.52252,-26.50787 180.87271,-29.96911 177.119,0z" id="path3758"/>
    <path fill="#d40000" fill-rule="nonzero" stroke-width="2" d="m348.097,366.74915c0,34.98838 -40.10046,63.35208 -88.20949,63.35208c123.68816,-35.74451 -12.72719,-84.03695 20.6254,-84.20367c8.98052,0.37143 17.65601,1.04322 25.6281,2.02627c25.05013,3.08896 43.15517,9.25122 41.95599,18.82532z" id="path3758-8"/>
    <path opacity="0.5" fill="#cccccc" fill-rule="nonzero" stroke="#000000" stroke-linejoin="round" stroke-miterlimit="4" stroke-dashoffset="4.1" filter="url(#filter5925)" id="path5611" d="m275.697864,411.624262c-0.425437,3.630004 -7.334812,5.803354 -15.432507,4.854303c-8.097705,-0.949052 -14.317309,-4.66112 -13.891872,-8.291124c0.425437,-3.630004 7.334811,-5.803344 15.432516,-4.854292c8.097695,0.949051 14.3173,4.661109 13.891863,8.291113z"/>
    <path fill="#000000" fill-rule="nonzero" stroke="#000000" stroke-linejoin="round" stroke-miterlimit="4" stroke-dashoffset="4.1" d="m346.99661,366.74915c-5.59958,15.64436 -39.00007,26.70025 -87.1091,26.70025c-48.10903,0 -84.56383,-12.074 -87.1091,-26.70025c0.93062,-24.19693 170.85126,-25.32898 174.2182,0z" id="InsideGrill"/>
    <rect fill="url(#radialGradient3113)" fill-rule="nonzero" ry="2" rx="2" y="375.10919" x="235.98343" height="14.762548" width="15.780628" id="rect6956"/>
    <use height="600" width="1200" transform="matrix(0.75581249,0.65478812,-0.65478812,0.75581249,318.2801,-65.92628) " id="use6966" xlink:href="#rect6956" y="0" x="0"/>
    <g clip-path="url(#clipPath6054)" id="Grate">
     <path fill="#b3b3b3" fill-rule="nonzero" stroke="#302d2d" stroke-width="0.5" stroke-linejoin="round" stroke-miterlimit="4" stroke-dashoffset="4.1" id="GrateMaster" d="m244.13035,344.52769l-0.29281,51.26748l3.59057,0.58352l-0.21622,-51.851l-3.08154,0z"/>
     <path fill="#b3b3b3" fill-rule="nonzero" stroke="#302d2d" stroke-width="0.5" stroke-linejoin="round" stroke-miterlimit="4" stroke-dashoffset="4.1" d="m256.13035,344.52769l-0.29281,51.26748l3.59057,0.58352l-0.21622,-51.851l-3.08154,0z" id="path6006"/>
     <path fill="#b3b3b3" fill-rule="nonzero" stroke="#302d2d" stroke-width="0.5" stroke-linejoin="round" stroke-miterlimit="4" stroke-dashoffset="4.1" id="path6008" d="m268.13035,344.52769l-0.29281,51.26748l3.59057,0.58352l-0.21622,-51.851l-3.08154,0z"/>
     <path fill="#b3b3b3" fill-rule="nonzero" stroke="#302d2d" stroke-width="0.5" stroke-linejoin="round" stroke-miterlimit="4" stroke-dashoffset="4.1" d="m280.13035,344.52769l-0.29281,51.26748l3.59057,0.58352l-0.21622,-51.851l-3.08154,0z" id="path6014"/>
     <path fill="#b3b3b3" fill-rule="nonzero" stroke="#302d2d" stroke-width="0.5" stroke-linejoin="round" stroke-miterlimit="4" stroke-dashoffset="4.1" id="path6016" d="m290.13035,344.52769l-0.29281,51.26748l3.59057,0.58352l-0.21622,-51.851l-3.08154,0z"/>
     <path fill="#b3b3b3" fill-rule="nonzero" stroke="#302d2d" stroke-width="0.5" stroke-linejoin="round" stroke-miterlimit="4" stroke-dashoffset="4.1" d="m302.13035,344.52769l-0.29281,51.26748l3.59057,0.58352l-0.21622,-51.851l-3.08154,0z" id="path6018"/>
     <path fill="#b3b3b3" fill-rule="nonzero" stroke="#302d2d" stroke-width="0.5" stroke-linejoin="round" stroke-miterlimit="4" stroke-dashoffset="4.1" id="path6020" d="m314.13035,347.58201l-0.29281,44.72426l3.59057,0.50905l-0.21622,-45.23331l-3.08154,0z"/>
     <path fill="#b3b3b3" fill-rule="nonzero" stroke="#302d2d" stroke-width="0.5" stroke-linejoin="round" stroke-miterlimit="4" stroke-dashoffset="4.1" d="m324.13035,347.58201l-0.29281,44.72426l3.59057,0.50905l-0.21622,-45.23331l-3.08154,0z" id="path6022"/>
     <path fill="#b3b3b3" fill-rule="nonzero" stroke="#302d2d" stroke-width="0.5" stroke-linejoin="round" stroke-miterlimit="4" stroke-dashoffset="4.1" id="path6024" d="m336.13035,347.58201l-0.29281,44.72426l3.59057,0.50905l-0.21622,-45.23331l-3.08154,0z"/>
     <path fill="#b3b3b3" fill-rule="nonzero" stroke="#302d2d" stroke-width="0.5" stroke-linejoin="round" stroke-miterlimit="4" stroke-dashoffset="4.1" d="m232.13035,344.52769l-0.29281,51.26748l3.59057,0.58352l-0.21622,-51.851l-3.08154,0z" id="path6026"/>
     <path fill="#b3b3b3" fill-rule="nonzero" stroke="#302d2d" stroke-width="0.5" stroke-linejoin="round" stroke-miterlimit="4" stroke-dashoffset="4.1" id="path6028" d="m220.13035,347.58201l-0.29281,44.72426l3.59057,0.50905l-0.21622,-45.23331l-3.08154,0z"/>
     <path fill="#b3b3b3" fill-rule="nonzero" stroke="#302d2d" stroke-width="0.5" stroke-linejoin="round" stroke-miterlimit="4" stroke-dashoffset="4.1" d="m208.13035,347.58201l-0.29281,44.72426l3.59057,0.50905l-0.21622,-45.23331l-3.08154,0z" id="path6030"/>
     <path fill="#b3b3b3" fill-rule="nonzero" stroke="#302d2d" stroke-width="0.5" stroke-linejoin="round" stroke-miterlimit="4" stroke-dashoffset="4.1" id="path6032" d="m196.13035,347.58201l-0.29281,44.72426l3.59057,0.50905l-0.21622,-45.23331l-3.08154,0z"/>
     <path fill="#b3b3b3" fill-rule="nonzero" stroke="#302d2d" stroke-width="0.5" stroke-linejoin="round" stroke-miterlimit="4" stroke-dashoffset="4.1" d="m184.13035,347.58201l-0.29281,44.72426l3.59057,0.50905l-0.21622,-45.23331l-3.08154,0z" id="path6034"/>
    </g>
    <g id="HotDog">
     <path fill="#ff7f2a" fill-rule="nonzero" d="m274.14624,379.52756l33.5748,0c2.216,0 4,1.6054 4,3.59955c0,1.99415 -1.784,3.59955 -4,3.59955l-33.5748,0c-2.216,0 -4,-1.6054 -4,-3.59955c0,-1.99415 1.784,-3.59955 4,-3.59955z" id="rect6968"/>
     <path opacity="0.9" fill="#803300" fill-rule="nonzero" filter="url(#filter7005)" d="m276.48817,379.82787l30.79989,0c2.03285,0 3.6694,0.86753 3.6694,1.94513c0,1.0776 -1.63661,1.94513 -3.6694,1.94513l-30.79989,0c-2.03285,0 -3.6694,-0.86753 -3.6694,-1.94513c0,-1.0776 1.63655,-1.94513 3.6694,-1.94513z" id="rect6968-4"/>
     <path opacity="0.9" fill="#1a1a1a" fill-rule="nonzero" d="m277.11587,379.70721l0.38179,0c0.31726,0 0.57268,1.33385 0.57268,2.99069l0,0.38179c0,1.65684 -0.25542,2.99069 -0.57268,2.99069l-0.38179,0c-0.31727,0 -0.57269,-1.33385 -0.57269,-2.99069l0,-0.38179c0,-1.65684 0.25542,-2.99069 0.57269,-2.99069z" id="rect7009"/>
     <path opacity="0.9" fill="#1a1a1a" fill-rule="nonzero" id="path7012" d="m285.11587,379.70721l0.38179,0c0.31726,0 0.57268,1.33385 0.57268,2.99069l0,0.38179c0,1.65684 -0.25542,2.99069 -0.57268,2.99069l-0.38179,0c-0.31727,0 -0.57269,-1.33385 -0.57269,-2.99069l0,-0.38179c0,-1.65684 0.25542,-2.99069 0.57269,-2.99069z"/>
     <path opacity="0.9" fill="#1a1a1a" fill-rule="nonzero" d="m293.11587,379.70721l0.38179,0c0.31726,0 0.57268,1.33385 0.57268,2.99069l0,0.38179c0,1.65684 -0.25542,2.99069 -0.57268,2.99069l-0.38179,0c-0.31727,0 -0.57269,-1.33385 -0.57269,-2.99069l0,-0.38179c0,-1.65684 0.25542,-2.99069 0.57269,-2.99069z" id="path7014"/>
     <path opacity="0.9" fill="#1a1a1a" fill-rule="nonzero" id="path7016" d="m301.11587,379.70721l0.38179,0c0.31726,0 0.57268,1.33385 0.57268,2.99069l0,0.38179c0,1.65684 -0.25542,2.99069 -0.57268,2.99069l-0.38179,0c-0.31727,0 -0.57269,-1.33385 -0.57269,-2.99069l0,-0.38179c0,-1.65684 0.25542,-2.99069 0.57269,-2.99069z"/>
    </g>
    <use height="600" width="1200" id="use7026" xlink:href="#HotDog" y="-10" x="0"/>
    <use height="600" width="1200" id="use7028" xlink:href="#HotDog" y="-24" x="0"/>
    <rect fill="#cccccc" fill-rule="nonzero" stroke="#15110b" stroke-width="0.5" stroke-miterlimit="4" ry="1.495344" rx="0.286342" y="433.03055" x="256.05377" height="131.84479" width="9.162958" id="rect7379"/>
    <path fill="#1a1a1a" fill-rule="nonzero" stroke="#000000" stroke-linejoin="round" stroke-miterlimit="4" stroke-dashoffset="4.1" id="path3760-1" d="m247.28488,425.3911c2.69499,5.08121 3.5451,11.29663 12.68926,11.19774c9.26618,-0.10021 11.44435,-3.91794 12.59568,-11.384c-8.07955,0.7259 -13.05005,1.51399 -25.28494,0.18626z"/>
    <g id="TBone Steak">
     <path fill="#d38d5f" fill-rule="nonzero" stroke="#302d2d" stroke-width="0.5" stroke-linejoin="round" stroke-miterlimit="4" stroke-dashoffset="4.1" d="m233.68174,354.75976c3.36126,4.14023 4.01147,16.45119 0.4215,19.60651c-5.0523,3.57301 -12.45762,3.95034 -15.71703,3.6755c-2.18647,-0.18437 -5.24465,-2.00457 -8.00473,-2.3195c-5.21701,-0.59527 -9.46253,-0.25717 -14.15623,0.23456c-9.07738,0.95098 -10.9241,0.0164 -10.9241,0.0164c-3.39058,-4.5526 -2.72771,-5.50964 -2.50282,-8.1693" id="path6101"/>
     <path fill="#a05a2c" fill-rule="nonzero" stroke="#302d2d" stroke-width="0.5" stroke-linejoin="round" stroke-miterlimit="4" stroke-dashoffset="4.1" d="m231.20219,350.48355c1.68044,1.56117 3.29697,6.03986 3.29697,6.03986c2.33663,6.98475 0.80786,13.06116 -2.26232,14.25215c-7.79621,2.46769 -10.83639,2.58304 -18.71071,1.87809c0,0 -11.40877,-1.48279 -17.14709,-1.53509c-3.07028,-0.028 -7.19771,0.5422 -9.18798,0.65398c-2.26301,0.1271 -6.05623,-1.91776 -4.51747,-3.9186l3.87644,-5.04051c7.74559,-6.44684 11.00259,-5.88436 19.90835,-7.57017c6.39322,-1.59893 13.43145,-4.91706 19.21448,-5.70555c0,0 4.08654,-0.39455 5.52933,0.94584z" id="path6099"/>
     <path fill="#f4e3d7" d="m193.56837,362.36643c9.65299,0.32855 14.58309,0.95225 30.80015,-0.50609c1.07933,-2.78066 -0.36592,-4.83524 0.46429,-7.43214c1.41361,-0.41861 2.45813,-2.22787 3.44461,-1.5345c0.36026,7.53799 1.92881,11.37625 -2.1686,17.41885c-2.26127,-0.46672 -3.365,0.42051 -4.36983,-0.27446c1.08486,-2.24986 1.57132,-3.18464 1.82449,-5.06492c-13.30608,1.84693 -19.9326,1.1603 -32.88893,2.48507c-0.58714,-2.41688 2.62912,-2.65509 2.89382,-5.09181z" id="path6068"/>
     <path opacity="0.8" fill="#1a1a1a" fill-rule="nonzero" d="m212.37287,354.39092c4.00064,3.26193 14.91197,14.7222 16.60668,16.30792c0.0422,0.55962 -1.07483,1.15263 -1.53366,0.28632c-0.16787,-0.31694 -14.63078,-14.32331 -16.52908,-15.98807c0.3185,-1.0763 0.63554,-0.7876 1.45606,-0.60617z" id="rect7009-1"/>
     <path opacity="0.9" fill="#1a1a1a" fill-rule="nonzero" d="m277.11587,379.70721l0.38179,0c0.31726,0 0.57268,1.33385 0.57268,2.99069l0,0.38179c0,1.65684 -0.25542,2.99069 -0.57268,2.99069l-0.38179,0c-0.31727,0 -0.57269,-1.33385 -0.57269,-2.99069l0,-0.38179c0,-1.65684 0.25542,-2.99069 0.57269,-2.99069z" id="rect7009-7"/>
     <path opacity="0.8" fill="#1a1a1a" fill-rule="nonzero" d="m203.91968,356.41071c4.00064,3.26193 14.91197,14.72221 16.60668,16.30793c0.0422,0.55962 -1.07483,1.15263 -1.53366,0.28632c-0.16787,-0.31694 -14.63078,-14.32332 -16.52908,-15.98808c0.3185,-1.0763 0.63554,-0.7876 1.45606,-0.60617z" id="rect7009-1-4"/>
     <path opacity="0.8" fill="#1a1a1a" fill-rule="nonzero" d="m219.62915,351.02461c4.00064,3.26193 14.08909,13.97414 15.7838,15.55986c0.0422,0.55962 -0.25195,1.9007 -0.71078,1.03439c-0.16787,-0.31694 -14.63078,-14.32332 -16.52908,-15.98808c0.3185,-1.0763 0.85996,-0.26395 1.45606,-0.60617z" id="rect7009-1-0"/>
     <path opacity="0.8" fill="#1a1a1a" fill-rule="nonzero" d="m194.19478,358.5053c4.00064,3.26193 11.09681,11.3559 12.79152,12.94162c0.0422,0.55962 -1.07483,1.15263 -1.53366,0.28632c-0.16787,-0.31694 -10.81562,-10.95701 -12.71392,-12.62177c0.3185,-1.0763 0.63554,-0.7876 1.45606,-0.60617z" id="rect7009-1-9"/>
     <path opacity="0.8" fill="#1a1a1a" fill-rule="nonzero" d="m187.76138,362.7693c4.00064,3.26193 5.56109,6.41865 7.2558,8.00437c0.0422,0.55962 -1.07483,1.15263 -1.53366,0.28632c-0.16787,-0.31694 -5.2799,-6.01976 -7.1782,-7.68452c0.3185,-1.0763 0.63554,-0.7876 1.45606,-0.60617z" id="rect7009-1-9-4"/>
    </g>
    <g id="Smoke">
     <path opacity="0.7" fill="url(#linearGradient3115)" stroke-width="2" id="Smoke1" d="m234.315322,283.00379c-3.95082,8.75296 -5.87511,15.32733 -5.29178,24.03513c2.20515,8.39141 8.45425,8.45055 12.48457,15.6315c3.01141,5.00475 5.09904,9.48731 5.63635,18.40733c-0.19054,4.86983 -1.80291,11.37577 -3.84796,17.17045c-1.15023,3.95682 -7.74128,13.34467 -11.97343,14.79413c2.61907,3.98158 23.59439,0.55234 28.81633,2.18801c3.50506,-3.46553 6.24806,-9.28245 7.51916,-15.7143c-0.17472,-6.58187 -0.75751,-11.75454 -2.05061,-18.15408c-3.60107,-8.48112 -5.56595,-10.43727 -10.8134,-18.04789c-3.33591,-5.36708 -13.13381,-12.67079 -18.63868,-18.66717c-3.33509,-5.6045 -2.05584,-10.8169 -1.84055,-21.64311z"/>
     <path opacity="0.7" fill="url(#linearGradient3611)" stroke-width="2" d="m234.315322,283.00379c-3.95082,8.75296 -5.87511,15.32733 -5.29178,24.03513c2.20515,8.39141 8.45425,8.45055 12.48457,15.6315c3.01141,5.00475 5.09904,9.48731 5.63635,18.40733c-0.19054,4.86983 -1.80291,11.37577 -3.84796,17.17045c-1.15023,3.95682 -7.74128,13.34467 -11.97343,14.79413c2.61907,3.98158 23.59439,0.55234 28.81633,2.18801c3.50506,-3.46553 6.24806,-9.28245 7.51916,-15.7143c-0.17472,-6.58187 -0.75751,-11.75454 -2.05061,-18.15408c-3.60107,-8.48112 -5.56595,-10.43727 -10.8134,-18.04789c-3.33591,-5.36708 -13.13381,-12.67079 -18.63868,-18.66717c-3.33509,-5.6045 -2.05584,-10.8169 -1.84055,-21.64311z" id="Smoke2"/>
     <path opacity="0.7" fill="url(#linearGradient3613)" stroke-width="2" id="Smoke3" d="m246.801522,284.9931c6.99045,6.5846 8.86168,13.09521 4.07934,20.39559c-3.29744,8.02529 -8.72452,18.34843 -5.30272,25.83848c2.5866,5.23695 14.46959,8.08163 14.26635,17.01551c-0.25788,5.50792 -6.20984,10.35476 -9.66575,13.59625c-4.77933,4.0781 -16.17374,10.45858 -18.85567,11.2034c2.61907,3.98158 23.59439,0.55234 28.81633,2.18801c3.50506,-3.46553 6.24806,-9.28245 9.61376,-13.32048c1.91987,-3.29036 2.98404,-8.81836 2.22535,-15.30301c-2.88634,-8.7502 -9.5114,-11.60345 -14.11055,-19.62249c-2.87999,-5.62491 0.92518,-11.10348 0.14608,-19.20614c0.71619,-6.48232 -1.04587,-19.05785 -11.21252,-22.78512z"/>
     <use height="600" width="1200" transform="matrix(-1,0,0,1,459.82414,0) " id="use3605" xlink:href="#Smoke1" y="0" x="0"/>
     <use height="600" width="1200" transform="matrix(0.7642613199999999,0,0,1.4013914999999997,85.69034137182616,-150.61427) " id="use3607" xlink:href="#Smoke1" y="0" x="-26.299529"/>
    </g>
    <g transform="matrix(0.49004809,0.8716954,-0.8716954,0.49004809,619.2098,122.58192) " id="Lid2">
     <path fill="#ff0000" fill-rule="nonzero" stroke="#000000" stroke-linejoin="round" stroke-miterlimit="4" stroke-dashoffset="4.1" id="path3758-1" d="m172.3559,346.38548c0,-34.98838 -40.10046,-63.35208 -88.20949,-63.35208c-48.10903,0 -88.90951,28.3637 -88.90951,63.35208c-9.25517,37.32535 174.48662,44.56588 177.119,0z"/>
     <path fill="url(#radialGradient3192)" fill-rule="nonzero" stroke-width="2" d="m1.45573,343.03962c-3.13528,-29.70012 43.29807,-60.60232 88.88839,-56.46165c45.5903,4.14066 79.90919,32.98953 76.77836,64.88133c-0.88622,22.93736 -169.72013,33.3822 -165.66675,-8.41968z" id="path2985-4-4"/>
     <path fill="#cccccc" fill-rule="nonzero" stroke="#140606" stroke-width="0.25" stroke-miterlimit="4" id="path3985" d="m100.84375,296.59375c-7.43666,0 -13.46875,5.35839 -13.46875,11.96875c0,6.61036 6.03209,11.96875 13.46875,11.96875c7.43665,0 13.46875,-5.35839 13.46875,-11.96875c0,-6.61036 -6.0321,-11.96875 -13.46875,-11.96875zm-5,5.0625c1.63598,0 2.96875,1.29745 2.96875,2.875c0,1.57755 -1.33277,2.84375 -2.96875,2.84375c-1.63598,0 -2.96875,-1.2662 -2.96875,-2.84375c0,-1.57755 1.33277,-2.875 2.96875,-2.875zm11.4375,2.125c1.63598,0 2.96875,1.2662 2.96875,2.84375c0,1.57755 -1.33277,2.875 -2.96875,2.875c-1.63598,0 -2.96875,-1.29745 -2.96875,-2.875c0,-1.57755 1.33277,-2.84375 2.96875,-2.84375zm-7.1875,7.625c1.63598,0 2.9375,1.2662 2.9375,2.84375c0,1.57755 -1.30152,2.875 -2.9375,2.875c-1.63598,0 -2.96875,-1.29745 -2.96875,-2.875c0,-1.57755 1.33277,-2.84375 2.96875,-2.84375z"/>
     <path fill="#000000" fill-rule="nonzero" stroke="#000000" stroke-linejoin="round" stroke-miterlimit="4" stroke-dashoffset="4.1" d="m60.77487,288.26473l-0.94733,-22.96242l47.44,-0.84594l0.24701,22.36372c-2.10329,3.17532 -3.97235,1.55743 -5.84475,0.008l0.2598,-17.28056l-36.07564,1.0655l0.92149,17.64414c-2.02728,1.06198 -4.04453,1.7314 -6.00058,0.008l0,-0.00044z" id="path3837-4"/>
    </g>
   </g>
  </g>
 </g>
</svg>